<svg id="Layer_1" data-name="Layer 1" xmlns="http://www.w3.org/2000/svg" viewBox="0 0 102.42 72.96"><defs><style>.cls-1{opacity:0.25;}.cls-2{fill:#005395;}</style></defs><title>01</title><g class="cls-1"><path class="cls-2" d="M1709.49,6140.49a0.68,0.68,0,0,1,.68.68v57c0,4.77,2.84,5.14,9.86,7.76a0.69,0.69,0,0,1,.45.64v0.08a0.68,0.68,0,0,1-.68.68H1689a0.68,0.68,0,0,1-.68-0.68v-0.08a0.69,0.69,0,0,1,.45-0.64c7.2-2.62,9.86-3,9.86-7.76v-47.83c0-4.88-2.3-5.33-10.26-8.51a0.68,0.68,0,0,1,.25-1.32h20.88m0-1.5h-20.88a2.18,2.18,0,0,0-.81,4.21l1.92,0.76c6.56,2.59,7.4,3,7.4,6.36v47.83c0,3.11-1,3.54-6.71,5.58l-2.16.77a2.19,2.19,0,0,0-1.44,2.05v0.08a2.19,2.19,0,0,0,2.18,2.18h30.81a2.19,2.19,0,0,0,2.18-2.18v-0.08a2.2,2.2,0,0,0-1.42-2l-2.36-.86c-5.49-2-6.52-2.44-6.52-5.49v-57a2.19,2.19,0,0,0-2.18-2.18h0Z" transform="translate(-1619.56 -6137.43)"/><path class="cls-2" d="M1648.95,6138.93c16.91,0,28,14,28,35s-11.08,35-28,35-27.89-14.09-27.89-35,11-35,27.89-35m0,65.78c10.2,0,14.48-12.44,14.48-30.8s-4.28-30.8-14.48-30.8-14.48,12.34-14.48,30.8,4.27,30.8,14.48,30.8m0-67.28a26.47,26.47,0,0,0-21.46,10.19c-5.19,6.54-7.93,15.63-7.93,26.29,0,21.82,11.81,36.48,29.39,36.48s29.48-14.66,29.48-36.48-11.85-36.48-29.48-36.48h0Zm0,65.78c-11.29,0-13-18.36-13-29.3,0-24.22,7.06-29.3,13-29.3s13,5.08,13,29.3c0,10.94-1.69,29.3-13,29.3h0Z" transform="translate(-1619.56 -6137.43)"/></g></svg>