<svg id="Layer_1" data-name="Layer 1" xmlns="http://www.w3.org/2000/svg" viewBox="0 0 112.4 72.96"><defs><style>.cls-1{opacity:0.25;}.cls-2{fill:#005395;}</style></defs><title>02</title><g class="cls-1"><path class="cls-2" d="M1648.95,7033.16c16.91,0,28,14,28,35s-11.08,35-28,35-27.89-14.09-27.89-35,11-35,27.89-35m0,65.78c10.2,0,14.48-12.44,14.48-30.8s-4.28-30.8-14.48-30.8-14.48,12.34-14.48,30.8,4.27,30.8,14.48,30.8m0-67.28a26.47,26.47,0,0,0-21.46,10.19c-5.19,6.54-7.93,15.63-7.93,26.29,0,21.82,11.81,36.48,29.39,36.48s29.48-14.66,29.48-36.48-11.85-36.48-29.48-36.48h0Zm0,65.78c-11.29,0-13-18.36-13-29.3,0-24.22,7.06-29.3,13-29.3s13,5.08,13,29.3c0,10.94-1.69,29.3-13,29.3h0Z" transform="translate(-1619.56 -7031.66)"/><path class="cls-2" d="M1704.27,7033.16c12.61,0,23.25,6.31,23.25,19.2s-11.55,21.86-33.33,37a0.62,0.62,0,0,0,.35,1.13h0l18.1-.34c9.29-.09,12-0.46,16.67-8.08a0.62,0.62,0,0,1,1.14.39l-1.93,17a0.62,0.62,0,0,1-.61.55H1681v-0.32a0.62,0.62,0,0,1,.17-0.42l14.14-15.16c9.51-10.17,19.86-21.18,19.86-33.79,0-8-3.67-13.46-10.92-13.46-6.68,0-10,5.18-10,11.86,0,4,1,7.22,3,9.2a0.62,0.62,0,0,1-.21,1,12.38,12.38,0,0,1-3.91.6c-5.27,0-9.51-4-9.51-10.26,0-9,8.19-16.1,20.61-16.1m0-1.5c-12.81,0-22.11,7.4-22.11,17.6,0,6.81,4.63,11.76,11,11.76a13.79,13.79,0,0,0,4.42-.69,2.1,2.1,0,0,0,1.34-1.53,2.13,2.13,0,0,0-.59-2c-1.67-1.65-2.55-4.46-2.55-8.13,0-2.43.61-10.36,8.48-10.36,8.5,0,9.42,8.36,9.42,12,0,12-9.83,22.47-19.33,32.63l-0.13.14-14.14,15.17a2.11,2.11,0,0,0-.57,1.44v1.82h48.39a2.12,2.12,0,0,0,2.1-1.88l1.93-17a2.12,2.12,0,0,0-3.91-1.34c-4.31,7-6.38,7.28-15.4,7.37l-15.2.28c20.21-14.07,31.59-23.08,31.59-36.53,0-12.58-9.71-20.7-24.75-20.7h0Z" transform="translate(-1619.56 -7031.66)"/></g></svg>