<svg id="Layer_1" data-name="Layer 1" xmlns="http://www.w3.org/2000/svg" viewBox="0 0 115.95 72.96"><defs><style>.cls-1{opacity:0.25;}.cls-2{fill:#005395;}</style></defs><title>03</title><g class="cls-1"><path class="cls-2" d="M1648.95,7898c16.91,0,28,14,28,35s-11.08,35-28,35-27.89-14.09-27.89-35,11-35,27.89-35m0,65.78c10.2,0,14.48-12.44,14.48-30.8s-4.28-30.8-14.48-30.8-14.48,12.34-14.48,30.8,4.27,30.8,14.48,30.8m0-67.28a26.47,26.47,0,0,0-21.46,10.19c-5.19,6.54-7.93,15.63-7.93,26.29,0,21.82,11.81,36.48,29.39,36.48s29.48-14.66,29.48-36.48-11.85-36.48-29.48-36.48h0Zm0,65.78c-11.29,0-13-18.36-13-29.3,0-24.22,7.06-29.3,13-29.3s13,5.08,13,29.3c0,10.94-1.69,29.3-13,29.3h0Z" transform="translate(-1619.56 -7896.54)"/><path class="cls-2" d="M1708.34,7898.15c12.69,0,23,5.62,23,16.85,0,9.3-8.23,14.43-17.24,15.11v0.19c12,0.68,20,7.85,20,18,0,13.17-11.72,19.57-26.35,19.57-12.5,0-23.44-5.91-23.44-16,0-6.39,4.75-10.27,10.46-10.27a10.65,10.65,0,0,1,2.71.33,1.42,1.42,0,0,1,.8,2.17,12.69,12.69,0,0,0-2.25,7.77c0,7.85,4.65,12.11,11.72,12.11,8.14,0,13.27-5.71,13.27-15.69s-5.14-16.12-14.83-16.63a1.42,1.42,0,0,1,0-2.83c9.06-.74,13.12-5.45,13.12-13.87,0-7.75-3.68-13-10.85-13-6.88,0-10.46,4.65-10.46,11.24,0,3.35.69,5.62,2.11,7.32a1.41,1.41,0,0,1-.81,2.27,10.92,10.92,0,0,1-2.07.19c-5.42,0-9.59-3.68-9.59-10,0-8.23,8.23-14.92,20.83-14.92m0-1.5c-12.94,0-22.33,6.9-22.33,16.42,0,6.76,4.56,11.48,11.09,11.48a12.34,12.34,0,0,0,2.36-.22,2.91,2.91,0,0,0,1.68-4.7c-1.22-1.46-1.76-3.42-1.76-6.36,0-6.19,3.27-9.74,9-9.74,8.44,0,9.35,8,9.35,11.48,0,7.89-3.62,11.71-11.74,12.37a2.92,2.92,0,0,0,.08,5.82c8.77,0.46,13.4,5.69,13.4,15.13,0,9-4.29,14.19-11.77,14.19-6.5,0-10.22-3.87-10.22-10.61a11.18,11.18,0,0,1,2-6.91,2.92,2.92,0,0,0-1.65-4.48,12.1,12.1,0,0,0-3.09-.38c-6.93,0-12,4.95-12,11.77,0,10.13,10.49,17.48,24.94,17.48,7.86,0,14.61-1.76,19.5-5.1a18.54,18.54,0,0,0,8.34-16c0-8.74-5.48-15.51-14.19-18.24,6.39-2.36,11.48-7.33,11.48-15.08,0-11.15-9.6-18.35-24.46-18.35h0Z" transform="translate(-1619.56 -7896.54)"/></g></svg>