<svg id="Layer_1" data-name="Layer 1" xmlns="http://www.w3.org/2000/svg" viewBox="0 0 118.05 74.41"><defs><style>.cls-1{opacity:0.25;}.cls-2{fill:#005395;}</style></defs><title>05</title><g class="cls-1"><path class="cls-2" d="M1648.95,9917.28c16.91,0,28,14,28,35s-11.08,35-28,35-27.89-14.09-27.89-35,11-35,27.89-35m0,65.78c10.2,0,14.48-12.44,14.48-30.8s-4.28-30.8-14.48-30.8-14.48,12.34-14.48,30.8,4.27,30.8,14.48,30.8m0-67.28a26.47,26.47,0,0,0-21.46,10.19c-5.19,6.54-7.93,15.63-7.93,26.29,0,21.82,11.81,36.48,29.39,36.48s29.48-14.66,29.48-36.48-11.85-36.48-29.48-36.48h0Zm0,65.78c-11.29,0-13-18.36-13-29.3,0-24.22,7.06-29.3,13-29.3s13,5.08,13,29.3c0,10.94-1.69,29.3-13,29.3h0Z" transform="translate(-1619.56 -9915.06)"/><path class="cls-2" d="M1734.17,9916.56c0,9.77-3.48,16.06-14.51,16.06a68.5,68.5,0,0,1-17.52-2.67,0.93,0.93,0,0,0-1.19.79l-1.86,15.75a0.93,0.93,0,0,0,.93,1,0.94,0.94,0,0,0,.47-0.13,27.47,27.47,0,0,1,13.27-3.27c11.71,0,22.35,6.68,22.35,21,0,15.19-13.45,22.83-27,22.83-12.68,0-22.64-5.9-22.64-15.67,0-6.58,4.64-10.35,10.06-10.35a11.49,11.49,0,0,1,3.8.62,0.93,0.93,0,0,1,.4,1.46,12.76,12.76,0,0,0-2.75,8.37c0,7.55,4.16,11.61,11.13,11.61,9,0,13.74-7.26,13.74-17.9,0-10.16-4.26-16.84-13.93-16.84a21.18,21.18,0,0,0-14.51,5.9H1694l4.24-35a0.93,0.93,0,0,1,.92-0.82h0.13a153.71,153.71,0,0,0,19.19,1.42c7,0,11.42-.48,15.29-4.26h0.39m1.5-1.5h-2.5l-0.44.43c-3.36,3.28-7.11,3.83-14.24,3.83a152.75,152.75,0,0,1-19-1.41l-0.33,0a2.43,2.43,0,0,0-2.41,2.14l-4.24,35-0.2,1.68H1695l0.43-.4a19.52,19.52,0,0,1,13.5-5.51c8.25,0,12.43,5.16,12.43,15.34,0,14.8-8.56,16.4-12.24,16.4-6.3,0-9.63-3.5-9.63-10.11a11.41,11.41,0,0,1,2.41-7.42,2.43,2.43,0,0,0-1.07-3.82,13.1,13.1,0,0,0-4.3-.71c-6.7,0-11.56,5-11.56,11.85,0,10.11,9.93,17.17,24.14,17.17a32.44,32.44,0,0,0,19.48-6,22.11,22.11,0,0,0,9-18.31c0-7.12-2.53-13-7.32-17-4.21-3.53-10.08-5.48-16.53-5.48a29.48,29.48,0,0,0-13,2.94l1.65-14a70.07,70.07,0,0,0,17.3,2.54c10.78,0,16-5.74,16-17.56v-1.5h0Z" transform="translate(-1619.56 -9915.06)"/></g></svg>