<svg id="Layer_1" data-name="Layer 1" xmlns="http://www.w3.org/2000/svg" viewBox="0 0 93.92 74.46"><defs><style>.cls-1{opacity:0.25;}.cls-2{fill:#005395;}</style></defs><title>15</title><g class="cls-1"><path class="cls-2" d="M90.86,1.5c0,9.77-3.48,16.06-14.51,16.06a68.53,68.53,0,0,1-17.52-2.67,0.93,0.93,0,0,0-1.19.79L55.78,31.43a0.93,0.93,0,0,0,.86,1h0.07a0.94,0.94,0,0,0,.47-0.13A27.46,27.46,0,0,1,70.45,29C82.16,29,92.8,35.71,92.8,50c0,15.19-13.45,22.83-27,22.83-12.68,0-22.64-5.9-22.64-15.67,0-6.58,4.64-10.35,10.06-10.35a11.48,11.48,0,0,1,3.8.62,0.93,0.93,0,0,1,.55,1.19,1,1,0,0,1-.15.27,12.76,12.76,0,0,0-2.75,8.37c0,7.55,4.16,11.61,11.13,11.61,9,0,13.74-7.26,13.74-17.9,0-10.16-4.26-16.84-13.93-16.84a21.18,21.18,0,0,0-14.51,5.9H50.69l4.24-35a0.93,0.93,0,0,1,.92-0.82H56A153.67,153.67,0,0,0,75.17,5.66c7,0,11.42-.48,15.29-4.26h0.39m1.5-1.5h-2.5l-0.44.43C86.05,3.61,82.3,4.16,75.17,4.16a152.69,152.69,0,0,1-19-1.41H55.84a2.43,2.43,0,0,0-2.41,2.14l-4.24,35L49,41.57h2.7l0.43-.4a19.52,19.52,0,0,1,13.5-5.51c8.25,0,12.43,5.16,12.43,15.34,0,14.8-8.56,16.4-12.24,16.4-6.3,0-9.63-3.5-9.63-10.11a11.41,11.41,0,0,1,2.41-7.42A2.43,2.43,0,0,0,57.52,46a13.09,13.09,0,0,0-4.3-.71c-6.7,0-11.56,5-11.56,11.85,0,10.11,9.93,17.17,24.14,17.17a32.44,32.44,0,0,0,19.48-6,22.11,22.11,0,0,0,9-18.31c0-7.12-2.53-13-7.32-17a25.64,25.64,0,0,0-16.53-5.48,29.47,29.47,0,0,0-13,2.94l1.65-14A70.09,70.09,0,0,0,76.38,19c10.78,0,16-5.74,16-17.56V0h0Z" transform="translate(-0.36 0.1)"/><path class="cls-2" d="M23.43,3.07a0.68,0.68,0,0,1,.68.68h0v57c0,4.77,2.84,5.14,9.86,7.76a0.69,0.69,0,0,1,.45.64v0.08a0.68,0.68,0,0,1-.68.68H2.94a0.68,0.68,0,0,1-.68-0.68h0V69.15a0.69,0.69,0,0,1,.45-0.64c7.2-2.62,9.86-3,9.86-7.76V12.92c0-4.88-2.3-5.33-10.26-8.51a0.68,0.68,0,0,1,.25-1.32H23.44m0-1.5H2.56A2.18,2.18,0,0,0,1.75,5.8L3.67,6.56c6.56,2.59,7.4,3,7.4,6.36V60.75c0,3.11-1,3.54-6.71,5.58L2.2,67.1a2.19,2.19,0,0,0-1.44,2v0.08a2.19,2.19,0,0,0,2.18,2.18H33.75a2.19,2.19,0,0,0,2.18-2.18v0a2.2,2.2,0,0,0-1.42-2l-2.36-.86c-5.49-2-6.52-2.44-6.52-5.49V3.8a2.19,2.19,0,0,0-2.18-2.18h0v0Z" transform="translate(-0.36 0.1)"/></g></svg>