<svg id="Layer_1" data-name="Layer 1" xmlns="http://www.w3.org/2000/svg" viewBox="0 0 118.09 72.96"><defs><style>.cls-1{opacity:0.25;}.cls-2{fill:#005395;}</style></defs><title>05</title><g class="cls-1"><path class="cls-2" d="M25.08,3.5C37.88,3.5,48.67,9.89,48.67,23S37,45.15,14.85,60.46a0.63,0.63,0,0,0,.35,1.14h0l18.36-.34c9.43-.09,12.15-0.47,16.91-8.2a0.63,0.63,0,0,1,.53-0.3h0a0.63,0.63,0,0,1,.62.7l-2,17.27a0.63,0.63,0,0,1-.62.56H1.5V71a0.63,0.63,0,0,1,.17-0.43L16,55.15c9.64-10.31,20.15-21.48,20.15-34.28,0-8.12-3.72-13.65-11.08-13.65C18.3,7.22,15,12.47,15,19.25c0,4.05,1,7.32,3,9.33a0.63,0.63,0,0,1-.21,1,12.56,12.56,0,0,1-4,.61c-5.35,0-9.64-4-9.64-10.41,0-9.17,8.31-16.33,20.91-16.33m0-1.5C12.1,2,2.67,9.49,2.67,19.82c0,6.9,4.69,11.91,11.14,11.91A14,14,0,0,0,18.3,31a2.1,2.1,0,0,0,1.35-1.53,2.14,2.14,0,0,0-.59-2c-1.69-1.68-2.59-4.53-2.59-8.26,0-2.47.62-10.53,8.62-10.53,8.64,0,9.58,8.5,9.58,12.15C34.66,33,24.69,43.68,15,54l-0.13.14L0.57,69.51A2.12,2.12,0,0,0,0,71v1.83H49.06a2.12,2.12,0,0,0,2.11-1.89l2-17.27a2.12,2.12,0,0,0-3.92-1.35c-4.38,7.12-6.48,7.39-15.64,7.48l-15.49.29C38.61,45.76,50.17,36.61,50.17,23c0-12.74-9.85-21-25.08-21h0Z" transform="translate(0 -0.91)"/><path class="cls-2" d="M88.61,2.41c16.91,0,28,14,28,35s-11.08,35-28,35-27.89-14.09-27.89-35,11-35,27.89-35m0,65.79c10.2,0,14.48-12.44,14.48-30.8S98.81,6.59,88.61,6.59,74.13,18.93,74.13,37.39,78.4,68.2,88.61,68.2m0-67.29A26.47,26.47,0,0,0,67.15,11.1C62,17.63,59.22,26.73,59.22,37.39c0,21.82,11.81,36.48,29.39,36.48s29.49-14.66,29.49-36.48S106.24,0.91,88.61.91h0Zm0,65.79c-11.29,0-13-18.36-13-29.3,0-24.22,7.06-29.3,13-29.3s13,5.08,13,29.3c0,10.94-1.69,29.3-13,29.3h0Z" transform="translate(0 -0.91)"/></g></svg>