<svg id="Layer_1" data-name="Layer 1" xmlns="http://www.w3.org/2000/svg" viewBox="0 0 261.36 65.12"><defs><style>.cls-1{opacity:0.5;}.cls-2{fill:#c0bfbf;}.cls-3{fill:#fff;}</style></defs><title>df-cordova-stamp</title><g class="cls-1"><path class="cls-2" d="M88.8,3.44h2.67v1.2H88.8V8H87.59V0.11h4.67v1.2H88.8V3.44Z" transform="translate(0 0.05)"/><path class="cls-2" d="M97.34,4.62V8H96.13V0.11h3.11a2.16,2.16,0,0,1,2.43,2.26,2.06,2.06,0,0,1-1.78,2.19l2,3.46h-1.36l-2-3.4H97.34Zm1.9-3.31h-1.9V3.46h1.9a1,1,0,0,0,1.2-1.07,1,1,0,0,0-1.21-1.08h0Z" transform="translate(0 0.05)"/><path class="cls-2" d="M106.86,3.44h2.67v1.2h-2.67V6.83h3.46V8h-4.67V0.11h4.67v1.2h-3.46V3.44Z" transform="translate(0 0.05)"/><path class="cls-2" d="M114.17,5.57h1.23a1.59,1.59,0,0,0,1.71,1.37,1.12,1.12,0,0,0,1.33-1,1.16,1.16,0,0,0-1.12-1.14l-1.4-.34a2.11,2.11,0,0,1-1.63-2.22c0-1.53,1.15-2.24,2.56-2.24a2.49,2.49,0,0,1,2.7,2.23h-1.29a1.31,1.31,0,0,0-1.4-1,1.09,1.09,0,0,0-1.33,1,1,1,0,0,0,.89,1l1.36,0.33A2.21,2.21,0,0,1,119.68,6c0,1.28-.94,2.18-2.59,2.18a2.68,2.68,0,0,1-2.91-2.43Q114.17,5.66,114.17,5.57Z" transform="translate(0 0.05)"/><path class="cls-2" d="M127.76,0.11H129V8h-1.21V4.64H124.5V8h-1.21V0.11h1.21V3.44h3.26V0.11Z" transform="translate(0 0.05)"/><path class="cls-2" d="M143.59,3.44h2.67v1.2h-2.67V8h-1.21V0.11H147v1.2h-3.46V3.44h0Z" transform="translate(0 0.05)"/><path class="cls-2" d="M152.12,4.62V8h-1.21V0.11H154a2.16,2.16,0,0,1,2.43,2.26,2.06,2.06,0,0,1-1.78,2.19l2,3.46h-1.36l-2-3.4h-1.17ZM154,1.31h-1.9V3.46H154a1,1,0,0,0,1.2-1.07A1,1,0,0,0,154,1.31Z" transform="translate(0 0.05)"/><path class="cls-2" d="M159.82,2.79a2.84,2.84,0,0,1,5.68,0V5.35a2.84,2.84,0,0,1-5.68,0V2.79Zm4.47,0a1.63,1.63,0,0,0-3.26,0V5.35a1.63,1.63,0,0,0,3.26,0V2.79Z" transform="translate(0 0.05)"/><path class="cls-2" d="M173.35,0.11h1.28V8h-1.18V2.59L172.26,5.9h-1l-1.19-3.31V8H169V0.11h1.28l1.56,4.35Z" transform="translate(0 0.05)"/></g><path class="cls-3" d="M10.46,64.39c-6.08,0-9.57-4.11-10.25-7.94-0.94-5.34,1.3-11.57,6.31-17.54,6.89-8.21,18-14.63,25.31-14.63,3.39,0,5.31,1.19,5.72,3.53C38.21,31.53,32,39.5,21.1,43l-0.33.11L20,41.92l0.56-.18C31.15,38.36,36.69,30.9,36.18,28c-0.25-1.42-1.07-2.36-4.27-2.36-7,0-17.65,6.21-24.29,14.13C2.84,45.41.7,51.29,1.59,56.3c0.44,2.52,2.79,6.77,8.8,6.77,8,0,15.06-3,19.33-8.18l0.1-.13A12.11,12.11,0,0,1,31,53.43l0.28-.28,0.88,0.65A10.87,10.87,0,0,1,34.26,50c1.8-2.14,4.1-3.52,5.86-3.52a2.32,2.32,0,0,1,2.43,2c0.54,3-2.45,8-5.79,11.22,2.5,0,5.7-2,8.44-5.41l0.62-.77c2.56-3.15,5.46-6.71,6.7-9.91l0.16-.41L54,43.59,53.4,45a2.29,2.29,0,0,0,.46,2.6,2,2,0,0,0,1.89.29l0.16-.17h0.36l0.18,0.11,0.78,0.66-0.36.35c-1.32,1.29-7.28,8.39-6.73,11.49a0.89,0.89,0,0,0,.88.9h0.12c1.86,0,5.39-2.8,8.8-7,2.44-4.17,7.31-7.33,10-7.33A2.06,2.06,0,0,1,72,48.36a1.66,1.66,0,0,1,0,.22c1.32-2.35,2.85-4.74,4.32-7,0.86-1.31,8.5-12.85,10.95-12.85a1.4,1.4,0,0,1,1.41,1.17c0.35,2-6.5,11.9-11.48,18.31A94.35,94.35,0,0,1,70,56.9a8,8,0,0,0-.24,3.1c0.18,1,.52,1.22,1.15,1.22,2.46,0,6.4-2.82,9.81-7A14.19,14.19,0,0,1,82,52.74l0.28-.28,0.57,0.42A11.58,11.58,0,0,1,84.59,50c1.8-2.14,4.1-3.52,5.86-3.52a2.32,2.32,0,0,1,2.43,2c0.54,3-2.45,8-5.79,11.22,2.39,0,5.43-1.86,8.09-5l0.6-.73c0.42-.51.92-1.16,1.46-1.86,0.89-1.15,1.89-2.45,2.8-3.52l0.25-.29L101.52,49l-0.35.41c-4.5,5.32-6.21,9.37-5.92,11a0.74,0.74,0,0,0,.71.77h0.16c2.84,0,8.64-6.9,12.65-13.4l0.2-.47L110.22,48l-0.4.72c-3.71,6-3.15,8-2.88,8.46a0.66,0.66,0,0,0,.61.37c1.31,0,3.31-1.36,4.87-3.32l0.14-.17c2.5-3.49,7.05-7,10.51-7a2.49,2.49,0,0,1,2.65,1.84,4.77,4.77,0,0,1-1.08,3.1l-0.13.23L122.64,55c-2.3,3-2.69,5-2.3,5.73a0.74,0.74,0,0,0,.7.42c1.76,0,4.58-2.34,8.38-6.94l0.25-.29,1.22,0.71-0.33.41c-4,4.94-7.15,7.44-9.44,7.44a2.07,2.07,0,0,1-1.81-.93,3.16,3.16,0,0,1-.32-2.36c-2.26,2.16-4.27,3.25-6,3.25a2.61,2.61,0,0,1-2.53-2.26,5.47,5.47,0,0,1,.18-2.44c-1.93,1.3-3.86,1.55-4.73.23a4.24,4.24,0,0,1-.3-3.29c-2.8,3.57-6.69,7.8-9.46,7.8a2.25,2.25,0,0,1-2.33-1.93,6.25,6.25,0,0,1,.48-3.08c-3,2.67-6.15,3.93-8.63,3.33a7.81,7.81,0,0,1-4.47,2,2.71,2.71,0,0,1-2.73-2.31,5.17,5.17,0,0,1,.1-2c-2.83,2.62-5.57,4.09-7.67,4.09a2.57,2.57,0,0,1-2.6-2.39,6.68,6.68,0,0,1-.08-1.59c-2.84,2.62-5.16,3.9-7.07,3.9a2.64,2.64,0,0,1-2.58-2.26,7,7,0,0,1,0-2.3c-2.83,2.91-5.51,4.6-7.34,4.6a2.42,2.42,0,0,1-2.49-2c-0.57-3.21,3.75-8.81,5.84-11.28a3.52,3.52,0,0,1-1.84-.86,2.7,2.7,0,0,1-.65-0.94A80.9,80.9,0,0,1,46.37,55l0,0c-3.51,4.32-7.78,6.56-11,5.76a7.81,7.81,0,0,1-4.47,2,2.71,2.71,0,0,1-2.73-2.31,6.06,6.06,0,0,1,0-2C22.12,63.59,14.57,64.39,10.46,64.39ZM82.27,54.5c-1.86,2.14-2.61,4.46-2.38,5.79a1.17,1.17,0,0,0,1.19,1.14h0.09a5.91,5.91,0,0,0,3.13-1.25,5.08,5.08,0,0,1-2.08-3.51A6,6,0,0,1,82.27,54.5Zm-50.34,0c-1.92,1.91-2.71,3.85-2.38,5.78a1.17,1.17,0,0,0,1.19,1.14h0.09A5.91,5.91,0,0,0,34,60.18a5.08,5.08,0,0,1-2.08-3.51,6,6,0,0,1,0-2.16h0Zm38.14-6.3c-1.92,0-5.3,2.16-7.53,4.82-2,2.41-2.93,4.89-2.56,7a1.1,1.1,0,0,0,1.1,1.1h0c1.83,0,4.38-1.65,7.6-4.91a23.17,23.17,0,0,1,1.11-3.11,13.7,13.7,0,0,1-4.35,3.25l-0.33.15-0.81-1.07,0.51-.24c3.7-1.73,6.09-5.48,5.88-6.7a0.62,0.62,0,0,0-.65-0.28h0Zm53.08,0.13c-2.36,0-6,2.28-8.61,5.41-2,2.33-3,4.66-2.67,6.25a1.05,1.05,0,0,0,1,1.1h0.08c1.87,0,4.31-1.78,7.25-5.29a13.44,13.44,0,0,1-1.35.61l-0.35.13-0.77-1.2,0.52-.2c4.44-1.68,6.28-5.07,6.09-6.14a1,1,0,0,0-1.19-.66h0Zm-83-.59c-1.38,0-3.33,1.21-4.85,3s-2.37,4-2.08,5.74a3.52,3.52,0,0,0,1.84,2.75c3.3-2.82,6.55-7.91,6.06-10.7a0.84,0.84,0,0,0-.89-0.78H40.15Zm50.34,0c-1.38,0-3.33,1.21-4.85,3s-2.37,4-2.08,5.74a3.52,3.52,0,0,0,1.84,2.75c3.3-2.82,6.55-7.91,6.06-10.7a0.84,0.84,0,0,0-.89-0.78H90.49Zm-12.87-5.4a86.5,86.5,0,0,0-6.44,11.23c1.49-1.71,3.14-3.75,5-6.16,6.9-8.88,11.3-16.23,11.25-17.32-1.08.4-4.83,4.67-9.8,12.25h0Z" transform="translate(0 0.05)"/><polygon class="cls-3" points="130.56 65.12 129.33 64.41 133.58 59.33 134.81 60.05 130.56 65.12"/><path class="cls-3" d="M144.71,63.7h-0.88c-3.58-.35-5.69-2.77-5.4-6.15a6.4,6.4,0,0,1,6.25-5.74A5.31,5.31,0,0,1,150,57.64v0.45L148.52,58V57.55a3.83,3.83,0,0,0-3.88-4.26,4.89,4.89,0,0,0-4.77,4.39c-0.22,2.57,1.29,4.27,4.06,4.54,6.44,0.6,14.43-7.31,22.16-16.19h-18l0.74-1.37h18.49c0.51-.6,1-1.22,1.53-1.83l1.37-1.65c6.65-7.82,12.93-15.2,17.83-16.54a7.76,7.76,0,0,1,4.85,0l0.41,0.17v0.12l0.45,0.26-0.33.41c-0.39.49-.94,1.16-1.6,2a197.42,197.42,0,0,0-11.94,15.74l-0.8,1.23h6.65L185,46h-6.79c-2.66,4.25-6,10.2-5.39,13.74a1.93,1.93,0,0,0,1.92,1.73c2,0,5.61-1.87,9.92-7.1,3.15-9,15.36-25.14,19-25.14a1.54,1.54,0,0,1,1.58,1.3c0.59,3.33-11.13,16.94-19.35,24.54a9.47,9.47,0,0,0-.67,4.37,1.78,1.78,0,0,0,1.85,1.7h0.15c2.61,0,5.93-2.38,9.6-6.89l0.12-.14c2.64-3.7,6.83-6.65,9.92-7h1.06a2.55,2.55,0,0,1,2.39,2,3,3,0,0,1-1.25,3.09,3.75,3.75,0,0,1-4,.21l-0.39-.22L205.4,51l0.39,0.22a2.34,2.34,0,0,0,2.49-.13,1.64,1.64,0,0,0,.71-1.72,1.41,1.41,0,0,0-1.59-1h0c-2.43.09-6.08,2.48-8.66,5.67-1.83,2.26-2.72,4.44-2.45,6a1.05,1.05,0,0,0,1,1.1h0.08c2.14,0,5-2.33,8.56-6.93l0.34-.49,1.23,0.72L207,55c-2.28,3-2.68,4.93-2.29,5.71a0.74,0.74,0,0,0,.7.42c1.76,0,4.58-2.34,8.38-6.94,2-2.47,3.87-4.91,5.11-6.71,0.47-1.91,1.4-3.91,2.37-4l0.16-.22v0.23a0.86,0.86,0,0,1,.63.8c0,0.22.13,0.73-1.86,3.62l-0.11.54a15.38,15.38,0,0,0,0,4c0.08,1.1.15,2.25,0.13,3.47A11.77,11.77,0,0,1,220,58.2a10.73,10.73,0,0,0,5.79-3.9c9.77-15.3,16.36-24.81,18.94-24.81a1.69,1.69,0,0,1,1.6,1.38c0.54,3-5.23,9.52-12.62,17.18a10.47,10.47,0,0,1,3.21-.49,2.76,2.76,0,0,1,2.93,2.31,4.43,4.43,0,0,1-1.28,3.55c-0.92,1.06-3.62,3.47-9.38,3.34a3.82,3.82,0,0,0,.48,3.21,3.19,3.19,0,0,0,2.58,1.17c3.15,0,7.13-2.59,10.66-6.94L243,54c2.5-3.49,7.05-7,10.52-7a2.49,2.49,0,0,1,2.65,1.84c0.19,1-.56,2.69-1.91,4.19l-0.25.27-1.2-.7,0.38-.41a4.87,4.87,0,0,0,1.6-3.19,1,1,0,0,0-1.2-.68c-2.36,0-6,2.28-8.61,5.41-2,2.33-3,4.66-2.67,6.24a1.05,1.05,0,0,0,1,1.1h0.08c2.14,0,5-2.33,8.56-6.93l0.34-.49,1.23,0.72L253.1,55c-2.28,3-2.68,4.93-2.29,5.71a0.74,0.74,0,0,0,.7.42c1.76,0,4.58-2.34,8.38-6.94l0.25-.29,1.22,0.71L261,55c-4,4.94-7.15,7.44-9.44,7.44a2.07,2.07,0,0,1-1.81-.93,3.15,3.15,0,0,1-.32-2.36c-2.26,2.16-4.26,3.25-6,3.25A2.61,2.61,0,0,1,241,60.15a5.12,5.12,0,0,1,.07-2c-3,2.76-6.06,4.25-8.73,4.25a4.68,4.68,0,0,1-3.79-1.85,5.2,5.2,0,0,1-.5-4.87l0.11-.33h0.35c5.6,0.29,8.16-1.87,9-2.81a3.31,3.31,0,0,0,1-2.58,1.24,1.24,0,0,0-1.33-1.15l-0.18,0c-5,0-7.62,3.41-13.17,11.12-0.82,1.23-1.44,2.11-1.75,2.53l-0.24.32-1.2-.7,0.27-.4c0.62-.93,1.2-1.77,1.79-2.61l0.55-.85a10.55,10.55,0,0,1-3.69,1.3,5.13,5.13,0,0,1-4.92,3.49,3.71,3.71,0,0,1-3.41-1.8,3.29,3.29,0,0,1-.4-1.75c-2.1,1.94-3.88,2.92-5.31,2.92a2.07,2.07,0,0,1-1.81-.93,3.16,3.16,0,0,1-.32-2.36c-2.26,2.16-4.27,3.25-6,3.25a2.61,2.61,0,0,1-2.53-2.26,5,5,0,0,1,0-1.83c-2.81,2.71-5.38,4.09-7.64,4.09a3.29,3.29,0,0,1-3.46-2.85,7,7,0,0,1,0-2.25c-4.82,5-8.12,5.45-9.07,5.45a3.38,3.38,0,0,1-3.37-2.89c-0.44-2.53.71-6.2,3.53-11.23,0.46-.81,1-1.68,1.57-2.67H168C160.69,54.59,152.17,63.7,144.71,63.7Zm68.08-5.48a2.29,2.29,0,0,0-.37,2.29,2.22,2.22,0,0,0,2.15,1.26A3.7,3.7,0,0,0,218,59.71a11,11,0,0,1-5.21-1.49h0ZM213.32,57a9.42,9.42,0,0,0,5.18,1.41,10.54,10.54,0,0,0,.34-2.49,33.81,33.81,0,0,0-.12-3.39c-0.05-.76-0.1-1.5-0.11-2.2C217.27,52.09,216,53.68,215,55,214.42,55.7,213.87,56.36,213.32,57Zm-1.52.9L211.88,58a3.86,3.86,0,0,1,.41-0.53h0Zm15.11-3.62-0.35.55c0.6-.77,1.17-1.48,1.73-2.11l-0.25-.2-1.13,1.76h0ZM203.74,30.52c-2.27,0-12.16,12-16.56,21.37,8.6-8.42,17.07-19.11,16.69-21.23a1.1,1.1,0,0,0,0-.13h-0.13Zm41.09,0.29c-1.81,0-9.24,11-13.79,18,6.88-7.12,14.43-15,13.93-17.82C244.94,30.81,244.89,30.81,244.83,30.81Zm-75.5,13.76h8.06A161.13,161.13,0,0,1,191,26.33l0.41-.49a7.6,7.6,0,0,0-3,.23c-4.46,1.22-10.59,8.43-17.08,16.07l-0.52.62Z" transform="translate(0 0.05)"/></svg>