<?xml version="1.0" encoding="utf-8"?>
<!-- Generator: Adobe Illustrator 18.1.1, SVG Export Plug-In . SVG Version: 6.00 Build 0)  -->
<svg version="1.1" id="Layer_1" xmlns="http://www.w3.org/2000/svg" xmlns:xlink="http://www.w3.org/1999/xlink" x="0px" y="0px"
	 viewBox="0 0 1280 800" enable-background="new 0 0 1280 800" xml:space="preserve">
<title>df-logo-straight-white</title>
<path fill="#0A5593" d="M91.6,306.1c-41.9-1.9-40.4,5.1-91.5,5.1v6.6c8.6,4.9,14.7,7.4,14.9,20.2v135.3c0,12.8-6.2,15.3-14.9,20.2
	v6.6c58,0,57.5,7.4,97.3,5.6c49.1-2.1,90.2-45.8,90.2-102.2C186.4,350.7,144.4,308,91.6,306.1z M88.7,491.2
	c-34.6,0-42.8-11.8-42.8-28.5V337.4c0-15.9,19.3-16.1,28.6-16.1c53.4,0,78.3,35.3,78.3,82.3S136.1,491.2,88.7,491.2z"/>
<path fill="#0A5593" d="M311.1,388.1c8.1-11.8,16.2-10.2,22.9-14.4c5.6-2.5,8.6-8.8,6.9-14.7c-2.3-6.8-9.6-10.4-16.4-8.1
	c-0.6,0.2-1.2,0.4-1.7,0.7c-11.5,8-17,22.2-13.9,35.9c0.1,0.6,0.6,1.1,1.3,1.1C310.6,388.5,310.9,388.3,311.1,388.1z"/>
<path fill="#0A5593" d="M351.4,494.1c-9.2,0-14.9-7.5-14.9-20.9v-70.5c0-1.6-1.3-2.8-2.9-2.8c-0.4,0-0.7,0.1-1,0.2
	c-10,7.9-21.9,13-34.5,15.1v4.8c8.7,4.1,14.9,5.4,14.9,25.1v28.2c0,13.4-5.4,20.9-14.9,20.9v6.6h53.4v-6.7H351.4z"/>
<path fill="#0A5593" d="M379,471.6c0,13.4-5.4,20.9-14.9,20.9v6.6h54.3v-6.6c-8.9,0-14.9-7.5-14.9-20.9c0,0,0-112,0-128.6
	c0-21.5,6-29.2,15.5-30.1c11.8-1.2,15.5,11.8,16.7,19.1c1.8,11.8,4.8,20.8,16.4,23.5c9.5,2.8,19.4-2.6,22.2-12
	c0.9-3.1,1-6.3,0.2-9.4c-0.3-0.6-1-0.8-1.6-0.5c-0.2,0.1-0.4,0.3-0.6,0.5c-1.7,4.2-5.9,6.7-10.4,6.2c-6.8-1.2-6.6-9.2-9.2-16.5
	c-3.7-14.9-17.6-24.8-32.8-23.5c-22.8,0-41.1,15.6-41.1,50v50.8c-7,5.5-15.3,8.8-24.1,9.8v7.8h23.5v52.6L379,471.6z"/>
<path fill="#0A5593" d="M259.6,494.1c-10.6-0.7-18.7-9.8-18-20.5c0-0.2,0-0.3,0-0.5v-25.5c0-16.1,7.3-27.8,17.8-27.8
	c6.4-0.9,12.4,3.6,13.3,10c0.1,0.6,0.1,1.2,0.1,1.8c7-0.7,12.3-6.5,12.5-13.5c1.1-7.7-4.3-14.8-12.1-15.9c-1-0.1-2.1-0.2-3.1-0.1
	c-11,2.4-20.9,8.2-28.5,16.5v-15.9c0-1.6-1.3-2.8-2.9-2.8c-0.4,0-0.7,0.1-1,0.2c-9.9,7.9-21.7,13.1-34.2,15.1v4.8
	c8.7,4.1,14.9,5.4,14.9,25.1v28.2c0,13.4-5.6,20.9-14.9,20.9v6.6h56.1V494.1z"/>
<path fill="#0A5593" d="M679.6,401.8c-11,2.4-20.9,8.2-28.5,16.5v-15.6c0-1.6-1.3-2.8-2.9-2.8c-0.4,0-0.7,0.1-1,0.2
	c-10.1,7.7-22.1,12.6-34.7,14.4v4.8c8.7,4.1,14.9,5.4,14.9,25.1v28.9c0,13.4-5.6,20.9-14.9,20.9v6.6h56.1v-6.7
	c-10.6-0.7-18.7-9.8-18-20.5c0-0.2,0-0.3,0-0.5v-25.5c0-16.1,7.3-27.8,17.8-27.8c6.4-0.9,12.4,3.6,13.3,10c0.1,0.6,0.1,1.2,0.1,1.8
	c7.3-0.4,12.9-6.4,13.1-13.6c1.1-7.7-4.2-14.9-11.9-16C681.9,401.7,680.7,401.7,679.6,401.8z"/>
<path fill="#0A5593" d="M493.4,419v-13.3h-30.7v-38.3h-8.9c0,0-1.3,36.9-31.8,41.4v9.8h16.5v54.9c0.1,16.1,13.2,29.1,29.4,29
	c13.2-0.1,24.7-9,28.1-21.8l-4.8-2.1c-2.4,6.5-8.7,10.7-15.6,10.4c-7.5-0.6-13.2-7.1-12.6-14.6c0-0.1,0-0.1,0-0.2V419H493.4z"/>
<path fill="#0A5593" d="M553.7,505c19.3,1.7,37.4-9.6,44.3-27.6l-4.6-2.1c-6.4,11.1-18.7,17.6-31.5,16.6c-17,0.4-31-13.1-31.4-30
	c0-1.4,0-2.8,0.2-4.2h60.9c5.3,0,9.6-4.2,9.6-9.5c0-0.3,0-0.7,0-1c-3.5-35.3-24.9-46-47.8-46c-27.4-0.5-50.1,21.3-50.6,48.7
	c0,1.5,0,3,0.1,4.5c-2.1,25.9,17.2,48.6,43.1,50.7C548.6,505.2,551.2,505.2,553.7,505z M553.7,413.6c15.8,0,21.5,13.8,21.8,30.4
	h-43.9C533,424.9,540.8,413.6,553.7,413.6z"/>
<path fill="#0A5593" d="M746.8,438.8c-14-3.1-19.8-4.8-20-11.8c0.1-7.3,6.2-13.2,13.5-13.1c1,0,1.9,0.1,2.8,0.4
	c14.4,0.9,10.6,12.9,22.8,14.9c10.2,1.6,22.8-9.3,19.3-27.6H781c0.1,5.8-4.5,10.7-10.3,10.9c-1,0-2.1-0.1-3.1-0.4
	c-6.8-6.2-15.3-10.3-24.3-11.8c-18.7-2.3-35.8,10.9-38.1,29.6c-0.1,0.4-0.1,0.8-0.1,1.2c0,16.5,9.3,26.2,33.9,32.2
	c13.4,3.1,22.7,5.4,22.7,15.6c-0.7,8.8-8.4,15.4-17.2,14.7c-1-0.1-2-0.2-2.9-0.5c-13.4-1.8-23.5-6.8-32.2-27.5h-5.3l4.8,37.4h4.2
	c0,0,3.8-8.2,7.9-5.6c6.1,4.2,13.1,6.7,20.5,7.4c25.2,1.4,43.5-11.8,44.2-34.5C786.2,452.5,770.2,443.8,746.8,438.8z"/>
<path fill="#0A5593" d="M1008.7,387.6c0.3,0.6,1,0.8,1.6,0.5c0.2-0.1,0.4-0.3,0.6-0.5c8.1-11.8,16.2-10.2,22.9-14.4
	c5.6-2.5,8.6-8.8,6.9-14.7c-2.3-6.8-9.7-10.4-16.4-8.1c-0.5,0.2-1.1,0.4-1.6,0.7C1011,359.2,1005.4,373.7,1008.7,387.6z"/>
<path fill="#0A5593" d="M1099.1,413.7c14.4,0.9,10.6,12.9,22.8,14.9c10.2,1.6,22.8-9.3,19.3-27.6h-4.2c0.1,5.8-4.5,10.7-10.3,10.9
	c-1,0-2.1-0.1-3.1-0.4c-6.8-6.2-15.3-10.3-24.3-11.8c-18.7-2.3-35.8,10.9-38.1,29.6c-0.1,0.4-0.1,0.8-0.1,1.2
	c0,16.5,9.3,26.2,33.9,32.2c13.4,3.1,22.7,5.4,22.7,15.6c-0.7,8.8-8.4,15.4-17.2,14.7c-1-0.1-2-0.2-2.9-0.5
	c-13.4-1.8-23.5-6.8-32.2-27.5h-5.6l4.8,37.4h4.2c0,0,3.8-8.2,7.9-5.6c6.1,4.2,13.1,6.7,20.5,7.4c25.2,1.4,43.5-11.8,44.2-34.5
	c0.6-18-15.3-26.7-38.7-31.8c-14-3.1-19.8-4.8-20-11.8c0.2-7.3,6.2-13.2,13.6-13C1097.1,413.3,1098.1,413.5,1099.1,413.7z"/>
<path fill="#0A5593" d="M1036,473.2v-70.6c0-1.6-1.3-2.8-2.9-2.8c-0.4,0-0.7,0.1-1,0.2c-10,7.9-21.9,13.1-34.5,15.1v4.8
	c8.7,4.1,14.9,5.4,14.9,25.1v28.2c0,13.4-5.4,20.9-14.9,20.9v6.6h53.4v-6.7C1041.8,494.1,1036,486.5,1036,473.2z"/>
<path fill="#0A5593" d="M1004.6,306.8c-7.1,1.5-14.4,2.1-21.6,2H868.6v7.4c11.7,0.3,20.9,10,20.6,21.7c0,0.6-0.1,1.2-0.1,1.8v133.5
	c0,12.8-6.1,20.2-14.9,20.2v6.6h60.6v-6c-8.8,0-14.7-7.4-14.9-20.2V421h30.5c7.8-1,14.9,4.5,15.9,12.3c0.3,2.2,0,4.5-0.7,6.6h6.6
	l11.8-45.9h-6.6c-3.5,8.2-11.6,13.3-20.5,13.1h-37.5v-81.8h47.1c20,0,22,20.9,19.6,29.8h8.7l11.8-45.6c0.4-1-0.1-2.2-1.2-2.6
	C1005,306.8,1004.8,306.8,1004.6,306.8z"/>
<path fill="#0A5593" d="M1260.6,492.2c-7.6-2.7-12.1-10.6-10.5-18.5v-41.8c0.9-16.5-11.8-30.7-28.4-31.5c-1-0.1-2-0.1-3,0
	c-10.9-0.1-21.6,3.3-30.5,9.6V296.8c0-1.6-1.3-2.8-2.9-2.8c-0.4,0-0.7,0.1-1,0.2c-10,7.9-21.9,13-34.5,15.1v4.8
	c8.7,4.1,14.9,5.4,14.9,25.1v134.1c0,13.4-5.4,20.9-14.9,20.9v6.6h53.4v-6.7c-9.2,0-14.9-7.5-14.9-20.9v-49.4
	c5.8-5.1,13.1-8.1,20.8-8.4c9.2,0,16.6,7.4,16.6,16.6c0,0,0,0,0,0v43.8c0.1,16.1,13.1,29.2,29.2,29.3c11.8,0,25.1-5.8,25.1-28.2
	l-4.1-1.8C1273.4,491.1,1266.5,493.2,1260.6,492.2z"/>
</svg>
