<svg id="Layer_1" data-name="Layer 1" xmlns="http://www.w3.org/2000/svg" viewBox="0 0 108.81 18.13"><defs><style>.cls-1{fill:#fff;}</style></defs><title>df-logo-straight-white</title><path class="cls-1" d="M5193.72,45.79c-3.56-.16-3.43.43-7.78,0.43v0.56c0.73,0.42,1.25.63,1.27,1.72V60c0,1.09-.53,1.3-1.27,1.72v0.56c4.93,0,4.89.63,8.27,0.48,4.17-.18,7.67-3.89,7.67-8.69A8.48,8.48,0,0,0,5193.72,45.79Zm-0.25,15.74c-2.94,0-3.64-1-3.64-2.42V48.45c0-1.35,1.64-1.37,2.43-1.37,4.54,0,6.66,3,6.66,7S5197.5,61.53,5193.47,61.53Z" transform="translate(-5185.93 -44.71)"/><path class="cls-1" d="M5212.38,52.76c0.69-1,1.38-.87,1.95-1.22a1.06,1.06,0,0,0,.59-1.25,1.1,1.1,0,0,0-1.54-.63,2.94,2.94,0,0,0-1.18,3.05A0.1,0.1,0,0,0,5212.38,52.76Z" transform="translate(-5185.93 -44.71)"/><path class="cls-1" d="M5215.8,61.77c-0.78,0-1.27-.64-1.27-1.78V54a0.24,0.24,0,0,0-.33-0.22,6.38,6.38,0,0,1-2.93,1.28v0.41c0.74,0.35,1.27.46,1.27,2.13V60c0,1.14-.46,1.78-1.27,1.78v0.56h4.54V61.77Z" transform="translate(-5185.93 -44.71)"/><path class="cls-1" d="M5218.15,59.86c0,1.14-.46,1.78-1.27,1.78V62.2h4.62V61.64c-0.76,0-1.27-.64-1.27-1.78,0,0,0-9.52,0-10.93,0-1.83.51-2.48,1.32-2.56,1-.1,1.32,1,1.42,1.62,0.15,1,.41,1.77,1.39,2a1.52,1.52,0,0,0,1.91-1.82,0.1,0.1,0,0,0-.18,0,0.85,0.85,0,0,1-.88.53c-0.58-.1-0.56-0.78-0.78-1.4a2.64,2.64,0,0,0-2.79-2c-1.94,0-3.49,1.33-3.49,4.25v4.32a4,4,0,0,1-2.05.83v0.66h2v4.47Z" transform="translate(-5185.93 -44.71)"/><path class="cls-1" d="M5208,61.77a1.64,1.64,0,0,1-1.53-1.78V57.82c0-1.37.62-2.36,1.51-2.36a1,1,0,0,1,1.14,1,1.18,1.18,0,0,0,1.06-1.15,1.2,1.2,0,0,0-1.29-1.36,4.6,4.6,0,0,0-2.42,1.4V54a0.24,0.24,0,0,0-.33-0.22,6.26,6.26,0,0,1-2.91,1.28v0.41c0.74,0.35,1.27.46,1.27,2.13V60c0,1.14-.48,1.78-1.27,1.78v0.56H5208V61.77Z" transform="translate(-5185.93 -44.71)"/><path class="cls-1" d="M5243.7,53.93a4.6,4.6,0,0,0-2.42,1.4V54a0.24,0.24,0,0,0-.33-0.22A6.26,6.26,0,0,1,5238,55v0.41c0.74,0.35,1.27.46,1.27,2.13V60c0,1.14-.48,1.78-1.27,1.78v0.56h4.77V61.77a1.64,1.64,0,0,1-1.53-1.78V57.82c0-1.37.62-2.36,1.51-2.36a1,1,0,0,1,1.14,1A1.18,1.18,0,0,0,5245,55.3,1.2,1.2,0,0,0,5243.7,53.93Z" transform="translate(-5185.93 -44.71)"/><path class="cls-1" d="M5227.87,55.39V54.26h-2.61V51h-0.76s-0.11,3.14-2.7,3.52v0.83h1.4v4.67a2.48,2.48,0,0,0,4.88.61l-0.41-.18a1.35,1.35,0,0,1-1.33.88,1.16,1.16,0,0,1-1.07-1.26V55.39h2.6Z" transform="translate(-5185.93 -44.71)"/><path class="cls-1" d="M5233,62.7a3.7,3.7,0,0,0,3.77-2.35l-0.39-.18a2.84,2.84,0,0,1-2.68,1.41,2.61,2.61,0,0,1-2.65-2.91h5.18a0.81,0.81,0,0,0,.81-0.89c-0.3-3-2.12-3.91-4.06-3.91a4.22,4.22,0,0,0-4.29,4.52A4,4,0,0,0,5233,62.7Zm0-7.77c1.34,0,1.83,1.17,1.85,2.58h-3.73C5231.24,55.89,5231.9,54.93,5233,54.93Z" transform="translate(-5185.93 -44.71)"/><path class="cls-1" d="M5249.41,57.07c-1.19-.26-1.68-0.41-1.7-1a1.13,1.13,0,0,1,1.39-1.08c1.22,0.08.9,1.1,1.94,1.27,0.87,0.14,1.94-.79,1.64-2.35h-0.36a0.9,0.9,0,0,1-1.14.89,4,4,0,0,0-2.07-1,2.9,2.9,0,0,0-3.25,2.62c0,1.4.79,2.23,2.88,2.74,1.14,0.26,1.93.46,1.93,1.33a1.36,1.36,0,0,1-1.71,1.21c-1.14-.15-2-0.58-2.74-2.34h-0.45l0.41,3.18h0.36s0.32-.7.67-0.48a3.72,3.72,0,0,0,1.74.63c2.14,0.12,3.7-1,3.76-2.93C5252.76,58.24,5251.4,57.5,5249.41,57.07Z" transform="translate(-5185.93 -44.71)"/><path class="cls-1" d="M5271.68,52.72a0.1,0.1,0,0,0,.18,0c0.69-1,1.38-.87,1.95-1.22a1.06,1.06,0,0,0,.59-1.25,1.1,1.1,0,0,0-1.53-.63A2.94,2.94,0,0,0,5271.68,52.72Z" transform="translate(-5185.93 -44.71)"/><path class="cls-1" d="M5279.36,54.94c1.22,0.08.9,1.1,1.94,1.27,0.87,0.14,1.94-.79,1.64-2.35h-0.36a0.9,0.9,0,0,1-1.14.89,4,4,0,0,0-2.07-1,2.9,2.9,0,0,0-3.25,2.62c0,1.4.79,2.23,2.88,2.74,1.14,0.26,1.93.46,1.93,1.33a1.36,1.36,0,0,1-1.71,1.21c-1.14-.15-2-0.58-2.74-2.34H5276l0.41,3.18h0.36s0.32-.7.67-0.48a3.72,3.72,0,0,0,1.74.63c2.14,0.12,3.7-1,3.76-2.93,0.05-1.53-1.3-2.27-3.29-2.7-1.19-.26-1.68-0.41-1.7-1A1.13,1.13,0,0,1,5279.36,54.94Z" transform="translate(-5185.93 -44.71)"/><path class="cls-1" d="M5274,60V54a0.24,0.24,0,0,0-.33-0.22,6.35,6.35,0,0,1-2.93,1.28v0.41c0.74,0.35,1.27.46,1.27,2.13V60c0,1.14-.46,1.78-1.27,1.78v0.56h4.54V61.77C5274.49,61.77,5274,61.13,5274,60Z" transform="translate(-5185.93 -44.71)"/><path class="cls-1" d="M5271.33,45.85a8.29,8.29,0,0,1-1.84.17h-9.72v0.63a1.8,1.8,0,0,1,1.74,2V60c0,1.09-.52,1.72-1.27,1.72v0.56h5.15V61.77c-0.75,0-1.25-.63-1.27-1.72V55.56h2.59a1.21,1.21,0,0,1,1.29,1.61h0.56l1-3.9H5269a1.83,1.83,0,0,1-1.74,1.11h-3.19V47.43h4c1.7,0,1.87,1.78,1.67,2.53h0.74l1-3.88A0.17,0.17,0,0,0,5271.33,45.85Z" transform="translate(-5185.93 -44.71)"/><path class="cls-1" d="M5293.09,61.61a1.37,1.37,0,0,1-.89-1.57V56.49a2.55,2.55,0,0,0-2.67-2.68,4.34,4.34,0,0,0-2.59.82V45a0.24,0.24,0,0,0-.33-0.22,6.38,6.38,0,0,1-2.93,1.28v0.41c0.74,0.35,1.27.46,1.27,2.13V60c0,1.14-.46,1.78-1.27,1.78v0.56h4.54V61.77c-0.78,0-1.27-.64-1.27-1.78V55.79a2.82,2.82,0,0,1,1.77-.71,1.41,1.41,0,0,1,1.41,1.41v3.72a2.5,2.5,0,0,0,2.48,2.49c1,0,2.13-.49,2.13-2.4l-0.35-.15C5294.18,61.52,5293.59,61.7,5293.09,61.61Z" transform="translate(-5185.93 -44.71)"/></svg>