<?xml version="1.0" encoding="utf-8"?>
<!-- Generator: Adobe Illustrator 18.1.1, SVG Export Plug-In . SVG Version: 6.00 Build 0)  -->
<svg version="1.1" id="Layer_1" xmlns="http://www.w3.org/2000/svg" xmlns:xlink="http://www.w3.org/1999/xlink" x="0px" y="0px"
	 viewBox="0 0 182 102" enable-background="new 0 0 182 102" xml:space="preserve">
<g>
	<g>
		<g>
			<path fill="#FFFFFF" d="M72.9,21.8c1.9-2.6,3.8-2.4,5.3-3.3c1.4-0.9,2-2.1,1.6-3.4c-0.5-1.7-2.6-2.5-4.2-1.7
				c-2.6,1.3-3.8,5.1-3.2,8.3C72.5,21.9,72.8,22,72.9,21.8z"/>
			<path fill="#FFFFFF" d="M82.3,46.4c-2.1,0-3.5-1.7-3.5-4.9V25.1c0-0.5-0.5-0.8-0.9-0.6c0,0-4.4,3.5-7.9,3.5v1.1
				c2,0.9,3.5,1.3,3.5,5.8v6.7c0,3.1-1.3,4.9-3.5,4.9V48h12.3V46.4z"/>
			<path fill="#FFFFFF" d="M88.7,41.6c0,3.1-1.2,4.9-3.5,4.9V48h12.6v-1.5c-2.1,0-3.5-1.7-3.5-4.9c0,0,0-27.9,0-31.8
				c0-5,1.4-6.8,3.6-7c2.7-0.3,3.6,2.6,3.9,4.4c0.4,2.7,1.1,4.8,3.8,5.5c2.8,0.7,6.1-1.4,5.2-5c-0.1-0.2-0.4-0.3-0.5-0.1
				c-0.4,0.7-1.1,1.7-2.4,1.4c-1.6-0.3-1.5-2.1-2.1-3.8c-1.4-3.8-3.8-5.4-7.6-5.4c-5.3,0-9.5,3.6-9.5,11.6c0,2.5,0,13.4,0,13.4
				s-2.8,2.3-5.6,2.3V29h5.6V41.6z"/>
			<path fill="#FFFFFF" d="M61,46.4c-2,0-4.2-1.7-4.2-4.9l0-5.9c0-3.7,1.7-6.5,4.1-6.5c1.7,0,3.2,1.1,3.1,2.7
				c1.5-0.2,2.8-1.3,2.9-3.2c0.1-2.6-1.6-3.7-3.5-3.7c-1.9,0-5.2,2.3-6.6,3.8v-3.8c0-0.5-0.5-0.8-0.9-0.6c0,0-4.5,3.5-7.9,3.5v1.1
				c2,0.9,3.5,1.3,3.5,5.8v6.7c0,3.1-1.3,4.9-3.5,4.9V48h13V46.4z"/>
			<path fill="#FFFFFF" d="M158.5,25c-1.9,0-5.2,2.3-6.6,3.8v-3.8c0-0.5-0.5-0.8-0.9-0.6c0,0-4.5,3.5-7.9,3.5v1.1
				c2,0.9,3.5,1.3,3.5,5.8v6.7c0,3.1-1.3,4.9-3.5,4.9V48h13v-1.5c-2,0-4.2-1.7-4.2-4.9l0-5.9c0-3.7,1.7-6.5,4.1-6.5
				c1.7,0,3.2,1.1,3.1,2.7c1.5-0.2,2.8-1.3,2.9-3.2C162.2,26.2,160.5,25,158.5,25z"/>
			<path fill="#FFFFFF" d="M115.3,29v-3.1h-7.1v-9.8h-2.1c0,0-0.3,9.5-7.4,10.6V29h3.8l0,12.8c0,3.5,2.7,6.6,6.2,6.9
				c3,0.2,6.3-1.7,7.1-5.2l-1.1-0.5c0,0-0.9,2.6-3.6,2.4c-2-0.2-2.9-1.7-2.9-3.5V29H115.3z"/>
			<path fill="#FFFFFF" d="M129.3,49c5.2,0,8.8-2.3,10.3-6.4l-1.1-0.5c-1.6,2.8-4.1,3.9-7.3,3.9c-4.5,0-7.3-3.3-7.2-7.9l14.2,0
				c1.3,0,2.3-1.1,2.2-2.4c-0.8-8.1-5.8-10.7-11.1-10.7c-6.7,0-11.7,4.9-11.7,12.3C117.6,44.8,122.5,49,129.3,49z M129.2,27.7
				c3.7,0,5,3.2,5.1,7h-10.2C124.5,30.4,126.3,27.7,129.2,27.7z"/>
			<path fill="#FFFFFF" d="M173.7,33.6c-3.1-0.7-4.4-1.1-4.4-2.9c0-1.4,0.9-3.1,3.6-2.9c3.2,0.2,2.3,3,5,3.5c2.3,0.4,5-2.2,4.3-6.4
				l-0.9,0c-0.1,1.6-1.4,3.1-2.9,2.4c-1.3-0.6-2.1-2.4-5.4-2.6c-3.8-0.3-8.3,2.2-8.4,7.2c-0.1,3.8,2.1,6.1,7.5,7.5
				c2.9,0.7,5,1.3,5,3.6c0,2.3-2,3.7-4.5,3.3c-3-0.4-5.2-1.6-7.1-6.4h-1.2l1.1,8.7h0.9c0,0,0.8-1.9,1.7-1.3c1.1,0.8,2.8,1.6,4.5,1.7
				c5.6,0.3,9.6-2.8,9.8-8C182.3,36.8,178.8,34.8,173.7,33.6z"/>
		</g>
		<g>
			<path fill="#FFFFFF" d="M21.9,2.8c-9.7-0.4-9.4,1.2-21.3,1.2v1.5c2,1.2,3.4,1.7,3.5,4.7v31.6c0,3-1.5,3.6-3.5,4.7V48
				c13.5,0,13.4,1.7,22.6,1.3c11.4-0.5,20.9-10.6,20.9-23.7C44.2,12.4,33.2,3.3,21.9,2.8z M21.2,45.8c-8,0-9.9-2.7-9.9-6.6
				c0,0,0-27,0-29.1c0-3.7,4.5-3.7,6.7-3.7c12.4,0,18.2,8.1,18.2,19.3C36.1,36.5,32.2,45.8,21.2,45.8z"/>
		</g>
	</g>
	<g>
		<path fill="#FFFFFF" d="M78.7,74.1c0,0.2,0.3,0.3,0.5,0.1c1.9-2.6,3.8-2.4,5.3-3.3c1.4-0.9,2-2.1,1.6-3.4
			c-0.5-1.7-2.6-2.5-4.2-1.7C79.3,67.1,78.1,70.9,78.7,74.1z"/>
		<path fill="#FFFFFF" d="M99.7,80.2c3.2,0.2,2.3,3,5,3.5c2.3,0.4,5-2.2,4.3-6.4l-0.9,0c-0.1,1.6-1.4,3.1-2.9,2.4
			c-1.3-0.6-2.1-2.4-5.4-2.6c-3.8-0.3-8.3,2.2-8.4,7.2c-0.1,3.8,2.1,6.1,7.5,7.5c2.9,0.7,5,1.3,5,3.6c0,2.3-2,3.7-4.5,3.3
			c-3-0.4-5.2-1.6-7.1-6.4H91l1.1,8.7H93c0,0,0.8-1.9,1.7-1.3c1.1,0.8,2.8,1.6,4.5,1.7c5.6,0.3,9.6-2.8,9.8-8
			c0.1-4.2-3.4-6.2-8.5-7.4c-3.1-0.7-4.4-1.1-4.4-2.9C96,81.8,97,80,99.7,80.2z"/>
		<path fill="#FFFFFF" d="M85,93.9V77.5c0-0.5-0.5-0.8-0.9-0.6c0,0-4.4,3.5-7.9,3.5v1.1c2,0.9,3.5,1.3,3.5,5.8v6.7
			c0,3.1-1.3,4.9-3.5,4.9v1.5h12.3v-1.5C86.4,98.8,85,97.1,85,93.9z"/>
		<path fill="#FFFFFF" d="M78.3,55.3c-0.9,0.2-2.5,0.5-5,0.5c-6.6,0-26.6,0-26.6,0v1.7c2,0,4.7,1.4,4.7,5.6v31c0,3-1.4,4.7-3.5,4.7
			v1.5H62v-1.5c-2,0-3.4-1.7-3.5-4.7V81.9l7.1,0c3.2,0,4.1,2.3,3.5,4.4h1.5l2.9-10.7H72c-0.4,1.5-2.4,3-4.8,3h-8.7v-19l10.9,0
			c4.7,0,5.1,4.9,4.6,6.9h2l2.8-10.6C78.9,55.6,78.6,55.2,78.3,55.3z"/>
		<path fill="#FFFFFF" d="M137.2,98.4c-1.7-0.3-2.4-2-2.4-4.3l0-9.7c0-4.2-2.9-7.3-7.3-7.3c-3.2,0-5.4,1.1-7.1,2.2V52.9
			c0-0.5-0.5-0.8-0.9-0.6c0,0-4.6,3.5-8,3.5v1.1c2,0.9,3.5,1.3,3.5,5.8v31.3c0,3.1-1.3,4.9-3.5,4.9v1.5h12.4v-1.5
			c-2.1,0-3.5-1.7-3.5-4.9V82.5c1.3-1.1,3-1.9,4.8-1.9c2.1,0,3.9,1.7,3.9,3.8v10.7c0,3.7,2.5,6.3,6.2,6.3c2.8,0,6.4-1.3,6.4-6.5
			l-1-0.4C140.2,98.1,138.6,98.6,137.2,98.4z"/>
	</g>
</g>
</svg>
