<svg id="Layer_1" data-name="Layer 1" xmlns="http://www.w3.org/2000/svg" viewBox="0 0 20.93 30.82"><defs><style>.cls-1{fill:#005395;}</style></defs><title>df-logo-small</title><path class="cls-1" d="M3626.69,4937.52H3621v-2.29a10.12,10.12,0,0,1-2.82.22v8.64c0,1.17-.56,1.86-1.37,1.86v0.61h5.55v-0.61c-0.81,0-1.35-.68-1.37-1.86V4939h5a1.3,1.3,0,0,1,1.39,1.73H3628l1.16-4.43h-0.61A2,2,0,0,1,3626.69,4937.52Z" transform="translate(-3610.65 -4915.73)"/><path class="cls-1" d="M3631.35,4927.7a8.9,8.9,0,0,1-2,.19h-2a8.64,8.64,0,0,0,.5-3.14,9.14,9.14,0,0,0-8.79-9c-3.84-.17-3.73.46-8.42,0.46v0.61c0.79,0.46,1.35.68,1.37,1.86v12.45c0,1.17-.58,1.4-1.37,1.86v0.61c5.31,0,4.89.68,8.53,0.52a10,10,0,0,0,6.7-3.41h-2.72a6.45,6.45,0,0,1-2.16,1.55l0.09-2.86h6.8c1.84,0,2,1.91,1.8,2.72h0.8l1.1-4.19A0.19,0.19,0,0,0,3631.35,4927.7Zm-7,.19h-7.83v0.68c0.78,0,1.73.57,1.73,2.19l-0.09,2c-3,0-3.34-1.08-3.34-2.6v-11.49c0-1.45,1.79-1.47,2.65-1.47,4.9,0,7.18,3.21,7.18,7.6A11.73,11.73,0,0,1,3624.38,4927.89Z" transform="translate(-3610.65 -4915.73)"/></svg>