<?xml version="1.0" encoding="utf-8"?>
<!-- Generator: Adobe Illustrator 18.1.1, SVG Export Plug-In . SVG Version: 6.00 Build 0)  -->
<svg version="1.1" id="Layer_1" xmlns="http://www.w3.org/2000/svg" xmlns:xlink="http://www.w3.org/1999/xlink" x="0px" y="0px"
	 viewBox="0 0 182 102" enable-background="new 0 0 182 102" xml:space="preserve">
<g>
	<g>
		<g>
			<path fill="#004EA8" d="M72.5,22.2c1.9-2.6,3.8-2.4,5.3-3.3c1.4-0.9,2-2.1,1.6-3.4c-0.5-1.7-2.6-2.5-4.2-1.7
				c-2.6,1.3-3.8,5.1-3.2,8.3C72,22.3,72.4,22.4,72.5,22.2z"/>
			<path fill="#004EA8" d="M81.8,46.8c-2.1,0-3.5-1.7-3.5-4.9V25.4c0-0.5-0.5-0.8-0.9-0.6c0,0-4.4,3.5-7.9,3.5v1.1
				c2,0.9,3.5,1.3,3.5,5.8v6.7c0,3.1-1.3,4.9-3.5,4.9v1.5h12.3V46.8z"/>
			<path fill="#004EA8" d="M88.2,41.9c0,3.1-1.2,4.9-3.5,4.9v1.5h12.6v-1.5c-2.1,0-3.5-1.7-3.5-4.9c0,0,0-27.9,0-31.8
				c0-5,1.4-6.8,3.6-7c2.7-0.3,3.6,2.6,3.9,4.4c0.4,2.7,1.1,4.8,3.8,5.5c2.8,0.7,6.1-1.4,5.2-5c-0.1-0.2-0.4-0.3-0.5-0.1
				c-0.4,0.7-1.1,1.7-2.4,1.4c-1.6-0.3-1.5-2.1-2.1-3.8c-1.4-3.8-3.8-5.4-7.6-5.4c-5.3,0-9.5,3.6-9.5,11.6c0,2.5,0,13.4,0,13.4
				s-2.8,2.3-5.6,2.3v1.8h5.6V41.9z"/>
			<path fill="#004EA8" d="M60.6,46.8c-2,0-4.2-1.7-4.2-4.9l0-5.9c0-3.7,1.7-6.5,4.1-6.5c1.7,0,3.2,1.1,3.1,2.7
				c1.5-0.2,2.8-1.3,2.9-3.2c0.1-2.6-1.6-3.7-3.5-3.7c-1.9,0-5.2,2.3-6.6,3.8v-3.8c0-0.5-0.5-0.8-0.9-0.6c0,0-4.5,3.5-7.9,3.5v1.1
				c2,0.9,3.5,1.3,3.5,5.8v6.7c0,3.1-1.3,4.9-3.5,4.9v1.5h13V46.8z"/>
			<path fill="#004EA8" d="M158.1,25.4c-1.9,0-5.2,2.3-6.6,3.8v-3.8c0-0.5-0.5-0.8-0.9-0.6c0,0-4.5,3.5-7.9,3.5v1.1
				c2,0.9,3.5,1.3,3.5,5.8v6.7c0,3.1-1.3,4.9-3.5,4.9v1.5h13v-1.5c-2,0-4.2-1.7-4.2-4.9l0-5.9c0-3.7,1.7-6.5,4.1-6.5
				c1.7,0,3.2,1.1,3.1,2.7c1.5-0.2,2.8-1.3,2.9-3.2C161.8,26.5,160,25.4,158.1,25.4z"/>
			<path fill="#004EA8" d="M114.8,29.4v-3.1h-7.1v-9.8h-2.1c0,0-0.3,9.5-7.4,10.6v2.3h3.8l0,12.8c0,3.5,2.7,6.6,6.2,6.9
				c3,0.2,6.3-1.7,7.1-5.2l-1.1-0.5c0,0-0.9,2.6-3.6,2.4c-2-0.2-2.9-1.7-2.9-3.5V29.4H114.8z"/>
			<path fill="#004EA8" d="M128.9,49.3c5.2,0,8.8-2.3,10.3-6.4l-1.1-0.5c-1.6,2.8-4.1,3.9-7.3,3.9c-4.5,0-7.3-3.3-7.2-7.9l14.2,0
				c1.3,0,2.3-1.1,2.2-2.4c-0.8-8.1-5.8-10.7-11.1-10.7c-6.7,0-11.7,4.9-11.7,12.3C117.1,45.2,122.1,49.3,128.9,49.3z M128.8,28.1
				c3.7,0,5,3.2,5.1,7h-10.2C124,30.7,125.8,28.1,128.8,28.1z"/>
			<path fill="#004EA8" d="M173.2,33.9c-3.1-0.7-4.4-1.1-4.4-2.9c0-1.4,0.9-3.1,3.6-2.9c3.2,0.2,2.3,3,5,3.5c2.3,0.4,5-2.2,4.3-6.4
				l-0.9,0c-0.1,1.6-1.4,3.1-2.9,2.4c-1.3-0.6-2.1-2.4-5.4-2.6c-3.8-0.3-8.3,2.2-8.4,7.2c-0.1,3.8,2.1,6.1,7.5,7.5
				c2.9,0.7,5,1.3,5,3.6c0,2.3-2,3.7-4.5,3.3c-3-0.4-5.2-1.6-7.1-6.4h-1.2l1.1,8.7h0.9c0,0,0.8-1.9,1.7-1.3c1.1,0.8,2.8,1.6,4.5,1.7
				c5.6,0.3,9.6-2.8,9.8-8C181.9,37.1,178.4,35.1,173.2,33.9z"/>
		</g>
		<g>
			<path fill="#004EA8" d="M21.5,3.1c-9.7-0.4-9.4,1.2-21.3,1.2v1.5c2,1.2,3.4,1.7,3.5,4.7v31.6c0,3-1.5,3.6-3.5,4.7v1.5
				c13.5,0,13.4,1.7,22.6,1.3C34.2,49.2,43.7,39,43.7,25.9C43.7,12.8,32.8,3.6,21.5,3.1z M20.8,46.1c-8,0-9.9-2.7-9.9-6.6
				c0,0,0-27,0-29.1c0-3.7,4.5-3.7,6.7-3.7c12.4,0,18.2,8.1,18.2,19.3C35.7,36.8,31.8,46.1,20.8,46.1z"/>
		</g>
	</g>
	<g>
		<path fill="#004EA8" d="M78.2,74.4c0,0.2,0.3,0.3,0.5,0.1c1.9-2.6,3.8-2.4,5.3-3.3c1.4-0.9,2-2.1,1.6-3.4
			c-0.5-1.7-2.6-2.5-4.2-1.7C78.8,67.4,77.7,71.2,78.2,74.4z"/>
		<path fill="#004EA8" d="M99.2,80.5c3.2,0.2,2.3,3,5,3.5c2.3,0.4,5-2.2,4.3-6.4l-0.9,0c-0.1,1.6-1.4,3.1-2.9,2.4
			c-1.3-0.6-2.1-2.4-5.4-2.6c-3.8-0.3-8.3,2.2-8.4,7.2c-0.1,3.8,2.1,6.1,7.5,7.5c2.9,0.7,5,1.3,5,3.6c0,2.3-2,3.7-4.5,3.3
			c-3-0.4-5.2-1.6-7.1-6.4h-1.2l1.1,8.7h0.9c0,0,0.8-1.9,1.7-1.3c1.1,0.8,2.8,1.6,4.5,1.7c5.6,0.3,9.6-2.8,9.8-8
			c0.1-4.2-3.4-6.2-8.5-7.4c-3.1-0.7-4.4-1.1-4.4-2.9C95.6,82.1,96.6,80.3,99.2,80.5z"/>
		<path fill="#004EA8" d="M84.6,94.3V77.8c0-0.5-0.5-0.8-0.9-0.6c0,0-4.4,3.5-7.9,3.5v1.1c2,0.9,3.5,1.3,3.5,5.8v6.7
			c0,3.1-1.3,4.9-3.5,4.9v1.5H88v-1.5C85.9,99.2,84.6,97.4,84.6,94.3z"/>
		<path fill="#004EA8" d="M77.8,55.7c-0.9,0.2-2.5,0.5-5,0.5c-6.6,0-26.6,0-26.6,0v1.7c2,0,4.7,1.4,4.7,5.6v31c0,3-1.4,4.7-3.5,4.7
			v1.5h14.1v-1.5c-2,0-3.4-1.7-3.5-4.7V82.2l7.1,0c3.2,0,4.1,2.3,3.5,4.4h1.5l2.9-10.7h-1.5c-0.4,1.5-2.4,3-4.8,3h-8.7V60L69,60
			c4.7,0,5.1,4.9,4.6,6.9h2l2.8-10.6C78.5,55.9,78.2,55.6,77.8,55.7z"/>
		<path fill="#004EA8" d="M136.7,98.7c-1.7-0.3-2.4-2-2.4-4.3l0-9.7c0-4.2-2.9-7.3-7.3-7.3c-3.2,0-5.4,1.1-7.1,2.2V53.2
			c0-0.5-0.5-0.8-0.9-0.6c0,0-4.6,3.5-8,3.5v1.1c2,0.9,3.5,1.3,3.5,5.8v31.3c0,3.1-1.3,4.9-3.5,4.9v1.5h12.4v-1.5
			c-2.1,0-3.5-1.7-3.5-4.9V82.8c1.3-1.1,3-1.9,4.8-1.9c2.1,0,3.9,1.7,3.9,3.8v10.7c0,3.7,2.5,6.3,6.2,6.3c2.8,0,6.4-1.3,6.4-6.5
			l-1-0.4C139.7,98.5,138.1,99,136.7,98.7z"/>
	</g>
</g>
</svg>
