<?xml version="1.0" encoding="utf-8"?>
<!-- Generator: Adobe Illustrator 18.1.1, SVG Export Plug-In . SVG Version: 6.00 Build 0)  -->
<svg version="1.1" id="Layer_1" xmlns="http://www.w3.org/2000/svg" xmlns:xlink="http://www.w3.org/1999/xlink" x="0px" y="0px"
	 viewBox="0 0 1280 800" enable-background="new 0 0 1280 800" xml:space="preserve">
<g>
	<g>
		<g>
			<path fill="#0A5593" d="M509.9,197.5c13.4-18.3,26.7-16.9,37.3-23.2c9.8-6.3,14.1-14.8,11.3-23.9c-3.5-12-18.3-17.6-29.5-12
				c-18.3,9.1-26.7,35.9-22.5,58.4C506.4,198.2,509.2,198.9,509.9,197.5z"/>
			<path fill="#0A5593" d="M575.3,370.5c-14.8,0-24.6-12-24.6-34.5V220c0-3.5-3.5-5.6-6.3-4.2c0,0-30.9,24.6-55.6,24.6v7.7
				c14.1,6.3,24.6,9.1,24.6,40.8V336c0,21.8-9.1,34.5-24.6,34.5V381h86.5V370.5z"/>
			<path fill="#0A5593" d="M620.3,336c0,21.8-8.4,34.5-24.6,34.5V381h88.6v-10.5c-14.8,0-24.6-12-24.6-34.5c0,0,0-196.2,0-223.6
				c0-35.2,9.8-47.8,25.3-49.2c19-2.1,25.3,18.3,27.4,30.9c2.8,19,7.7,33.8,26.7,38.7c19.7,4.9,42.9-9.8,36.6-35.2
				c-0.7-1.4-2.8-2.1-3.5-0.7c-2.8,4.9-7.7,12-16.9,9.8c-11.3-2.1-10.5-14.8-14.8-26.7c-9.8-26.7-26.7-38-53.5-38
				c-37.3,0-66.8,25.3-66.8,81.6c0,17.6,0,94.2,0,94.2S600.6,234,580.9,234v12.7h39.4V336z"/>
			<path fill="#0A5593" d="M426.2,370.5c-14.1,0-29.5-12-29.5-34.5v-41.5c0-26,12-45.7,28.8-45.7c12,0,22.5,7.7,21.8,19
				c10.5-1.4,19.7-9.1,20.4-22.5c0.7-18.3-11.3-26-24.6-26s-36.6,16.2-46.4,26.7v-26.7c0-3.5-3.5-5.6-6.3-4.2
				c0,0-31.6,24.6-55.6,24.6v7.7c14.1,6.3,24.6,9.1,24.6,40.8v47.1c0,21.8-9.1,34.5-24.6,34.5v10.5h91.4L426.2,370.5L426.2,370.5z"
				/>
			<path fill="#0A5593" d="M1111.9,220c-13.4,0-36.6,16.2-46.4,26.7V220c0-3.5-3.5-5.6-6.3-4.2c0,0-31.6,24.6-55.6,24.6v7.7
				c14.1,6.3,24.6,9.1,24.6,40.8V336c0,21.8-9.1,34.5-24.6,34.5V381h91.4v-10.5c-14.1,0-29.5-12-29.5-34.5v-41.5
				c0-26,12-45.7,28.8-45.7c12,0,22.5,7.7,21.8,19c10.5-1.4,19.7-9.1,20.4-22.5C1137.9,227.7,1125.3,220,1111.9,220z"/>
			<path fill="#0A5593" d="M807.4,248.1v-21.8h-49.9v-68.9h-14.8c0,0-2.1,66.8-52,74.5v16.2h26.7v90c0,24.6,19,46.4,43.6,48.5
				c21.1,1.4,44.3-12,49.9-36.6l-7.7-3.5c0,0-6.3,18.3-25.3,16.9c-14.1-1.4-20.4-12-20.4-24.6v-90.7H807.4z"/>
			<path fill="#0A5593" d="M906.5,388c36.6,0,61.9-16.2,72.4-45l-7.7-3.5c-11.3,19.7-28.8,27.4-51.3,27.4
				c-31.6,0-51.3-23.2-50.6-55.6h99.9c9.1,0,16.2-7.7,15.5-16.9c-5.6-57-40.8-75.3-78.1-75.3c-47.1,0-82.3,34.5-82.3,86.5
				C823.6,359.2,858.7,388,906.5,388z M905.8,238.9c26,0,35.2,22.5,35.9,49.2H870C872.1,257.2,884.7,238.9,905.8,238.9z"/>
			<path fill="#0A5593" d="M1218.1,279.7c-21.8-4.9-30.9-7.7-30.9-20.4c0-9.8,6.3-21.8,25.3-20.4c22.5,1.4,16.2,21.1,35.2,24.6
				c16.2,2.8,35.2-15.5,30.2-45h-6.3c-0.7,11.3-9.8,21.8-20.4,16.9c-9.1-4.2-14.8-16.9-38-18.3c-26.7-2.1-58.4,15.5-59.1,50.6
				c-0.7,26.7,14.8,42.9,52.7,52.7c20.4,4.9,35.2,9.1,35.2,25.3s-14.1,26-31.6,23.2c-21.1-2.8-36.6-11.3-49.9-45h-8.4l7.7,61.2h6.3
				c0,0,5.6-13.4,12-9.1c7.7,5.6,19.7,11.3,31.6,12c39.4,2.1,67.5-19.7,68.9-56.3C1279.3,302.2,1254.7,288.2,1218.1,279.7z"/>
		</g>
		<g>
			<path fill="#0A5593" d="M151.2,63.1C83,60.3,85.1,71.6,1.4,71.6v10.5c14.1,8.4,23.9,12,24.6,33.1v222.2
				c0,21.1-10.5,25.3-24.6,33.1V381c94.9,0,94.2,12,158.9,9.1c80.2-2.8,147-74.5,147-166.7S230.7,66.6,151.2,63.1z M146.3,365.5
				c-56.3,0-69.6-19-69.6-46.4c0,0,0-189.9,0-204.7c0-26,31.6-26,47.1-26c87.2,0,128,57,128,135.7
				C251.1,300.1,223.6,365.5,146.3,365.5z"/>
		</g>
	</g>
	<g>
		<path fill="#0A5593" d="M550,564.6c0,1.4,2.1,2.1,3.5,0.7c13.4-18.3,26.7-16.9,37.3-23.2c9.8-6.3,14.1-14.8,11.3-23.9
			c-3.5-12-18.3-17.6-29.5-12C554.2,515.3,546.5,542.1,550,564.6z"/>
		<path fill="#0A5593" d="M697.7,607.5c22.5,1.4,16.2,21.1,35.2,24.6c16.2,2.8,35.2-15.5,30.2-45h-6.3c-0.7,11.3-9.8,21.8-20.4,16.9
			c-9.1-4.2-14.8-16.9-38-18.3c-26.7-2.1-58.4,15.5-59.1,50.6c-0.7,26.7,14.8,42.9,52.7,52.7c20.4,4.9,35.2,9.1,35.2,25.3
			c0,16.2-14.1,26-31.6,23.2c-21.1-2.8-36.6-11.3-49.9-45h-8.4l7.7,61.2h6.3c0,0,5.6-13.4,12-9.1c7.7,5.6,19.7,11.3,31.6,12
			c39.4,2.1,67.5-19.7,68.9-56.3c0.7-29.5-23.9-43.6-59.8-52c-21.8-4.9-30.9-7.7-30.9-20.4C672.4,618.7,679.4,606.1,697.7,607.5z"/>
		<path fill="#0A5593" d="M595,704.5v-116c0-3.5-3.5-5.6-6.3-4.2c0,0-30.9,24.6-55.6,24.6v7.7c14.1,6.3,24.6,9.1,24.6,40.8v47.1
			c0,21.8-9.1,34.5-24.6,34.5v10.5h85.8V739C604.1,739,595,726.3,595,704.5z"/>
		<path fill="#0A5593" d="M547.2,433.1c-6.3,1.4-17.6,3.5-35.2,3.5c-46.4,0-187.1,0-187.1,0v12c14.1,0,33.1,9.8,33.1,39.4v218
			c0,21.1-9.8,33.1-24.6,33.1v10.5h99.2V739c-14.1,0-23.9-12-24.6-33.1v-86.5h49.9c22.5,0,28.8,16.2,24.6,30.9H493l20.4-75.3h-10.5
			c-2.8,10.5-16.9,21.1-33.8,21.1h-61.2V463.3h77.4c33.1,0,35.9,34.5,32.4,48.5h14.1l19.7-74.5C552.1,434.5,550,432.4,547.2,433.1z"
			/>
		<path fill="#0A5593" d="M961.4,735.5c-12-2.1-16.9-14.1-16.9-30.2V637c0-29.5-20.4-51.3-51.3-51.3c-22.5,0-38,7.7-49.9,15.5V415.5
			c0-3.5-3.5-5.6-6.3-4.2c0,0-32.4,24.6-56.3,24.6v7.7c14.1,6.3,24.6,9.1,24.6,40.8v220.1c0,21.8-9.1,34.5-24.6,34.5v10.5h87.2V739
			c-14.8,0-24.6-12-24.6-34.5v-80.9c9.1-7.7,21.1-13.4,33.8-13.4c14.8,0,27.4,12,27.4,26.7v75.3c0,26,17.6,44.3,43.6,44.3
			c19.7,0,45-9.1,45-45.7l-7-2.8C982.5,734.1,971.3,737.6,961.4,735.5z"/>
	</g>
</g>
</svg>
