<?xml version="1.0" encoding="utf-8"?>
<!-- Generator: Adobe Illustrator 18.1.1, SVG Export Plug-In . SVG Version: 6.00 Build 0)  -->
<svg version="1.1" id="Layer_1" xmlns="http://www.w3.org/2000/svg" xmlns:xlink="http://www.w3.org/1999/xlink" x="0px" y="0px"
	 viewBox="0 0 550.2 31.9" enable-background="new 0 0 550.2 31.9" xml:space="preserve">
<g>
	<path fill="#FFFFFF" d="M181.7,23.8h-13.4l-3.3,7.6h-4l13.9-31h2.9l14.1,31h-6.9L181.7,23.8z M169.7,20.6h10.6l-5.4-11.8
		L169.7,20.6z"/>
	<path fill="#FFFFFF" d="M212.8,31.4V0.5h12.6c6.4,0,11.7,2.1,11.7,7.6c0,4.5-3.8,7-8.3,7.3v0.1c4.8,0.2,9.6,2.2,9.6,7.5
		c0,6-5.4,8.4-12.2,8.4H212.8z M219.3,13.8h4.7c4,0,6.6-1.3,6.6-5c0-3.6-2.3-4.9-6.5-4.9h-4.7V13.8z M219.3,17.2V28h5.3
		c4.5,0,7.2-1.4,7.2-5.4c0-3.9-2.7-5.5-7.5-5.5H219.3z"/>
	<path fill="#FFFFFF" d="M274.2,0c9.3,0,16.5,6.8,16.5,15.9c0,9.3-7.2,16-16.5,16c-9.2,0-16.4-6.8-16.4-16C257.8,6.8,265,0,274.2,0z
		 M274.2,28.8c6.1,0,9.2-4.7,9.2-12.8c0-8.1-3.1-12.8-9.2-12.8c-6,0-9.1,4.7-9.1,12.8C265.1,24.1,268.2,28.8,274.2,28.8z"/>
	<path fill="#FFFFFF" d="M338.1,0.5v18.8c0,8.3-5.3,12.6-12.9,12.6c-8.4,0-13.6-4.5-13.6-12.6V0.5h6.6v18.4c0,5.7,2.7,9,8,9
		c5.2,0,7.9-3,7.9-9V0.5H338.1z"/>
	<path fill="#FFFFFF" d="M370.7,4h-12V0.5h30.4V4h-12v27.4h-6.5V4z"/>
</g>
</svg>
