<?xml version="1.0" encoding="utf-8"?>
<!-- Generator: Adobe Illustrator 18.1.1, SVG Export Plug-In . SVG Version: 6.00 Build 0)  -->
<svg version="1.1" id="Layer_1" xmlns="http://www.w3.org/2000/svg" xmlns:xlink="http://www.w3.org/1999/xlink" x="0px" y="0px"
	 viewBox="0 0 550.2 31.9" enable-background="new 0 0 550.2 31.9" xml:space="preserve">
<g>
	<path fill="#FFFFFF" d="M127.8,19.9v11.5h-6.5V0.5h12.9c7.4,0,12.6,3.2,12.6,9.6c0,6.5-5.2,9.7-12.6,9.7H127.8z M132.2,16.4
		c5.5,0,7.9-1.9,7.9-6.3c0-4.4-2.4-6.2-7.9-6.2h-4.4v12.5H132.2z"/>
	<path fill="#FFFFFF" d="M174,31.4h-6.5V0.5h14c6.6,0,12.1,2.3,12.1,8.3c0,5.3-4.8,7.6-9.8,7.7v0.1c4.1,0.3,6.2,2,7.5,5.5l1.6,4.1
		c0.7,2.1,1.5,3.3,2.9,5.2h-7.3c-1-1.5-1.6-3-2.1-4.5l-1.8-4.9c-1-2.8-2.3-3.8-5.8-3.8H174V31.4z M174,14.8h5.4
		c4.4,0,7.3-1.6,7.3-5.6c0-3.5-2.7-5.3-7.3-5.3H174V14.8z"/>
	<path fill="#FFFFFF" d="M230.7,0c9.3,0,16.5,6.8,16.5,15.9c0,9.3-7.2,16-16.5,16c-9.2,0-16.4-6.8-16.4-16
		C214.2,6.8,221.5,0,230.7,0z M230.7,28.8c6.1,0,9.2-4.7,9.2-12.8c0-8.1-3.1-12.8-9.2-12.8c-6,0-9.1,4.7-9.1,12.8
		C221.6,24.1,224.7,28.8,230.7,28.8z"/>
	<path fill="#FFFFFF" d="M282.8,0c5.8,0,10.3,2.6,12.6,6.8l-2.9,2.6c-1.8-3.4-4.4-5.8-9-5.8c-6.1,0-10.2,4.4-10.2,12.2
		c0,7.9,4.6,12.3,10.2,12.3c4.5,0,7.3-1.8,9.2-5.4l2.7,1.8c-2.4,4.6-6.9,7.3-12.9,7.3c-8.9,0-16.5-6-16.5-15.7
		C266.1,6.6,273.7,0,282.8,0z"/>
	<path fill="#FFFFFF" d="M316.3,0.5h23.1v3.5h-16.6v9.6h12.1v3.5h-12.1v10.7h17.4v3.5h-23.9V0.5z"/>
	<path fill="#FFFFFF" d="M373,19.3l-4.4-1.2c-5.5-1.5-8.6-3.8-8.6-8.7C360,3.9,365,0,371.9,0c5.6,0,9.8,2.3,12,5.6l-2.5,3
		c-1.9-3.1-5.2-5.1-9.5-5.1c-3.4,0-5.8,1.5-5.8,4.1c0,2.3,1.6,3.3,5.3,4.3l4.5,1.2c5.2,1.4,8.6,3.7,8.6,8.7
		c0,6.1-5.5,10.1-12.5,10.1c-5.9,0-11-2.5-13.4-6.6l2.7-2.7c2.4,3.6,6.4,5.7,10.7,5.7c3.6,0,6.6-1.4,6.6-4.4
		C378.5,21.3,376.5,20.2,373,19.3z"/>
	<path fill="#FFFFFF" d="M417.5,19.3l-4.4-1.2c-5.5-1.5-8.6-3.8-8.6-8.7c0-5.5,4.9-9.4,11.8-9.4c5.6,0,9.8,2.3,12,5.6l-2.5,3
		c-1.9-3.1-5.2-5.1-9.5-5.1c-3.4,0-5.8,1.5-5.8,4.1c0,2.3,1.6,3.3,5.3,4.3l4.5,1.2c5.2,1.4,8.6,3.7,8.6,8.7
		c0,6.1-5.5,10.1-12.5,10.1c-5.9,0-11-2.5-13.4-6.6l2.7-2.7c2.4,3.6,6.4,5.7,10.7,5.7c3.6,0,6.6-1.4,6.6-4.4
		C422.9,21.3,420.9,20.2,417.5,19.3z"/>
</g>
</svg>
