<svg id="Layer_1" data-name="Layer 1" xmlns="http://www.w3.org/2000/svg" viewBox="0 0 550.2 31.9"><defs><style>.cls-1{fill:#fff;}</style></defs><title>df-nav-recipes</title><path class="cls-1" d="M128.42,31.84h-5.9V0.06H136c6.54,0,12,2.32,12,8.58,0,5.54-4.81,7.81-9.54,7.9v0.14c4,0.36,6,2.13,7.27,5.68l1.63,4.5a16.55,16.55,0,0,0,2.77,5H143.5a21.48,21.48,0,0,1-2.09-4.45l-1.86-5.09c-1.09-3.13-2.36-4.27-6-4.27h-5.09v13.8Zm0-16.89h5.81c4.4,0,7.45-1.63,7.45-6,0-4-2.82-5.77-7.45-5.77h-5.81V15Z"/><path class="cls-1" d="M174.92,0.06h22.66V3.28H180.82V13.82h12.31V17H180.82V28.57H198.3v3.27H174.92V0.06Z"/><path class="cls-1" d="M237-.4c5.63,0,10.08,2.45,12.67,7l-2.45,2.59c-2-3.63-4.9-6.22-9.58-6.22-6.27,0-10.54,4.68-10.54,12.9,0,8.4,4.86,12.9,10.49,12.94,4.68,0,7.58-2.13,9.67-5.95l2.41,1.86a13.89,13.89,0,0,1-12.9,7.58c-8.9,0-16.3-6.22-16.3-16.08A16.13,16.13,0,0,1,237-.4Z"/><path class="cls-1" d="M280,31.84h-5.9V0.06H280V31.84Z"/><path class="cls-1" d="M313.53,19.54V31.84h-5.9V0.06H320c7.4,0,12.49,3.22,12.49,9.76s-5.13,9.72-12.49,9.72h-6.45Zm4.77-3.13c5.5,0,8-2,8-6.58s-2.5-6.68-8-6.68h-4.77V16.4h4.77Z"/><path class="cls-1" d="M356.71,0.06h22.66V3.28H362.62V13.82h12.31V17H362.62V28.57H380.1v3.27H356.71V0.06Z"/><path class="cls-1" d="M416.69,18.81l-4.36-1.18c-5.36-1.5-8.54-3.77-8.54-8.72,0-5.45,4.86-9.31,11.58-9.31C420.87-.4,425,2,427.14,5.32l-2.41,2.59a10.65,10.65,0,0,0-9.4-5.18c-3.59,0-6.08,1.73-6.08,4.63,0,2.68,1.68,3.81,5.45,4.81l4.4,1.23c5.22,1.41,8.58,3.81,8.58,8.76,0,6.27-5.45,10.13-12.26,10.13-5.77,0-10.85-2.59-13.21-6.77l2.54-2.36A12.26,12.26,0,0,0,415.42,29c3.86,0,6.86-1.63,6.86-5C422.28,21,420.23,19.81,416.69,18.81Z"/></svg>