<?xml version="1.0" encoding="utf-8"?>
<!-- Generator: Adobe Illustrator 18.1.1, SVG Export Plug-In . SVG Version: 6.00 Build 0)  -->
<svg version="1.1" id="Layer_1" xmlns="http://www.w3.org/2000/svg" xmlns:xlink="http://www.w3.org/1999/xlink" x="0px" y="0px"
	 viewBox="0 0 550.2 31.9" enable-background="new 0 0 550.2 31.9" xml:space="preserve">
<g>
	<path fill="#FFFFFF" d="M16.4,0c9.3,0,16.5,6.8,16.5,15.9c0,9.3-7.2,16-16.5,16C7.2,31.9,0,25.2,0,15.9C0,6.8,7.2,0,16.4,0z
		 M16.4,28.8c6.1,0,9.2-4.7,9.2-12.8c0-8.1-3.1-12.8-9.2-12.8c-6,0-9.1,4.7-9.1,12.8C7.3,24.1,10.5,28.8,16.4,28.8z"/>
	<path fill="#FFFFFF" d="M60.7,31.4h-6.5V0.5h14c6.6,0,12.1,2.3,12.1,8.3c0,5.3-4.8,7.6-9.8,7.7v0.1c4.1,0.3,6.2,2,7.5,5.5l1.6,4.1
		c0.7,2.1,1.5,3.3,2.9,5.2h-7.3c-1-1.5-1.6-3-2.1-4.5l-1.8-4.9c-1-2.8-2.3-3.8-5.8-3.8h-4.7V31.4z M60.7,14.8h5.4
		c4.4,0,7.3-1.6,7.3-5.6c0-3.5-2.7-5.3-7.3-5.3h-5.4V14.8z"/>
	<path fill="#FFFFFF" d="M103.5,31.4V0.5h10.8c10.9,0,18.3,5.4,18.3,15.3c0,10.5-7.6,15.6-17.5,15.6H103.5z M113.9,3.8H110v24.2h4.3
		c6.9,0,11.2-3.4,11.2-12.3C125.6,8,121.3,3.8,113.9,3.8z"/>
	<path fill="#FFFFFF" d="M153.9,0.5H177v3.5h-16.6v9.6h12.1v3.5h-12.1v10.7h17.4v3.5h-23.9V0.5z"/>
	<path fill="#FFFFFF" d="M206.2,31.4h-6.5V0.5h14c6.6,0,12.1,2.3,12.1,8.3c0,5.3-4.8,7.6-9.8,7.7v0.1c4.1,0.3,6.2,2,7.5,5.5l1.6,4.1
		c0.7,2.1,1.5,3.3,2.9,5.2h-7.3c-1-1.5-1.6-3-2.1-4.5l-1.8-4.9c-1-2.8-2.3-3.8-5.8-3.8h-4.7V31.4z M206.2,14.8h5.4
		c4.4,0,7.3-1.6,7.3-5.6c0-3.5-2.7-5.3-7.3-5.3h-5.4V14.8z"/>
	<path fill="#FFFFFF" d="M288.1,19.3l-4.4-1.2c-5.5-1.5-8.6-3.8-8.6-8.7c0-5.5,4.9-9.4,11.8-9.4c5.6,0,9.8,2.3,12,5.6l-2.5,3
		c-1.9-3.1-5.2-5.1-9.5-5.1c-3.4,0-5.8,1.5-5.8,4.1c0,2.3,1.6,3.3,5.3,4.3l4.5,1.2c5.2,1.4,8.6,3.7,8.6,8.7
		c0,6.1-5.5,10.1-12.5,10.1c-5.9,0-11-2.5-13.4-6.6l2.7-2.7c2.4,3.6,6.4,5.7,10.7,5.7c3.6,0,6.6-1.4,6.6-4.4
		C293.5,21.3,291.6,20.2,288.1,19.3z"/>
	<path fill="#FFFFFF" d="M338.4,23.8h-13.4l-3.3,7.6h-4l13.9-31h2.9l14.1,31h-6.9L338.4,23.8z M326.5,20.6H337l-5.4-11.8L326.5,20.6
		z"/>
	<path fill="#FFFFFF" d="M369.5,0.5h6.5v27.4h15.9v3.5h-22.4V0.5z"/>
	<path fill="#FFFFFF" d="M440,0.5h7.6v30.9h-6.4V6.2l-10.7,25.2h-2.3L417.9,6.2v25.2h-4.1V0.5h8.4l8.9,21.3L440,0.5z"/>
	<path fill="#FFFFFF" d="M485.4,0c9.3,0,16.5,6.8,16.5,15.9c0,9.3-7.2,16-16.5,16c-9.2,0-16.4-6.8-16.4-16C469,6.8,476.2,0,485.4,0z
		 M485.4,28.8c6.1,0,9.2-4.7,9.2-12.8c0-8.1-3.1-12.8-9.2-12.8c-6,0-9.1,4.7-9.1,12.8C476.3,24.1,479.4,28.8,485.4,28.8z"/>
	<path fill="#FFFFFF" d="M546.1,0.5h4.1v30.9h-2.5L527.2,7.9v23.5h-4.1V0.5h6.2l16.7,19V0.5z"/>
</g>
</svg>
