<?xml version="1.0" encoding="utf-8"?>
<!-- Generator: Adobe Illustrator 18.1.1, SVG Export Plug-In . SVG Version: 6.00 Build 0)  -->
<svg version="1.1" id="Layer_1" xmlns="http://www.w3.org/2000/svg" xmlns:xlink="http://www.w3.org/1999/xlink" x="0px" y="0px"
	 viewBox="0 0 550.2 31.9" enable-background="new 0 0 550.2 31.9" xml:space="preserve">
<g>
	<path fill="#FFFFFF" d="M131,0c5.8,0,10.3,2.6,12.6,6.8l-2.9,2.6c-1.8-3.4-4.4-5.8-9-5.8c-6.1,0-10.2,4.4-10.2,12.2
		c0,7.9,4.6,12.3,10.2,12.3c4.5,0,7.3-1.8,9.2-5.4l2.7,1.8c-2.4,4.6-6.9,7.3-12.9,7.3c-8.9,0-16.5-6-16.5-15.7
		C114.3,6.6,121.9,0,131,0z"/>
	<path fill="#FFFFFF" d="M178.4,0c9.3,0,16.5,6.8,16.5,15.9c0,9.3-7.2,16-16.5,16c-9.2,0-16.4-6.8-16.4-16
		C161.9,6.8,169.2,0,178.4,0z M178.4,28.8c6.1,0,9.2-4.7,9.2-12.8c0-8.1-3.1-12.8-9.2-12.8c-6,0-9.1,4.7-9.1,12.8
		C169.3,24.1,172.4,28.8,178.4,28.8z"/>
	<path fill="#FFFFFF" d="M239,0.5h4.1v30.9h-2.5L220.2,7.9v23.5h-4.1V0.5h6.2l16.7,19V0.5z"/>
	<path fill="#FFFFFF" d="M276.2,4h-12V0.5h30.4V4h-12v27.4h-6.5V4z"/>
	<path fill="#FFFFFF" d="M330.5,23.8h-13.4l-3.3,7.6h-4l13.9-31h2.9l14.1,31h-6.9L330.5,23.8z M318.6,20.6h10.6l-5.4-11.8
		L318.6,20.6z"/>
	<path fill="#FFFFFF" d="M374.7,0c5.8,0,10.3,2.6,12.6,6.8l-2.9,2.6c-1.8-3.4-4.4-5.8-9-5.8c-6.1,0-10.2,4.4-10.2,12.2
		c0,7.9,4.6,12.3,10.2,12.3c4.5,0,7.3-1.8,9.2-5.4l2.7,1.8c-2.4,4.6-6.9,7.3-12.9,7.3c-8.9,0-16.5-6-16.5-15.7
		C358,6.6,365.6,0,374.7,0z"/>
	<path fill="#FFFFFF" d="M417.4,4h-12V0.5h30.4V4h-12v27.4h-6.5V4z"/>
</g>
</svg>
