<svg id="Layer_1" data-name="Layer 1" xmlns="http://www.w3.org/2000/svg" viewBox="0 0 185.12 234.18"><defs><style>.cls-1{fill:#999;}</style></defs><title>df-seal</title><path class="cls-1" d="M7299.66,333.23l0.48-3.87h0.77l-0.74,5.16h-0.78l-0.57-3.17-0.57,3.17h-0.78l-0.74-5.16h0.77l0.48,3.87,0.52-3.13h0.63Z" transform="translate(-7267.36 -215.14)"/><path class="cls-1" d="M7305.94,333.28H7304l-0.43,1.25h-0.81l1.81-5.16h0.81l1.81,5.16h-0.81Zm-0.25-.73-0.71-2-0.71,2h1.43Z" transform="translate(-7267.36 -215.14)"/><path class="cls-1" d="M7415.1,333.28h-1.93l-0.44,1.25h-0.81l1.81-5.16h0.81l1.81,5.16h-0.81Zm-0.25-.73-0.71-2-0.72,2h1.43Z" transform="translate(-7267.36 -215.14)"/><path class="cls-1" d="M7419.34,334.52h-0.79v-5.16h0.79v2.52l2.14-2.52h1l-1.81,2.12,2,3h-0.93l-1.6-2.42-0.79.93v1.5Z" transform="translate(-7267.36 -215.14)"/><path class="cls-1" d="M7359.9,431.08c-19.88,0-38.56-10.3-52.59-29s-21.72-43.47-21.72-69.86,7.71-51.2,21.72-69.86,32.71-29,52.59-29,38.57,10.3,52.61,29,21.74,43.47,21.74,69.86-7.72,51.19-21.74,69.86S7379.79,431.08,7359.9,431.08Zm0-196.86c-19.61,0-38,10.18-51.91,28.66s-21.55,43.14-21.55,69.35,7.65,50.83,21.55,69.35,32.3,28.66,51.91,28.66,38.05-10.18,51.93-28.66,21.57-43.15,21.57-69.35-7.66-50.83-21.57-69.35S7379.51,234.22,7359.9,234.22Z" transform="translate(-7267.36 -215.14)"/><path class="cls-1" d="M7360.1,449.32c-51.14,0-92.74-52.53-92.74-117.09s41.6-117.09,92.74-117.09a75.55,75.55,0,0,1,36,9.22,94.2,94.2,0,0,1,29.36,25.11c17.4,22.1,27,51.49,27,82.76s-9.58,60.66-27,82.76a94.2,94.2,0,0,1-29.36,25.11A75.55,75.55,0,0,1,7360.1,449.32Zm0-233.33c-50.67,0-91.89,52.14-91.89,116.24s41.22,116.24,91.89,116.24a74.71,74.71,0,0,0,35.64-9.12,93.35,93.35,0,0,0,29.09-24.89c17.29-21.95,26.81-51.15,26.81-82.23s-9.52-60.28-26.81-82.23a93.35,93.35,0,0,0-29.09-24.89A74.71,74.71,0,0,0,7360.1,216Z" transform="translate(-7267.36 -215.14)"/><path class="cls-1" d="M7277.11,366.77l-0.3-1.11,7.28-2,0.3,1.11-3.56,1,4.37,2.06,0.37,1.37-3.68-1.74-3.53,4-0.35-1.31,2.82-3.17-1.61-.76Z" transform="translate(-7267.36 -215.14)"/><path class="cls-1" d="M7282.61,383.57l-0.41-1.07,3.95-4.82-5.05,1.93-0.41-1.07,7-2.69,0.41,1.07-3.95,4.82,5.05-1.93,0.41,1.07Z" transform="translate(-7267.36 -215.14)"/><path class="cls-1" d="M7290.23,388.47a2.7,2.7,0,0,1,2.45,4.8l-2.17,1.1a2.7,2.7,0,0,1-2.45-4.8Zm1.93,3.78a1.55,1.55,0,0,0-1.4-2.76l-2.17,1.1a1.55,1.55,0,0,0,1.4,2.76Z" transform="translate(-7267.36 -215.14)"/><path class="cls-1" d="M7295.92,404.55L7301,402l0.62,0.94-6.88,3.27-0.63-.95,3.4-3.26-4.32,1.86-0.63-.95,5.69-5.06,0.62,0.94-4.33,3.7,4.24-1.89,0.51,0.77Z" transform="translate(-7267.36 -215.14)"/><path class="cls-1" d="M7313.47,423l-1.9,2.16-0.86-.76,1.9-2.16,1.09-5.25,1,0.84-0.82,3.9,3.76-1.32,1,0.84Z" transform="translate(-7267.36 -215.14)"/><path class="cls-1" d="M7322.1,427a2.7,2.7,0,0,1,4.56,2.89l-1.3,2.06a2.7,2.7,0,0,1-4.56-2.89Zm3.58,2.27a1.55,1.55,0,0,0-2.61-1.66l-1.3,2.06a1.55,1.55,0,0,0,2.61,1.66Z" transform="translate(-7267.36 -215.14)"/><path class="cls-1" d="M7338,432.51l1.06,0.44-1.89,4.62a2.7,2.7,0,0,1-5-2l1.89-4.62,1.06,0.44-1.89,4.62a1.55,1.55,0,0,0,2.86,1.17Z" transform="translate(-7267.36 -215.14)"/><path class="cls-1" d="M7346,439.38l-0.63,3.18-1.13-.22,1.47-7.4,2.9,0.57a2.05,2.05,0,0,1,1.85,2.56,2,2,0,0,1-2.06,1.72l1.26,3.61-1.27-.25-1.24-3.55Zm2.38-2.75-1.77-.35-0.4,2,1.77,0.35A1,1,0,1,0,7348.4,436.64Z" transform="translate(-7267.36 -215.14)"/><path class="cls-1" d="M7372.29,438.53l2.48-.52,0.24,1.12-2.48.52,0.67,3.16-1.12.24-1.55-7.38,4.34-.91,0.24,1.12-3.22.68Z" transform="translate(-7267.36 -215.14)"/><path class="cls-1" d="M7384.6,432.6l2,4.85,1.52-.63,0.44,1.05-4.1,1.71-0.44-1.05,1.52-.63-2-4.85-1.52.63-0.44-1.05,4.1-1.71,0.44,1.05Z" transform="translate(-7267.36 -215.14)"/><path class="cls-1" d="M7394.62,432.13l1-.63a1.51,1.51,0,0,0,2.07.23,1.07,1.07,0,0,0,.56-1.49,1.1,1.1,0,0,0-1.48-.35l-1.3.44a2,2,0,0,1-2.44-1,2.14,2.14,0,0,1,.91-3.1,2.37,2.37,0,0,1,3.31.42l-1,.66a1.24,1.24,0,0,0-1.65-.11,1,1,0,0,0-.54,1.52,1,1,0,0,0,1.25.39l1.26-.43a2.1,2.1,0,0,1,2.72.92c0.65,1,.36,2.23-1,3.07A2.54,2.54,0,0,1,7394.62,432.13Z" transform="translate(-7267.36 -215.14)"/><path class="cls-1" d="M7405,418l0.86-.76,5,5.66-0.86.76-2.13-2.43-2.32,2,2.13,2.43-0.86.76-5-5.66,0.86-.76,2.09,2.38,2.32-2Z" transform="translate(-7267.36 -215.14)"/><path class="cls-1" d="M7414.06,413.2l1.66-1.92,0.86,0.75-1.66,1.92,1.58,1.37,2.15-2.49,0.86,0.75-2.9,3.36-5.71-4.93,2.9-3.36,0.86,0.75-2.15,2.49Z" transform="translate(-7267.36 -215.14)"/><path class="cls-1" d="M7422.39,404.35l2.69,1.8-0.64,1-6.26-4.2,1.64-2.45a2.05,2.05,0,0,1,3.07-.72,2,2,0,0,1,.8,2.56l3.81,0.23-0.72,1.07-3.75-.22Zm-1.62-3.26-1,1.5,1.7,1.14,1-1.5A1,1,0,1,0,7420.77,401.09Z" transform="translate(-7267.36 -215.14)"/><path class="cls-1" d="M7426.58,388.74l0.55-1.08,6.71,3.45-0.51,1-4.61-2.37,2.29,2.45-0.41.8-3.32-.44,4.61,2.37-0.51,1-6.71-3.45,0.55-1.08,4.37,0.58Z" transform="translate(-7267.36 -215.14)"/><path class="cls-1" d="M7436.89,379.27l-1,2.63,1.47,1.24-0.42,1.1-6.1-5.16,0.42-1.1,8,0.24-0.42,1.1Zm-1.13,0-3.17-.1,2.42,2Z" transform="translate(-7267.36 -215.14)"/><path class="cls-1" d="M7442.95,365.87l-0.3,1.11-6,1.57,5.22,1.41-0.3,1.11-7.28-2,0.3-1.11,6-1.57-5.22-1.41,0.3-1.11Z" transform="translate(-7267.36 -215.14)"/><path class="cls-1" d="M7298.14,267.08l-6.28-4.18,1.49-2.24a2.52,2.52,0,0,1,3.71-.77l1.85,1.23a2.52,2.52,0,0,1,.72,3.72Zm0.54-2.88a1.48,1.48,0,0,0-.42-2.14l-1.81-1.21a1.48,1.48,0,0,0-2.14.43l-0.86,1.29,4.38,2.91Z" transform="translate(-7267.36 -215.14)"/><path class="cls-1" d="M7303.79,253.89l2.45,2.13-0.75.87-5.69-4.95,1.94-2.23a2.05,2.05,0,0,1,3.14-.33,2,2,0,0,1,.47,2.64l3.76,0.7-0.85,1-3.69-.69Zm-1.2-3.43-1.18,1.36,1.54,1.34,1.18-1.36A1,1,0,1,0,7302.59,250.46Z" transform="translate(-7267.36 -215.14)"/><path class="cls-1" d="M7312.07,241.08l3.44,4,1.24-1.08,0.75,0.86-3.35,2.9-0.75-.86,1.24-1.08-3.44-4-1.24,1.08-0.75-.86,3.35-2.9,0.75,0.86Z" transform="translate(-7267.36 -215.14)"/><path class="cls-1" d="M7322.25,236l2.14-1.35,0.61,1-2.14,1.35,1.72,2.73-1,.61-4-6.38,3.75-2.37,0.61,1-2.78,1.75Z" transform="translate(-7267.36 -215.14)"/><path class="cls-1" d="M7334.23,227.55l2.41,5.92-1.06.43-2.41-5.92-2,.8-0.43-1.06,5-2,0.43,1.06Z" transform="translate(-7267.36 -215.14)"/><path class="cls-1" d="M7345.79,226.12l2.49-.5,0.23,1.12-2.49.5,0.41,2,3.22-.65,0.23,1.12-4.35.88-1.5-7.39,4.35-.88,0.23,1.12-3.22.65Z" transform="translate(-7267.36 -215.14)"/><path class="cls-1" d="M7358.1,225.77l0.07,3.24-1.15,0-0.16-7.54,3-.06a2.05,2.05,0,0,1,2.35,2.11,2,2,0,0,1-1.64,2.12l2,3.25-1.29,0-2-3.2Zm1.74-3.19-1.8,0,0,2,1.8,0A1,1,0,1,0,7359.84,222.58Z" transform="translate(-7267.36 -215.14)"/><path class="cls-1" d="M7369.54,227.31l1.15,0.22a1.51,1.51,0,0,0,1.34,1.59,1.07,1.07,0,0,0,1.43-.7,1.1,1.1,0,0,0-.84-1.27l-1.25-.57a2,2,0,0,1-1.12-2.37,2.14,2.14,0,0,1,2.79-1.63,2.37,2.37,0,0,1,2.12,2.57l-1.2-.23a1.24,1.24,0,0,0-1.12-1.22,1,1,0,0,0-1.43.73,1,1,0,0,0,.64,1.15l1.21,0.55a2.1,2.1,0,0,1,1.35,2.53c-0.23,1.19-1.27,1.87-2.81,1.57A2.54,2.54,0,0,1,7369.54,227.31Z" transform="translate(-7267.36 -215.14)"/><path class="cls-1" d="M7396.34,235.24l2.14,1.35-0.61,1-2.14-1.35-1.73,2.73-1-.61,4-6.37,3.75,2.37-0.61,1-2.78-1.76Z" transform="translate(-7267.36 -215.14)"/><path class="cls-1" d="M7408.93,242.12l-3.46,4,1.24,1.08L7406,248l-3.34-2.92,0.75-.86,1.24,1.08,3.46-4-1.24-1.08,0.75-.86,3.34,2.92-0.75.86Z" transform="translate(-7267.36 -215.14)"/><path class="cls-1" d="M7412.78,251.54l0.77,0.88a1.51,1.51,0,0,0,.08,2.08,1.07,1.07,0,0,0,1.55.33,1.1,1.1,0,0,0,.13-1.52l-0.63-1.22a2,2,0,0,1,.58-2.55,2.14,2.14,0,0,1,3.2.44,2.37,2.37,0,0,1,.08,3.33l-0.8-.93a1.24,1.24,0,0,0-.13-1.65,1,1,0,0,0-1.58-.31,1,1,0,0,0-.2,1.3l0.61,1.18a2.1,2.1,0,0,1-.5,2.82c-0.92.8-2.16,0.69-3.18-.5A2.54,2.54,0,0,1,7412.78,251.54Z" transform="translate(-7267.36 -215.14)"/><path class="cls-1" d="M7427.37,262l0.64,1-6.28,4.18-0.64-1,2.69-1.79-1.71-2.58-2.69,1.79-0.64-1,6.28-4.17,0.64,1-2.64,1.75,1.71,2.58Z" transform="translate(-7267.36 -215.14)"/><path class="cls-1" d="M7352.85,332.72a0.41,0.41,0,0,0-.53.64,51,51,0,0,1,4.59,4.27,0.41,0.41,0,1,0,.6-0.56A51.89,51.89,0,0,0,7352.85,332.72Z" transform="translate(-7267.36 -215.14)"/><path class="cls-1" d="M7351.39,329.48a0.41,0.41,0,0,0-.47.68,63.69,63.69,0,0,1,8.67,7,0.41,0.41,0,1,0,.59-0.58A64.53,64.53,0,0,0,7351.39,329.48Z" transform="translate(-7267.36 -215.14)"/><path class="cls-1" d="M7348.41,302.54a0.41,0.41,0,1,0,.81-0.16l-0.75-3.93a0.41,0.41,0,0,0,0-.1,29.26,29.26,0,0,0-1.9-3.57,0.41,0.41,0,0,0-.19-0.29,11.18,11.18,0,0,0-1.45-1.74l-0.08-.07a7.44,7.44,0,0,0-1.6-1.17,0.41,0.41,0,0,0-.6.3c0,0.1-1.6,10.44.68,19.79a0.41,0.41,0,0,0,.4.32h0.1a0.41,0.41,0,0,0,.3-0.5c-1.93-7.89-1-16.52-.75-18.86a6.93,6.93,0,0,1,.82.65,89.61,89.61,0,0,0,.8,14.12,0.41,0.41,0,0,0,.41.35h0.06a0.41,0.41,0,0,0,.34-0.47,86.68,86.68,0,0,1-.81-13.13,12,12,0,0,1,.75,1,82.58,82.58,0,0,0,1,9.36,0.41,0.41,0,0,0,.41.34h0.07a0.41,0.41,0,0,0,.34-0.48c-0.51-3-.76-5.89-0.88-7.69,0.39,0.72.72,1.43,1,2.07Z" transform="translate(-7267.36 -215.14)"/><path class="cls-1" d="M7331.54,280.94a0.41,0.41,0,0,0-.7.44,7.32,7.32,0,0,0,6.23,3.44h0.13a7.38,7.38,0,0,0,7.24-7.49,0.41,0.41,0,0,0-.41-0.41h0a0.41,0.41,0,0,0-.41.42,6.55,6.55,0,0,1-6.43,6.65h-0.11A6.5,6.5,0,0,1,7331.54,280.94Z" transform="translate(-7267.36 -215.14)"/><path class="cls-1" d="M7330.65,284.29a8.68,8.68,0,0,0,6.51,3,9.35,9.35,0,0,0,3.6-.74,8.89,8.89,0,0,0,5.59-8.77,0.41,0.41,0,0,0-.44-0.39,0.41,0.41,0,0,0-.39.44,8.08,8.08,0,0,1-5.08,8,8,8,0,0,1-9.18-2A0.41,0.41,0,0,0,7330.65,284.29Z" transform="translate(-7267.36 -215.14)"/><path class="cls-1" d="M7338.23,273.15a7.74,7.74,0,0,1-.54-0.83,4.14,4.14,0,0,0-2.66-2.37l-0.23,0h-0.14a1.78,1.78,0,0,0-1.41,1.17,5.11,5.11,0,0,0-.45,1.8,2,2,0,0,0,0,.42,2,2,0,0,0,0,.24l0,2.28a0.41,0.41,0,0,0,.41.41h0a0.41,0.41,0,0,0,.41-0.42v-0.89a2,2,0,0,0,1.12.35h0a2,2,0,0,0,.93-0.25,3.29,3.29,0,0,1-.18.47,1,1,0,0,1-.73.7,0.41,0.41,0,0,0,0,.83h0a1.75,1.75,0,0,0,1.46-1.17,5.49,5.49,0,0,0,.46-2.41s0-.09,0-0.13,0,0,0-.06a2,2,0,0,0,0-.24,6.19,6.19,0,0,0-.13-0.86c0.13,0.2.25,0.4,0.37,0.6a8.28,8.28,0,0,0,.6.93c0.66,0.83,1.6,2,2.93,2a2.45,2.45,0,0,0,.8-0.14,0.41,0.41,0,1,0-.27-0.78C7339.93,275.14,7339.14,274.29,7338.23,273.15Zm-3.52-2.41,0.18,0a1.32,1.32,0,0,1,.59.64,2,2,0,0,0-1.47,0A1.06,1.06,0,0,1,7334.72,270.73Zm0.89,3.34a1.16,1.16,0,0,1-.82.36h0a1.17,1.17,0,0,1-1.15-1c0-.12,0-0.24,0-0.36a1.49,1.49,0,0,0,1,.47c0.56,0.09,1,0,1-.27a1.14,1.14,0,0,0-1-.59,1.4,1.4,0,0,0-.87.08,1.15,1.15,0,0,1,1-.68h0a1.16,1.16,0,0,1,1.16,1.08s0,0.07,0,.1A1.16,1.16,0,0,1,7335.61,274.07Z" transform="translate(-7267.36 -215.14)"/><path class="cls-1" d="M7341.44,274a0.41,0.41,0,0,0,.3-0.7l-0.79-.83a0.41,0.41,0,0,0-.6.57l0.79,0.83A0.41,0.41,0,0,0,7341.44,274Z" transform="translate(-7267.36 -215.14)"/><path class="cls-1" d="M7367,334.84a0.41,0.41,0,1,0,.53-0.64,51,51,0,0,1-4.59-4.27,0.41,0.41,0,1,0-.6.56A51.93,51.93,0,0,0,7367,334.84Z" transform="translate(-7267.36 -215.14)"/><path class="cls-1" d="M7368.46,338.08a0.41,0.41,0,0,0,.47-0.68,63.7,63.7,0,0,1-8.67-7,0.41,0.41,0,0,0-.59.58A64.53,64.53,0,0,0,7368.46,338.08Z" transform="translate(-7267.36 -215.14)"/><path class="cls-1" d="M7371.44,365a0.41,0.41,0,1,0-.81.16l0.75,3.93a0.42,0.42,0,0,0,0,.1,29.26,29.26,0,0,0,1.9,3.57,0.41,0.41,0,0,0,.19.28,11.18,11.18,0,0,0,1.45,1.74l0.08,0.07a7.44,7.44,0,0,0,1.6,1.17,0.41,0.41,0,0,0,.6-0.3c0-.1,1.6-10.44-0.68-19.79a0.41,0.41,0,1,0-.8.2c1.93,7.89,1,16.52.75,18.86a6.93,6.93,0,0,1-.82-0.65,89.5,89.5,0,0,0-.8-14.12,0.41,0.41,0,1,0-.82.13,86.57,86.57,0,0,1,.81,13.13,11.92,11.92,0,0,1-.75-1,82.55,82.55,0,0,0-1-9.36,0.41,0.41,0,0,0-.81.14c0.51,3,.76,5.89.88,7.69-0.39-.72-0.72-1.43-1-2.07Z" transform="translate(-7267.36 -215.14)"/><path class="cls-1" d="M7388.31,386.62a0.41,0.41,0,0,0,.7-0.44,7.37,7.37,0,0,0-13.6,4,0.41,0.41,0,0,0,.41.41h0a0.41,0.41,0,0,0,.41-0.42,6.54,6.54,0,0,1,6.43-6.65h0.11A6.5,6.5,0,0,1,7388.31,386.62Z" transform="translate(-7267.36 -215.14)"/><path class="cls-1" d="M7389.2,383.28a8.74,8.74,0,0,0-10.11-2.23,8.89,8.89,0,0,0-5.59,8.77,0.41,0.41,0,0,0,.41.39h0a0.41,0.41,0,0,0,.4-0.44,8.08,8.08,0,0,1,5.08-8,8,8,0,0,1,9.18,2A0.41,0.41,0,0,0,7389.2,383.28Z" transform="translate(-7267.36 -215.14)"/><path class="cls-1" d="M7381.62,394.42a7.69,7.69,0,0,1,.54.83,4.24,4.24,0,0,0,2.53,2.34,1.25,1.25,0,0,0,.42.07h0a1.75,1.75,0,0,0,1.46-1.17,5.11,5.11,0,0,0,.45-1.8,2,2,0,0,0,0-.42,2,2,0,0,0,0-.24l0-2.28a0.41,0.41,0,1,0-.83,0v0.89a2,2,0,0,0-1.12-.35h0a2,2,0,0,0-.93.25,3.3,3.3,0,0,1,.18-0.47,1,1,0,0,1,.73-0.7,0.41,0.41,0,0,0,0-.83h0a1.75,1.75,0,0,0-1.46,1.17,5.49,5.49,0,0,0-.46,2.41s0,0.08,0,.12,0,0,0,.07a2,2,0,0,0,0,.22,6.18,6.18,0,0,0,.13.87c-0.13-.19-0.25-0.4-0.36-0.6a8.33,8.33,0,0,0-.6-0.93c-0.79-1-2-2.49-3.73-1.88a0.41,0.41,0,1,0,.27.78C7379.92,392.42,7380.71,393.27,7381.62,394.42Zm3.52,2.41-0.18,0a1.28,1.28,0,0,1-.59-0.64,2,2,0,0,0,.72.13h0a2,2,0,0,0,.73-0.15A1.06,1.06,0,0,1,7385.13,396.83Zm-0.89-3.34a1.16,1.16,0,0,1,.82-0.36h0a1.16,1.16,0,0,1,1.15,1c0,0.12,0,.25,0,0.37a1.49,1.49,0,0,0-1-.47c-0.56-.09-1,0-1,0.27a1.14,1.14,0,0,0,1,.59,1.39,1.39,0,0,0,.87-0.08,1.16,1.16,0,0,1-2.22-.4s0-.07,0-0.1A1.16,1.16,0,0,1,7384.24,393.49Z" transform="translate(-7267.36 -215.14)"/><path class="cls-1" d="M7378.12,393.71a0.41,0.41,0,0,0,0,.58l0.79,0.83a0.41,0.41,0,0,0,.6-0.57l-0.79-.83A0.41,0.41,0,0,0,7378.12,393.71Z" transform="translate(-7267.36 -215.14)"/><path class="cls-1" d="M7403.6,325.8a0.41,0.41,0,0,0-.45.37c-0.4,4.45-4.09,12.87-5.6,16.16q-0.1-.94-0.21-1.9c0.42-1,3.34-8.08,3.93-14a0.41,0.41,0,1,0-.82-0.08,52.69,52.69,0,0,1-3.31,12.37q-0.14-1.11-.31-2.22a36.94,36.94,0,0,0,2-10.2,0.41,0.41,0,0,0-.83,0,34.48,34.48,0,0,1-1.47,8.37q-0.22-1.43-.47-2.88a40.93,40.93,0,0,0,.46-5.9,0.41,0.41,0,0,0-.41-0.41h0a0.41,0.41,0,0,0-.41.42c0,0.94,0,2-.13,3.05q-0.28-1.51-.57-3v0c-0.67-3.43-1.39-6.82-2.09-10.06h0c-0.34-1.56-.68-3.08-1-4.55l-0.21-.93a64.69,64.69,0,0,0,1.9-11.25,0.41,0.41,0,1,0-.82,0,58.23,58.23,0,0,1-1.48,9.46l-0.53-2.43a48.49,48.49,0,0,0,.51-9.24,0.41,0.41,0,1,0-.82,0,42.72,42.72,0,0,1-.21,6.71c-0.39-1.89-.73-3.61-1-5.15-0.31-1.81-.56-3.51-0.77-5.09-0.2-1.74,1.25-4.25,3.1-7.42,2.71-4.65,6.41-11,6.92-18.88a0.41,0.41,0,1,0-.82-0.05c-0.49,7.67-4.14,13.94-6.81,18.52a39.84,39.84,0,0,0-2.71,5.16q-0.11-1-.19-1.84c1.43-2.44,7.66-13.47,7.77-20.82a0.41,0.41,0,0,0-.41-0.42h0a0.41,0.41,0,0,0-.41.41c-0.1,6.39-5,15.78-7.08,19.4q-0.07-.87-0.12-1.65c0.73-1.49,5.27-11,5.25-16.82a0.41,0.41,0,0,0-.41-0.41h0a0.41,0.41,0,0,0-.41.41c0,4.66-3.06,11.93-4.52,15.09,0-.3,0-0.6,0-0.87a5.17,5.17,0,0,0-.13-0.94c0.34-.86,3-7.72,2.9-12.53a0.42,0.42,0,0,0-.42-0.41,0.41,0.41,0,0,0-.41.42c0.06,3.81-1.72,9.15-2.51,11.32a5.27,5.27,0,0,0-.62-1,36.17,36.17,0,0,0,1.55-9.76,0.41,0.41,0,0,0-.41-0.41h0a0.41,0.41,0,0,0-.41.42,35.08,35.08,0,0,1-1.38,9.07,5.32,5.32,0,0,0-.66-0.49,67.28,67.28,0,0,0,.69-8.18,0.41,0.41,0,0,0-.41-0.41h0a0.41,0.41,0,0,0-.41.42,65.19,65.19,0,0,1-.64,7.77,5.23,5.23,0,0,0-.82-0.25c0-1.21.14-5.74,0.11-7.4a0.41,0.41,0,1,0-.83,0c0,1.6-.08,5.93-0.11,7.27h-0.41l-0.38,0c-0.08-1.34-.32-5.66-0.35-7.26a0.41,0.41,0,0,0-.42-0.41,0.41,0.41,0,0,0-.41.42c0,1.65.29,6.16,0.36,7.38a5.19,5.19,0,0,0-.81.27,64.94,64.94,0,0,1-.89-7.72,0.41,0.41,0,0,0-.41-0.41h0a0.41,0.41,0,0,0-.41.42,67,67,0,0,0,1,8.13,5.27,5.27,0,0,0-.65.51,35,35,0,0,1-1.67-9,0.42,0.42,0,0,0-.42-0.41,0.41,0.41,0,0,0-.41.42,36.1,36.1,0,0,0,1.86,9.67,5.24,5.24,0,0,0-.59,1c-0.87-2.17-2.8-7.4-2.87-11.19a0.41,0.41,0,1,0-.83,0c0.08,4.72,2.84,11.33,3.3,12.38a5.3,5.3,0,0,0-.1,1.13v0.72c-1.58-3.17-4.94-10.42-5-15a0.41,0.41,0,1,0-.83,0c0.1,6,5.27,15.79,5.88,16.91l0,1.8c-2.12-3.45-7.79-13.3-7.9-19.83a0.42,0.42,0,0,0-.42-0.41,0.41,0.41,0,0,0-.41.42c0.06,3.46,1.56,8.14,4.47,13.9,1.95,3.86,3.91,6.93,4.28,7.51v0.65c0.06,3.4-1.58,7.88-3.57,13.06l-0.12-.52a11.7,11.7,0,0,0-.81-2.69,0.41,0.41,0,0,0-.73.39,11.55,11.55,0,0,1,.73,2.48c0.14,0.62.27,1.2,0.42,1.65l-0.46,1.21-0.36-1.07a24.63,24.63,0,0,0-1.27-3.38,0.41,0.41,0,0,0-.73.39,24.36,24.36,0,0,1,1.22,3.24c0.24,0.74.47,1.44,0.69,2l-0.33.88c-0.7-1.42-2.14-4.33-2.72-5.4a0.41,0.41,0,0,0-.73.39c0.71,1.31,2.71,5.37,3,6.08l-0.36,1c-2.51-4.22-3.45-5.86-3.79-6.48a0.41,0.41,0,0,0-.73.39c0.52,1,1.92,3.35,4.15,7.1l-0.28.81a77.17,77.17,0,0,1-5.1-7.35,0.41,0.41,0,1,0-.73.39,82.49,82.49,0,0,0,5.51,7.9l-0.25.75a44.92,44.92,0,0,1-6.64-8.33,0.41,0.41,0,0,0-.73.39c2,3.66,6.19,7.93,7.08,8.82l-0.23.73c-1.56-1.31-6.57-5.69-8.52-9.3a0.41,0.41,0,1,0-.73.39c2.18,4,7.8,8.79,9,9.76a71.3,71.3,0,0,0-2.92,14.7,1.55,1.55,0,0,0-1.29-.85h0a0.41,0.41,0,0,0,0,.83h0c0.48,0,.87.91,1.19,1.79a0.41,0.41,0,0,0,.39.27h0a0.41,0.41,0,0,0,.4-0.39c0.59-10.74,4.21-20.16,7.11-27.73,2.18-5.67,4.06-10.58,4-14.35,0-.9,0-2.43-0.08-4.09a0.42,0.42,0,0,0,0-.1l0-2.46a4.45,4.45,0,0,1,.1-1,0.41,0.41,0,0,0,0-.11,4.42,4.42,0,0,1,4.23-3.41h0.07a4.45,4.45,0,0,1,4.43,4.26c0,0.65.06,1.38,0.11,2.19a11,11,0,0,0-4.57-3.73,0.41,0.41,0,1,0-.26.78c2.08,0.69,4.14,3.26,4.94,4.53q0.07,0.86.15,1.8v0c0,0.36.07,0.74,0.11,1.12-0.36-.45-0.82-1-1.33-1.54l-0.28-2.25a0.41,0.41,0,0,0-.82.1l0.15,1.22a10.51,10.51,0,0,0-1.8-1.35l-0.23-1.92a0.41,0.41,0,0,0-.82.1l0.26,2.14h0a0.41,0.41,0,0,0,0,.13h0l0.07,0.09,0,0,0.07,0c2.27,1.2,4.56,4.41,4.84,4.8,0.07,0.62.15,1.26,0.24,1.92v0h0l0.09,0.69a19.17,19.17,0,0,0-1.29-1.48l-0.23-1.79a0.41,0.41,0,1,0-.82.11l0.1,0.78a12.81,12.81,0,0,0-1.81-1.34l-0.24-1.89a0.41,0.41,0,0,0-.82.1l0.27,2.1h0a0.41,0.41,0,0,0,0,.13v0a0.41,0.41,0,0,0,.08.1h0l0.06,0a16.45,16.45,0,0,1,4.9,4.9q0.19,1.27.42,2.62l0.06,0.36c-0.38-.43-0.86-0.95-1.38-1.49-0.1-.71-0.2-1.45-0.31-2.22a0.41,0.41,0,1,0-.82.11l0.16,1.14a24.29,24.29,0,0,0-1.85-1.63c-0.09-.63-0.18-1.29-0.27-2a0.41,0.41,0,0,0-.82.11q0.15,1.11.29,2.14h0a0.42,0.42,0,0,0,0,.13h0a0.41,0.41,0,0,0,.08.1l0,0h0a39.93,39.93,0,0,1,5.14,5.13c0.2,1.07.43,2.21,0.69,3.42-0.44-.5-1-1.12-1.66-1.77-0.11-.68-0.22-1.4-0.33-2.17a0.41,0.41,0,0,0-.82.12l0.16,1.08c-0.59-.56-1.22-1.12-1.87-1.65-0.11-.71-0.21-1.45-0.33-2.23a0.41,0.41,0,0,0-.82.12l0.2,1.39-0.26-.19a0.41,0.41,0,0,0-.48.68,38.73,38.73,0,0,1,6.55,6.32q0.35,1.65.75,3.43c-0.51-.6-1.18-1.35-2-2.15-0.12-.67-0.25-1.38-0.38-2.14a0.41,0.41,0,1,0-.81.14l0.17,1c-0.59-.56-1.23-1.12-1.9-1.66-0.12-.69-0.23-1.42-0.36-2.19a0.41,0.41,0,1,0-.82.13l0.21,1.34-0.7-.48a0.41,0.41,0,0,0-.46.69c0.49,0.32,1,.68,1.44,1l0.07,0.05a38,38,0,0,1,5.88,6l0.12,0.55,0.64,2.88c-0.55-.65-1.27-1.47-2.1-2.34-0.18-.79-0.34-1.57-0.5-2.35a0.41,0.41,0,1,0-.81.16l0.23,1.09c-0.63-.62-1.3-1.24-2-1.81-0.14-.74-0.28-1.48-0.42-2.25a0.41,0.41,0,1,0-.81.15c0.08,0.45.16,0.89,0.24,1.32-0.42-.32-0.85-0.61-1.27-0.86a0.41,0.41,0,1,0-.43.71c3.66,2.23,7.72,7.3,8.25,8q0.33,1.52.66,3.08c-0.53-.67-1.24-1.51-2.05-2.4-0.15-.66-0.3-1.29-0.44-1.92v0a0.41,0.41,0,1,0-.8.19v0l0.13,0.56c-0.66-.66-1.36-1.33-2.09-1.94-0.13-.61-0.27-1.23-0.41-1.89a0.41,0.41,0,0,0-.81.17l0.19,0.91a15.9,15.9,0,0,0-2-1.28,0.41,0.41,0,1,0-.39.73c4.25,2.28,8.64,8.19,9,8.75q0.33,1.6.66,3.22c-0.53-.68-1.22-1.53-2-2.44-0.1-.54-0.2-1-0.3-1.48l-0.15-.73a0.41,0.41,0,0,0-.81.17l0.16,0.74,0,0.13c-0.68-.72-1.42-1.44-2.2-2.12-0.13-.72-0.28-1.44-0.44-2.22a0.41,0.41,0,1,0-.81.17c0.09,0.42.17,0.83,0.25,1.22a16.42,16.42,0,0,0-2.78-1.81,0.41,0.41,0,0,0-.37.74c4.57,2.28,9.31,8.77,9.83,9.51q0.27,1.41.54,2.83c-0.54-.69-1.28-1.59-2.15-2.56q-0.17-1-.33-2a0.41,0.41,0,0,0-.81.14l0.12,0.71c-0.7-.73-1.47-1.49-2.29-2.22-0.1-.7-0.21-1.35-0.31-2a0.41,0.41,0,0,0-.82.13l0.16,1a26.25,26.25,0,0,0-2.3-1.71q-0.16-.94-0.33-1.9a0.41,0.41,0,0,0-.81.15c0.07,0.39.14,0.78,0.2,1.17l-0.13-.08a0.41,0.41,0,1,0-.41.72c5.27,3,10,9.42,10.52,10.16q0.28,1.57.53,3.14c-0.57-.74-1.35-1.72-2.28-2.78q-0.16-1.09-.31-2.08a0.41,0.41,0,1,0-.82.12l0.13,0.83c-0.75-.82-1.57-1.65-2.42-2.44q-0.13-1-.26-2a0.41,0.41,0,1,0-.82.11l0.13,1a21.14,21.14,0,0,0-2.25-1.69q-0.14-1-.29-2a0.41,0.41,0,0,0-.82.12c0.07,0.45.13,0.89,0.19,1.34-0.23-.12-0.46-0.24-0.69-0.34a0.41,0.41,0,0,0-.34.75c4.78,2.13,10.48,9.88,11.1,10.74l0.12,0.8a0.41,0.41,0,0,0,0,.25q0.13,0.89.25,1.78c-0.56-.73-1.35-1.7-2.31-2.79q-0.14-1-.27-2a0.41,0.41,0,1,0-.82.11l0.11,0.78c-0.77-.82-1.62-1.67-2.54-2.51q-0.12-1.07-.24-2.05a0.41,0.41,0,1,0-.82.1l0.13,1.14c-0.72-.62-1.47-1.21-2.25-1.77q-0.11-1-.24-2a0.41,0.41,0,0,0-.82.1c0.05,0.45.1,0.88,0.15,1.33-0.35-.23-0.71-0.45-1.06-0.66a0.41,0.41,0,1,0-.42.71c6,3.51,10.9,10.2,11.6,11.19l0,0.21a0.41,0.41,0,0,0,0,.14q0.16,1.33.28,2.62c-0.53-.7-1.29-1.65-2.25-2.74-0.06-.54-0.12-1.06-0.19-1.6l-0.07-.56a0.41,0.41,0,1,0-.82.1l0.07,0.56,0.05,0.45c-0.79-.85-1.68-1.75-2.66-2.64,0-.39-0.08-0.78-0.12-1.18l-0.1-1a0.41,0.41,0,0,0-.82.09l0.1,1,0,0.28c-0.74-.64-1.52-1.27-2.33-1.87q-0.08-1-.18-2.07a0.41,0.41,0,1,0-.82.08c0,0.46.08,0.91,0.12,1.36q-0.67-.46-1.37-0.89a0.41,0.41,0,1,0-.43.7,45,45,0,0,1,11.94,11.52c0.07,0.87.13,1.73,0.17,2.58v0.18c-0.51-.69-1.23-1.64-2.15-2.71-0.05-.63-0.11-1.27-0.17-1.93a0.41,0.41,0,1,0-.82.08c0,0.27,0,.54.07,0.8-0.81-.9-1.72-1.85-2.72-2.78,0-.6-0.1-1.21-0.16-1.84a0.41,0.41,0,0,0-.82.07l0.08,1c-0.78-.68-1.6-1.33-2.46-1.95,0-.6-0.07-1.2-0.11-1.81a0.41,0.41,0,0,0-.82.05c0,0.39,0,.78.07,1.16-0.52-.34-1-0.66-1.59-1a0.41,0.41,0,1,0-.4.72c6.46,3.53,11.44,10.72,12,11.62q0,1.37,0,2.68c-0.47-.66-1.14-1.57-2-2.59,0-.61-0.06-1.25-0.1-1.92a0.41,0.41,0,0,0-.44-0.39,0.41,0.41,0,0,0-.39.44c0,0.28,0,.55,0,0.82-0.81-.93-1.73-1.91-2.75-2.87,0-.6-0.07-1.22-0.11-1.86a0.41,0.41,0,0,0-.82.06q0,0.51.06,1a28.2,28.2,0,0,0-2.6-2c0-.59,0-1.19-0.06-1.8a0.41,0.41,0,0,0-.83,0c0,0.41,0,.81,0,1.21-0.56-.35-1.13-0.68-1.72-1a0.41,0.41,0,1,0-.37.74c6.33,3.14,11.39,10.65,12,11.58,0,0.83,0,1.64-.07,2.43-0.43-.6-1-1.42-1.82-2.36,0-.6,0-1.21,0-1.82a0.41,0.41,0,0,0-.41-0.41h0a0.41,0.41,0,0,0-.41.42c0,0.28,0,.56,0,0.83-0.79-.91-1.71-1.89-2.72-2.86,0-.61,0-1.23,0-1.85a0.41,0.41,0,0,0-.83,0c0,0.35,0,.7,0,1a31.59,31.59,0,0,0-2.73-2.2c0-.58,0-1.16,0-1.75a0.41,0.41,0,0,0-.41-0.41h0a0.41,0.41,0,0,0-.41.42c0,0.39,0,.78,0,1.17-0.57-.37-1.15-0.73-1.75-1.05a0.41,0.41,0,0,0-.39.73c6.34,3.42,11.2,10.47,11.84,11.42q-0.08,1.26-.19,2.45c-0.39-.59-1-1.4-1.7-2.32,0-.54.07-1.1,0.09-1.66a0.41,0.41,0,0,0-.83,0c0,0.25,0,.5,0,0.75a35,35,0,0,0-2.65-2.8c0-.55,0-1.11,0-1.67a0.41,0.41,0,0,0-.41-0.42h0a0.41,0.41,0,0,0-.41.41c0,0.31,0,.63,0,0.94a28.53,28.53,0,0,0-2.79-2.17q0-.85,0-1.73a0.41,0.41,0,0,0-.41-0.42h0a0.41,0.41,0,0,0-.41.41c0,0.41,0,.81,0,1.21-0.56-.35-1.13-0.68-1.73-1a0.41,0.41,0,0,0-.38.73c6.81,3.5,11,10.17,11.51,11.09q-0.12,1.12-.27,2.2c-0.39-.53-0.95-1.28-1.65-2.14,0.07-.54.14-1.09,0.19-1.63a0.41,0.41,0,1,0-.82-0.08c0,0.28-.06.57-0.09,0.85-0.74-.86-1.59-1.79-2.54-2.72,0-.56.08-1.12,0.11-1.7a0.41,0.41,0,0,0-.83,0q0,0.51-.06,1a29.46,29.46,0,0,0-2.76-2.27c0-.5,0-1,0.07-1.52a0.41,0.41,0,0,0-.4-0.43,0.42,0.42,0,0,0-.43.4c0,0.34,0,.67,0,1-0.54-.35-1.08-0.68-1.64-1a0.41,0.41,0,0,0-.38.73c5.6,2.93,10.42,9.72,11.1,10.71q-0.19,1.21-.4,2.36c-0.38-.55-0.95-1.32-1.64-2.2,0.1-.53.19-1,0.28-1.54a0.41,0.41,0,0,0-.81-0.14c0,0.27-.09.55-0.14,0.83-0.71-.87-1.52-1.79-2.38-2.67,0.06-.48.12-1,0.17-1.45a0.41,0.41,0,1,0-.82-0.09c0,0.27-.06.53-0.09,0.8a20,20,0,0,0-2.65-2.17c0-.47.07-0.95,0.1-1.44a0.41,0.41,0,0,0-.82-0.05c0,0.34,0,.67-0.07,1a7.88,7.88,0,0,0-1.57-.69,0.41,0.41,0,1,0-.24.79c4.34,1.3,9.72,9,10.48,10.14q-0.22,1.11-.46,2.18c-0.39-.52-1-1.28-1.68-2.15l0.1-.42c0.09-.37.17-0.72,0.25-1.1a0.41,0.41,0,0,0-.81-0.17c-0.07.31-.13,0.6-0.2,0.9-0.67-.78-1.42-1.61-2.21-2.42,0.09-.55.18-1.09,0.26-1.63a0.41,0.41,0,0,0-.82-0.12c-0.05.35-.11,0.7-0.16,1a22.25,22.25,0,0,0-2.47-2.06c0.05-.52.1-1.06,0.15-1.61a0.41,0.41,0,0,0-.82-0.07c0,0.4-.07.79-0.11,1.17a9.06,9.06,0,0,0-1.37-.69,0.41,0.41,0,0,0-.3.77c4.06,1.59,9.17,8.53,10,9.62q-0.27,1.16-.56,2.27c-0.38-.51-0.95-1.25-1.65-2.09l0.28-1.19,0.09-.37a0.41,0.41,0,1,0-.8-0.19l-0.09.37-0.14.59c-0.63-.73-1.33-1.5-2.07-2.24q0.15-.81.29-1.59a0.41,0.41,0,1,0-.81-0.14l-0.19,1a20.27,20.27,0,0,0-2.29-1.88c0.07-.51.13-1,0.2-1.6a0.41,0.41,0,0,0-.82-0.1c0,0.41-.1.81-0.15,1.2a8.11,8.11,0,0,0-1.14-.56,0.41,0.41,0,0,0-.3.77,8.25,8.25,0,0,1,1.56.84h0c3.4,2.27,7.09,7.24,7.76,8.17l-0.54,2.07c-0.37-.48-0.9-1.17-1.56-2q0.15-.73.31-1.43a0.41,0.41,0,1,0-.81-0.18l-0.18.82c-0.6-.69-1.27-1.41-2-2.1l0.27-1.43a0.41,0.41,0,0,0-.81-0.15l-0.17.9a18.82,18.82,0,0,0-2.16-1.74c0.07-.44.14-0.9,0.21-1.39a0.41,0.41,0,1,0-.82-0.12c-0.05.36-.1,0.7-0.15,1a7.5,7.5,0,0,0-.81-0.4,0.41,0.41,0,1,0-.32.76c3.42,1.41,7.93,7.36,8.69,8.39-0.2.76-.39,1.5-0.58,2.23-0.32-.45-0.79-1.09-1.39-1.81q0.14-.78.29-1.52a0.41,0.41,0,1,0-.81-0.16l-0.17.87c-0.56-.64-1.21-1.32-1.93-2l0.27-1.48a0.41,0.41,0,1,0-.81-0.15l-0.18,1a20.67,20.67,0,0,0-2.12-1.61c0.08-.43.17-0.93,0.26-1.5a0.41,0.41,0,1,0-.81-0.14l-0.2,1.17-0.63-.35a0.41,0.41,0,0,0-.38.73c4.49,2.36,7.87,7.32,8.34,8l-0.1.39c-1,4.17-2,7.82-3,11s-1.69,5.82-2,7.84-0.9,2.9-1.27,3.13a0.87,0.87,0,0,1-.76,0,2.15,2.15,0,0,1-1-1.85l0-1.37a0.41,0.41,0,0,0-.12-0.28l-4-4.12a0.41,0.41,0,0,0-.71.29l0.06,3.46a2.09,2.09,0,0,0,1,1.47,1.63,1.63,0,0,1,.75,1,1.08,1.08,0,0,1-.37,1,0.94,0.94,0,0,1-.88-0.1c-0.37-.22-4-4.21-7.52-13.08-0.6-3.3,1.61-7.32,5.16-9.35a9.05,9.05,0,0,1,10.93,1.23,0.41,0.41,0,1,0,.54-0.62,9.84,9.84,0,0,0-11.88-1.33,11.21,11.21,0,0,0-5.6,7.84c-3-8.38-6.29-22-5.66-40.85,0.09-2.54.21-5,.37-7.38,0.81,0.51,1.53,1,2.13,1.32a0.41,0.41,0,1,0,.42-0.71,74.73,74.73,0,0,1-8.35-5.75l-0.63-.52c-0.77-.63-1.56-1.23-2.34-1.8-1.14-.83-2.26-1.6-3.29-2.27,0.17-2.51.3-5.15,0.4-7.86,0.66-19.58-2.81-33.91-6.53-43.29h0a0.41,0.41,0,0,0-.06-0.15c-3.44-8.63-7.09-13-7.88-13.46a1.65,1.65,0,0,0-1.7-.08,1.84,1.84,0,0,0-.76,1.68,2.29,2.29,0,0,0,1,1.63,1.49,1.49,0,0,1,.67.86l0,2.41-3.12-3.24,0-1.2a2.86,2.86,0,0,0-1.63-2.63,1.67,1.67,0,0,0-1.42.14c-0.75.48-1.29,1.68-1.64,3.69s-1.13,4.65-2,7.75-2,6.89-3,11.08c-0.35,1.48-.75,3-1.17,4.57-1.89,7.16-4,15.25-3.63,27.65h0c0,0.53,0,1.06.06,1.6q0.08,1.61.22,3.29c-0.6,1.24-5.78,12.2-6.27,17.72a0.41,0.41,0,0,0,.37.45h0a0.41,0.41,0,0,0,.41-0.38c0.4-4.45,4.09-12.87,5.6-16.16q0.1,0.94.21,1.9c-0.42,1-3.34,8.08-3.93,14a0.41,0.41,0,0,0,.37.45h0a0.41,0.41,0,0,0,.41-0.37,52.7,52.7,0,0,1,3.31-12.37q0.14,1.11.31,2.22a37,37,0,0,0-2,10.2,0.41,0.41,0,0,0,.4.43h0a0.41,0.41,0,0,0,.41-0.4,34.5,34.5,0,0,1,1.47-8.37q0.22,1.43.47,2.87a40.9,40.9,0,0,0-.46,5.9,0.41,0.41,0,0,0,.41.41h0a0.41,0.41,0,0,0,.41-0.42c0-.94,0-2,0.13-3.05q0.28,1.51.57,3v0c0.67,3.43,1.39,6.82,2.09,10.06h0c0.34,1.56.68,3.08,1,4.56l0.21,0.93a64.7,64.7,0,0,0-1.9,11.25,0.41,0.41,0,0,0,.39.43h0a0.41,0.41,0,0,0,.41-0.39,58.22,58.22,0,0,1,1.48-9.46l0.53,2.43a48.47,48.47,0,0,0-.51,9.24,0.41,0.41,0,0,0,.41.39h0a0.41,0.41,0,0,0,.39-0.44,42.68,42.68,0,0,1,.21-6.71c0.39,1.89.73,3.61,1,5.15,0.31,1.81.56,3.5,0.77,5.09,0.21,1.74-1.25,4.25-3.1,7.42-2.71,4.65-6.41,11-6.92,18.88a0.41,0.41,0,0,0,.39.44h0a0.41,0.41,0,0,0,.41-0.39c0.49-7.67,4.14-13.94,6.81-18.52a39.85,39.85,0,0,0,2.71-5.17q0.11,1,.19,1.84c-1.43,2.44-7.66,13.47-7.77,20.82a0.41,0.41,0,0,0,.41.42h0a0.41,0.41,0,0,0,.41-0.41c0.1-6.4,5-15.78,7.08-19.4q0.07,0.87.12,1.65c-0.73,1.49-5.27,11-5.25,16.82a0.41,0.41,0,0,0,.41.41h0a0.41,0.41,0,0,0,.41-0.41c0-4.66,3.06-11.93,4.52-15.09,0,0.3,0,.6,0,0.87a5.17,5.17,0,0,0,.13.94c-0.34.86-3,7.72-2.9,12.53a0.41,0.41,0,0,0,.41.41h0a0.41,0.41,0,0,0,.41-0.42c-0.06-3.81,1.72-9.15,2.51-11.32a5.28,5.28,0,0,0,.62,1,36.16,36.16,0,0,0-1.55,9.76,0.41,0.41,0,0,0,.41.41h0a0.41,0.41,0,0,0,.41-0.42,35.08,35.08,0,0,1,1.38-9.07,5.32,5.32,0,0,0,.66.49,67.21,67.21,0,0,0-.69,8.18,0.41,0.41,0,0,0,.41.41h0a0.41,0.41,0,0,0,.41-0.42,65.14,65.14,0,0,1,.64-7.77,5.21,5.21,0,0,0,.82.25c0,1.21-.14,5.74-0.11,7.4a0.41,0.41,0,0,0,.41.41h0a0.41,0.41,0,0,0,.41-0.42c0-1.6.08-5.93,0.11-7.27l0.32,0h0.09l0.38,0c0.08,1.34.32,5.66,0.35,7.26a0.41,0.41,0,0,0,.41.41h0a0.41,0.41,0,0,0,.41-0.42c0-1.65-.28-6.16-0.36-7.38a5.2,5.2,0,0,0,.81-0.27,65,65,0,0,1,.89,7.72,0.41,0.41,0,0,0,.41.41h0a0.41,0.41,0,0,0,.41-0.42,67,67,0,0,0-1-8.13,5.25,5.25,0,0,0,.65-0.51,35,35,0,0,1,1.67,9,0.41,0.41,0,0,0,.41.41h0a0.41,0.41,0,0,0,.41-0.42,36.1,36.1,0,0,0-1.86-9.67,5.22,5.22,0,0,0,.59-1c0.87,2.17,2.8,7.4,2.87,11.19a0.41,0.41,0,0,0,.41.41h0a0.41,0.41,0,0,0,.41-0.42c-0.08-4.72-2.84-11.33-3.3-12.38a5.29,5.29,0,0,0,.1-1.13v-0.72c1.58,3.17,4.94,10.42,5,15a0.41,0.41,0,0,0,.41.41h0a0.41,0.41,0,0,0,.41-0.42c-0.1-6-5.27-15.79-5.88-16.91l0-1.8c2.12,3.45,7.79,13.3,7.9,19.83a0.41,0.41,0,0,0,.41.41h0a0.41,0.41,0,0,0,.41-0.42c-0.06-3.46-1.56-8.14-4.47-13.9-1.95-3.85-3.9-6.93-4.28-7.51v-0.65c-0.06-3.4,1.58-7.88,3.57-13.06l0.12,0.52a11.71,11.71,0,0,0,.81,2.69,0.41,0.41,0,0,0,.73-0.39,11.56,11.56,0,0,1-.73-2.48c-0.14-.62-0.27-1.2-0.42-1.65l0.46-1.21,0.36,1.08a24.67,24.67,0,0,0,1.27,3.37,0.41,0.41,0,1,0,.73-0.39,24.41,24.41,0,0,1-1.21-3.24c-0.24-.74-0.47-1.44-0.69-2l0.33-.88c0.7,1.42,2.13,4.32,2.72,5.4a0.41,0.41,0,0,0,.73-0.39c-0.59-1.09-2.18-4.3-3-6.08l0.36-1c2,3.41,3.3,5.59,3.79,6.48a0.41,0.41,0,0,0,.73-0.39c-0.51-.95-1.9-3.33-4.13-7.07l0,0,0.28-.81a77.18,77.18,0,0,1,5.1,7.35,0.41,0.41,0,0,0,.73-0.39,82.45,82.45,0,0,0-5.51-7.9l0.25-.75a44.92,44.92,0,0,1,6.64,8.33,0.41,0.41,0,0,0,.73-0.39c-2-3.66-6.19-7.93-7.08-8.82l0.23-.73c1.56,1.31,6.57,5.69,8.52,9.3a0.41,0.41,0,0,0,.73-0.39c-2.18-4-7.8-8.79-9-9.76a71.3,71.3,0,0,0,2.92-14.7,1.55,1.55,0,0,0,1.29.85h0a0.41,0.41,0,0,0,0-.83h0c-0.48,0-.87-0.91-1.18-1.79a0.42,0.42,0,0,0-.81.12c-0.59,10.74-4.21,20.16-7.11,27.73-2.18,5.67-4.06,10.58-4,14.35v0.76h0c0,0.89,0,2.07.06,3.33a0.41,0.41,0,0,0,0,.1l0,2.46a4.45,4.45,0,0,1-.1,1,0.42,0.42,0,0,0,0,.11,4.42,4.42,0,0,1-4.23,3.41h-0.07a4.45,4.45,0,0,1-4.43-4.26c0-.65-0.06-1.38-0.11-2.19a11,11,0,0,0,4.57,3.73l0.13,0a0.41,0.41,0,0,0,.13-0.81c-2.08-.69-4.14-3.26-4.94-4.53q-0.07-.86-0.15-1.8v0c0-.36-0.07-0.74-0.11-1.12,0.36,0.45.82,1,1.33,1.54l0.28,2.25a0.41,0.41,0,0,0,.41.36h0.05a0.41,0.41,0,0,0,.36-0.46l-0.15-1.22a10.5,10.5,0,0,0,1.8,1.34l0.23,1.92a0.41,0.41,0,0,0,.41.36h0.05a0.41,0.41,0,0,0,.36-0.46l-0.26-2.13h0v-0.08l0,0v0l0,0v0l0,0h0l-0.08-.05c-2.27-1.2-4.55-4.41-4.82-4.79-0.07-.62-0.15-1.26-0.24-1.92v0l-0.09-.69a19.16,19.16,0,0,0,1.29,1.48l0.23,1.79a0.41,0.41,0,0,0,.41.36h0.05a0.41,0.41,0,0,0,.36-0.46l-0.1-.78a12.81,12.81,0,0,0,1.81,1.34l0.24,1.9a0.41,0.41,0,0,0,.41.36h0.05a0.41,0.41,0,0,0,.36-0.46q-0.14-1.08-.27-2.1v-0.1l0,0,0,0,0,0,0,0,0,0,0,0h0a16.45,16.45,0,0,1-4.9-4.9q-0.19-1.27-.42-2.62l-0.06-.36c0.38,0.43.86,0.95,1.38,1.49,0.1,0.71.2,1.45,0.31,2.22a0.41,0.41,0,0,0,.41.36h0.06a0.41,0.41,0,0,0,.35-0.47l-0.16-1.14a24.35,24.35,0,0,0,1.85,1.63c0.09,0.63.18,1.29,0.27,2a0.41,0.41,0,0,0,.41.36h0.05a0.41,0.41,0,0,0,.36-0.46q-0.15-1.11-.29-2.14h0v-0.08l0-.05v0a0.42,0.42,0,0,0-.12-0.13,40,40,0,0,1-5.13-5.13c-0.2-1.07-.43-2.21-0.69-3.42,0.44,0.5,1,1.12,1.66,1.77,0.11,0.68.22,1.4,0.33,2.17a0.41,0.41,0,0,0,.41.35h0.06a0.41,0.41,0,0,0,.35-0.47l-0.16-1.08c0.59,0.56,1.22,1.12,1.87,1.65,0.11,0.71.21,1.45,0.32,2.23a0.41,0.41,0,0,0,.41.35h0.06a0.41,0.41,0,0,0,.35-0.47l-0.2-1.39,0.26,0.19a0.41,0.41,0,1,0,.48-0.67,38.74,38.74,0,0,1-6.55-6.32q-0.35-1.65-.75-3.43c0.51,0.6,1.18,1.35,2,2.15,0.12,0.67.25,1.38,0.38,2.14a0.41,0.41,0,0,0,.41.34h0.07a0.41,0.41,0,0,0,.34-0.48l-0.17-1c0.59,0.56,1.23,1.12,1.9,1.66,0.12,0.69.23,1.42,0.36,2.19a0.41,0.41,0,0,0,.41.35H7335a0.41,0.41,0,0,0,.34-0.47l-0.21-1.34,0.7,0.48a0.41,0.41,0,0,0,.46-0.69c-0.49-.32-1-0.67-1.42-1l-0.1-.08a38.08,38.08,0,0,1-5.86-6l-0.12-.55-0.64-2.88c0.55,0.65,1.27,1.47,2.1,2.34,0.18,0.81.34,1.58,0.5,2.35a0.41,0.41,0,0,0,.4.33h0.08a0.41,0.41,0,0,0,.32-0.49l-0.23-1.09c0.63,0.62,1.3,1.24,2,1.81,0.14,0.7.28,1.44,0.42,2.25a0.41,0.41,0,0,0,.41.34h0.07a0.41,0.41,0,0,0,.33-0.48c-0.08-.46-0.16-0.9-0.24-1.32,0.42,0.32.85,0.61,1.27,0.86a0.41,0.41,0,1,0,.43-0.71c-3.66-2.23-7.72-7.3-8.25-8q-0.33-1.52-.66-3.08c0.53,0.67,1.24,1.51,2.05,2.4l0.44,1.92v0a0.41,0.41,0,0,0,.4.32h0.09a0.41,0.41,0,0,0,.31-0.5v0l-0.13-.56c0.66,0.66,1.36,1.33,2.09,1.94v0l0.4,1.84a0.41,0.41,0,0,0,.4.33h0.09a0.41,0.41,0,0,0,.32-0.49l-0.19-.91a15.89,15.89,0,0,0,2,1.28,0.41,0.41,0,0,0,.39-0.73c-4.25-2.29-8.64-8.2-9-8.75q-0.33-1.6-.66-3.22c0.53,0.68,1.22,1.53,2,2.44,0.1,0.54.21,1,.3,1.48l0.15,0.73a0.41,0.41,0,0,0,.4.33H7329a0.41,0.41,0,0,0,.32-0.49l-0.15-.73,0-.13c0.68,0.72,1.42,1.44,2.2,2.12,0.13,0.71.28,1.44,0.44,2.22a0.41,0.41,0,0,0,.4.33h0.08a0.41,0.41,0,0,0,.32-0.49l-0.25-1.22a16.42,16.42,0,0,0,2.78,1.81,0.41,0.41,0,0,0,.37-0.74c-4.57-2.28-9.31-8.77-9.83-9.51q-0.27-1.41-.54-2.83c0.54,0.69,1.28,1.59,2.15,2.56q0.17,1,.33,2a0.41,0.41,0,0,0,.41.34h0.07a0.41,0.41,0,0,0,.34-0.48l-0.12-.71c0.7,0.73,1.47,1.49,2.29,2.22,0.1,0.7.21,1.35,0.31,2a0.41,0.41,0,0,0,.41.35h0.07a0.41,0.41,0,0,0,.34-0.47l-0.16-1a26.25,26.25,0,0,0,2.3,1.71q0.16,0.94.33,1.9a0.41,0.41,0,0,0,.41.34h0.07a0.41,0.41,0,0,0,.33-0.48c-0.07-.39-0.14-0.78-0.2-1.17l0.13,0.08a0.41,0.41,0,0,0,.41-0.72c-5.27-3-10-9.42-10.52-10.16q-0.28-1.57-.53-3.14c0.57,0.74,1.36,1.72,2.28,2.79q0.16,1.09.31,2.08a0.41,0.41,0,0,0,.41.35h0.06a0.41,0.41,0,0,0,.35-0.47l-0.13-.83c0.75,0.82,1.57,1.65,2.42,2.44q0.13,1,.26,2a0.41,0.41,0,0,0,.41.36h0.06a0.41,0.41,0,0,0,.35-0.46l-0.13-1a21.15,21.15,0,0,0,2.25,1.69q0.14,1,.29,2a0.41,0.41,0,0,0,.41.35h0.06a0.41,0.41,0,0,0,.35-0.47c-0.07-.45-0.13-0.89-0.19-1.34,0.23,0.12.46,0.24,0.69,0.34a0.41,0.41,0,0,0,.34-0.75c-4.78-2.13-10.48-9.88-11.1-10.74l-0.12-.8a0.41,0.41,0,0,0,0-.25q-0.13-.89-0.25-1.78c0.56,0.73,1.35,1.7,2.31,2.79q0.14,1,.27,2a0.41,0.41,0,0,0,.41.36h0.06a0.41,0.41,0,0,0,.35-0.47l-0.11-.78c0.77,0.82,1.62,1.67,2.54,2.51q0.12,1.07.24,2.05a0.41,0.41,0,0,0,.41.36h0a0.41,0.41,0,0,0,.36-0.46l-0.13-1.14c0.72,0.62,1.47,1.21,2.25,1.77q0.11,1,.24,2a0.41,0.41,0,0,0,.41.36h0.05a0.41,0.41,0,0,0,.36-0.46c-0.05-.45-0.1-0.88-0.15-1.33,0.35,0.23.71,0.45,1.06,0.66a0.41,0.41,0,1,0,.42-0.71c-6-3.51-10.9-10.2-11.6-11.19l0-.21a0.41,0.41,0,0,0,0-.14q-0.16-1.33-.28-2.62c0.53,0.7,1.29,1.65,2.25,2.74,0.06,0.54.12,1.06,0.19,1.6l0.07,0.56a0.41,0.41,0,0,0,.41.36H7326a0.41,0.41,0,0,0,.36-0.46l-0.07-.56-0.05-.45c0.79,0.85,1.68,1.75,2.66,2.64L7329,332l0.1,1a0.41,0.41,0,0,0,.41.37h0a0.41,0.41,0,0,0,.37-0.45l-0.1-1,0-.27c0.74,0.64,1.52,1.27,2.33,1.87q0.08,1,.18,2.07a0.41,0.41,0,0,0,.41.37h0a0.41,0.41,0,0,0,.37-0.45c0-.46-0.08-0.91-0.12-1.36,0.45,0.31.9,0.61,1.37,0.89a0.41,0.41,0,1,0,.43-0.7,45,45,0,0,1-11.94-11.52c-0.07-.87-0.13-1.74-0.17-2.58,0-.06,0-0.12,0-0.18,0.51,0.69,1.23,1.64,2.15,2.71,0.05,0.63.11,1.27,0.17,1.93a0.41,0.41,0,0,0,.41.37h0a0.41,0.41,0,0,0,.37-0.45l-0.07-.8c0.81,0.9,1.72,1.85,2.72,2.78,0,0.6.1,1.21,0.16,1.84a0.41,0.41,0,0,0,.41.38h0a0.41,0.41,0,0,0,.37-0.45l-0.08-1c0.78,0.68,1.6,1.33,2.46,1.95,0,0.6.07,1.2,0.11,1.81a0.41,0.41,0,0,0,.41.39h0a0.41,0.41,0,0,0,.39-0.44c0-.39,0-0.78-0.07-1.16,0.52,0.34,1,.66,1.59,1a0.41,0.41,0,1,0,.4-0.72c-6.45-3.53-11.43-10.72-12-11.62q0-1.37,0-2.68c0.47,0.66,1.14,1.57,2,2.59,0,0.63.06,1.27,0.1,1.92a0.41,0.41,0,0,0,.41.39h0a0.41,0.41,0,0,0,.39-0.44c0-.28,0-0.55,0-0.82,0.81,0.93,1.73,1.91,2.75,2.87,0,0.6.07,1.22,0.11,1.86a0.41,0.41,0,0,0,.41.39h0a0.41,0.41,0,0,0,.38-0.44q0-.51-0.06-1a28.2,28.2,0,0,0,2.6,2c0,0.59,0,1.19.06,1.8a0.41,0.41,0,0,0,.41.4h0a0.41,0.41,0,0,0,.4-0.43c0-.41,0-0.81,0-1.21,0.56,0.35,1.13.68,1.72,1a0.41,0.41,0,1,0,.37-0.74c-6.33-3.14-11.39-10.65-12-11.58,0-.83,0-1.64.07-2.43,0.43,0.6,1,1.42,1.82,2.36,0,0.6,0,1.21,0,1.82a0.41,0.41,0,0,0,.41.41h0a0.41,0.41,0,0,0,.41-0.42c0-.28,0-0.56,0-0.83,0.79,0.91,1.71,1.89,2.72,2.86,0,0.6,0,1.22,0,1.85a0.41,0.41,0,0,0,.41.4h0a0.41,0.41,0,0,0,.4-0.43c0-.35,0-0.7,0-1a31.59,31.59,0,0,0,2.73,2.2c0,0.58,0,1.16,0,1.75a0.41,0.41,0,0,0,.41.41h0a0.41,0.41,0,0,0,.41-0.42c0-.39,0-0.78,0-1.17,0.57,0.37,1.15.73,1.75,1.05a0.41,0.41,0,0,0,.39-0.73c-6.34-3.42-11.2-10.47-11.84-11.42q0.08-1.26.19-2.45c0.39,0.59,1,1.4,1.7,2.32,0,0.54-.07,1.1-0.09,1.66a0.41,0.41,0,0,0,.4.43h0a0.41,0.41,0,0,0,.41-0.4c0-.25,0-0.5,0-0.75a35,35,0,0,0,2.65,2.8c0,0.55,0,1.11,0,1.67a0.41,0.41,0,0,0,.41.42h0a0.41,0.41,0,0,0,.41-0.41c0-.31,0-0.63,0-0.94a28.52,28.52,0,0,0,2.79,2.17q0,0.85,0,1.73a0.41,0.41,0,0,0,.41.42h0a0.41,0.41,0,0,0,.41-0.41c0-.41,0-0.81,0-1.21,0.56,0.35,1.13.68,1.73,1a0.41,0.41,0,0,0,.38-0.73c-6.81-3.5-11-10.17-11.51-11.09q0.12-1.12.27-2.2c0.39,0.53.95,1.28,1.65,2.14-0.07.55-.14,1.1-0.19,1.63a0.41,0.41,0,0,0,.37.45h0a0.41,0.41,0,0,0,.41-0.37c0-.28.06-0.57,0.09-0.85,0.74,0.86,1.59,1.79,2.54,2.72,0,0.57-.08,1.14-0.12,1.7a0.41,0.41,0,0,0,.39.43h0a0.41,0.41,0,0,0,.42-0.39c0-.33,0-0.67.07-1a29.51,29.51,0,0,0,2.76,2.27c0,0.5,0,1-.07,1.52a0.41,0.41,0,0,0,.4.43h0a0.41,0.41,0,0,0,.42-0.4c0-.34,0-0.67,0-1,0.54,0.35,1.08.68,1.64,1a0.41,0.41,0,0,0,.38-0.73c-5.6-2.93-10.42-9.72-11.1-10.71q0.19-1.21.4-2.36c0.38,0.55.95,1.32,1.64,2.2-0.1.53-.19,1-0.28,1.54a0.41,0.41,0,0,0,.34.48h0.07a0.41,0.41,0,0,0,.41-0.35c0-.27.09-0.55,0.14-0.83,0.71,0.87,1.52,1.79,2.38,2.67-0.06.48-.12,1-0.17,1.45a0.41,0.41,0,0,0,.37.45h0a0.41,0.41,0,0,0,.41-0.37c0-.27.06-0.53,0.09-0.8a20,20,0,0,0,2.65,2.17c0,0.47-.07.95-0.1,1.44a0.41,0.41,0,0,0,.39.44h0a0.41,0.41,0,0,0,.41-0.39c0-.34,0-0.67.07-1a7.88,7.88,0,0,0,1.57.69l0.12,0a0.41,0.41,0,0,0,.12-0.81c-4.34-1.3-9.72-9-10.48-10.14q0.22-1.11.46-2.18c0.39,0.52,1,1.28,1.68,2.15l-0.1.43c-0.08.36-.17,0.72-0.25,1.09a0.41,0.41,0,0,0,.32.49h0.09a0.41,0.41,0,0,0,.4-0.33c0.07-.31.13-0.6,0.2-0.9,0.67,0.78,1.42,1.61,2.21,2.42-0.09.55-.18,1.09-0.26,1.63a0.41,0.41,0,0,0,.35.47h0.06a0.41,0.41,0,0,0,.41-0.35c0.05-.35.11-0.69,0.16-1a22.25,22.25,0,0,0,2.47,2.06c-0.05.52-.1,1.06-0.15,1.61a0.41,0.41,0,0,0,.37.45h0a0.41,0.41,0,0,0,.41-0.38c0-.4.07-0.79,0.11-1.17a9.07,9.07,0,0,0,1.37.69,0.41,0.41,0,0,0,.3-0.77c-4.06-1.59-9.17-8.53-10-9.62q0.27-1.16.56-2.27c0.38,0.51.95,1.25,1.65,2.09l-0.28,1.19-0.09.37a0.41,0.41,0,0,0,.31.5h0.09a0.41,0.41,0,0,0,.4-0.32l0.09-.37,0.14-.59c0.63,0.73,1.33,1.5,2.07,2.24q-0.15.81-.29,1.59a0.41,0.41,0,0,0,.33.48H7330a0.41,0.41,0,0,0,.41-0.34l0.19-1a20.25,20.25,0,0,0,2.29,1.88c-0.07.51-.13,1-0.2,1.6a0.41,0.41,0,0,0,.36.46h0a0.41,0.41,0,0,0,.41-0.37c0-.41.1-0.81,0.15-1.2a8.11,8.11,0,0,0,1.14.56l0.15,0a0.41,0.41,0,0,0,.15-0.8,8.25,8.25,0,0,1-1.56-.84h0c-3.4-2.27-7.09-7.24-7.76-8.17l0.54-2.07c0.37,0.48.9,1.17,1.56,2l-0.31,1.43a0.41,0.41,0,0,0,.31.49h0.09a0.41,0.41,0,0,0,.4-0.32l0.18-.82c0.6,0.69,1.27,1.41,2,2.1l-0.27,1.43a0.41,0.41,0,0,0,.33.48h0.08a0.41,0.41,0,0,0,.41-0.34l0.17-.9a18.8,18.8,0,0,0,2.16,1.74c-0.07.44-.14,0.9-0.21,1.39a0.41,0.41,0,0,0,.35.47h0.06a0.41,0.41,0,0,0,.41-0.35c0.05-.36.1-0.7,0.15-1a7.52,7.52,0,0,0,.81.4,0.41,0.41,0,1,0,.32-0.76c-3.42-1.41-7.93-7.36-8.69-8.39,0.2-.76.39-1.5,0.58-2.23,0.32,0.45.79,1.09,1.39,1.81q-0.14.78-.29,1.52a0.41,0.41,0,0,0,.33.49h0.08a0.41,0.41,0,0,0,.4-0.33l0.17-.87c0.56,0.64,1.21,1.32,1.93,2l-0.27,1.48a0.41,0.41,0,0,0,.33.48h0.08a0.41,0.41,0,0,0,.41-0.34l0.18-1A20.65,20.65,0,0,0,7334,295c-0.08.43-.17,0.93-0.26,1.5a0.41,0.41,0,0,0,.34.48h0.07a0.41,0.41,0,0,0,.41-0.34l0.2-1.17,0.63,0.35a0.41,0.41,0,1,0,.38-0.73c-4.49-2.36-7.87-7.32-8.34-8l0.1-.39c1-4.17,2-7.82,3-11s1.69-5.82,2-7.84,0.9-2.9,1.27-3.13a0.87,0.87,0,0,1,.76,0,2.15,2.15,0,0,1,1,1.85l0,1.37a0.41,0.41,0,0,0,.12.28l4,4.12a0.41,0.41,0,0,0,.71-0.29l-0.06-3.46a2.09,2.09,0,0,0-1-1.47,1.63,1.63,0,0,1-.75-1,1.08,1.08,0,0,1,.37-1,0.93,0.93,0,0,1,.88.1c0.37,0.22,4,4.21,7.52,13.08,0.6,3.3-1.61,7.32-5.16,9.35a9.05,9.05,0,0,1-10.93-1.23,0.41,0.41,0,1,0-.54.62,10.39,10.39,0,0,0,6.83,2.74,10.09,10.09,0,0,0,5.05-1.41,11.22,11.22,0,0,0,5.6-7.84c3,8.38,6.29,22,5.66,40.85-0.09,2.54-.21,5-0.36,7.38-0.81-.51-1.53-1-2.13-1.32a0.41,0.41,0,0,0-.42.71,74.76,74.76,0,0,1,8.36,5.75l0.62,0.51c0.78,0.63,1.56,1.24,2.35,1.81,1.14,0.83,2.26,1.6,3.29,2.27-0.17,2.5-.3,5.14-0.4,7.86-0.66,19.58,2.81,33.91,6.53,43.3h0a0.41,0.41,0,0,0,.06.15c3.45,8.64,7.09,13.05,7.88,13.47a1.65,1.65,0,0,0,1.7.08,1.84,1.84,0,0,0,.76-1.68,2.29,2.29,0,0,0-1-1.63,1.49,1.49,0,0,1-.67-0.86l0-2.41,3.12,3.24,0,1.2a2.86,2.86,0,0,0,1.63,2.63,2.29,2.29,0,0,0,.61.1,1.49,1.49,0,0,0,.81-0.24c0.75-.48,1.29-1.68,1.64-3.69s1.13-4.65,2-7.75,2-6.89,3-11.08c0.35-1.48.75-3,1.17-4.57,1.89-7.16,4-15.25,3.63-27.66h0c0-.53,0-1.06-0.06-1.61q-0.08-1.61-.22-3.29c0.6-1.25,5.78-12.2,6.27-17.72A0.41,0.41,0,0,0,7403.6,325.8Z" transform="translate(-7267.36 -215.14)"/><path class="cls-1" d="M7338.1,385.5c0.09,0.69.13,0.94,0.21,1.67a0.41,0.41,0,0,1-.36.46h-0.05a0.41,0.41,0,0,1-.41-0.36c-0.08-.66-0.11-0.84-0.19-1.47a8.86,8.86,0,0,1-1.8-1.07l0.15,1.22a0.41,0.41,0,0,1-.36.46h-0.05a0.41,0.41,0,0,1-.41-0.36l-0.28-2.25c-0.52-.54-1-1.36-1.33-1.81l2.37,2.27,1.22,0.93Z" transform="translate(-7267.36 -215.14)"/><path class="cls-1" d="M7381.76,282.06c-0.09-.69-0.13-0.94-0.21-1.67a0.41,0.41,0,0,1,.36-0.46H7382a0.41,0.41,0,0,1,.41.36c0.08,0.66.11,0.84,0.19,1.47a8.86,8.86,0,0,1,1.8,1.07l-0.15-1.22a0.41,0.41,0,0,1,.36-0.46h0.05a0.41,0.41,0,0,1,.41.36l0.28,2.25c0.52,0.54,1,1.36,1.33,1.81l-2.37-2.27-1.22-.93Z" transform="translate(-7267.36 -215.14)"/><rect class="cls-1" x="0.43" y="116.66" width="18.23" height="0.85"/><rect class="cls-1" x="166.53" y="116.66" width="18.23" height="0.85"/></svg>