<?xml version="1.0" encoding="utf-8"?>
<!-- Generator: Adobe Illustrator 18.1.1, SVG Export Plug-In . SVG Version: 6.00 Build 0)  -->
<svg version="1.1" id="Layer_1" xmlns="http://www.w3.org/2000/svg" xmlns:xlink="http://www.w3.org/1999/xlink" x="0px" y="0px"
	 viewBox="0 0 261.2 330.5" enable-background="new 0 0 261.2 330.5" xml:space="preserve">
<g>
	<g>
		<g>
			<path fill="#999999" d="M45.6,166.6l0.7-5.5h1.1l-1,7.3h-1.1l-0.8-4.5l-0.8,4.5h-1.1l-1-7.3h1.1l0.7,5.5l0.7-4.4h0.9L45.6,166.6z
				"/>
		</g>
		<g>
			<path fill="#999999" d="M54.4,166.7h-2.7l-0.6,1.8H50l2.5-7.3h1.1l2.5,7.3H55L54.4,166.7z M54.1,165.7l-1-2.9l-1,2.9H54.1z"/>
		</g>
	</g>
	<g>
		<g>
			<path fill="#999999" d="M208.5,166.7h-2.7l-0.6,1.8H204l2.5-7.3h1.1l2.5,7.3h-1.1L208.5,166.7z M208.1,165.7l-1-2.9l-1,2.9H208.1
				z"/>
		</g>
		<g>
			<path fill="#999999" d="M214.5,168.5h-1.1v-7.3h1.1v3.6l3-3.6h1.4l-2.5,3l2.8,4.3h-1.3l-2.3-3.4l-1.1,1.3V168.5z"/>
		</g>
	</g>
	<g>
		<path fill="#999999" d="M130.6,304.7c-28.1,0-54.4-14.5-74.2-40.9c-19.8-26.3-30.6-61.3-30.6-98.6S36.6,93,56.4,66.7
			c19.8-26.4,46.2-40.9,74.2-40.9c28.1,0,54.4,14.5,74.2,40.9c19.8,26.3,30.7,61.3,30.7,98.6s-10.9,72.2-30.7,98.6
			C185,290.2,158.6,304.7,130.6,304.7z M130.6,26.9c-27.7,0-53.7,14.4-73.3,40.4c-19.6,26.1-30.4,60.9-30.4,97.9
			s10.8,71.7,30.4,97.9c19.6,26.1,45.6,40.4,73.3,40.4c27.7,0,53.7-14.4,73.3-40.4c19.6-26.1,30.4-60.9,30.4-97.9
			s-10.8-71.7-30.4-97.9C184.3,41.3,158.3,26.9,130.6,26.9z"/>
	</g>
	<g>
		<path fill="#999999" d="M130.9,330.5C58.7,330.5,0,256.3,0,165.2S58.7,0,130.9,0c17.7,0,34.8,4.4,50.9,13
			c15.5,8.3,29.5,20.3,41.4,35.4c24.6,31.2,38.1,72.7,38.1,116.8s-13.5,85.6-38.1,116.8c-12,15.2-25.9,27.1-41.4,35.4
			C165.6,326.1,148.5,330.5,130.9,330.5z M130.9,1.2C59.4,1.2,1.2,74.8,1.2,165.2s58.2,164,129.7,164c17.5,0,34.4-4.3,50.3-12.9
			c15.4-8.3,29.2-20.1,41.1-35.1c24.4-31,37.8-72.2,37.8-116s-13.4-85.1-37.8-116c-11.9-15.1-25.7-26.9-41.1-35.1
			C165.2,5.5,148.3,1.2,130.9,1.2z"/>
	</g>
	<g>
		<g>
			<path fill="#999999" d="M13.8,214l-0.4-1.6l10.3-2.8l0.4,1.6l-5,1.3l6.2,2.9l0.5,1.9l-5.2-2.5l-5,5.6l-0.5-1.8l4-4.5l-2.3-1.1
				L13.8,214z"/>
		</g>
		<g>
			<path fill="#999999" d="M21.5,237.7l-0.6-1.5l5.6-6.8l-7.1,2.7l-0.6-1.5l9.9-3.8l0.6,1.5l-5.6,6.8l7.1-2.7l0.6,1.5L21.5,237.7z"
				/>
		</g>
		<g>
			<path fill="#999999" d="M32.3,244.6c2-1,4-0.3,5.1,1.7c1,2,0.4,4.1-1.6,5.1l-3.1,1.6c-2,1-4,0.3-5.1-1.7c-1-2-0.4-4.1,1.6-5.1
				L32.3,244.6z M35,249.9c1.3-0.7,1.4-2,0.9-2.9c-0.5-0.9-1.6-1.6-2.9-1l-3.1,1.6c-1.3,0.7-1.4,2-0.9,2.9c0.5,0.9,1.6,1.6,2.9,1
				L35,249.9z"/>
		</g>
		<g>
			<path fill="#999999" d="M40.3,267.3l7.2-3.6l0.9,1.3l-9.7,4.6l-0.9-1.3l4.8-4.6l-6.1,2.6l-0.9-1.3l8-7.1l0.9,1.3l-6.1,5.2l6-2.7
				l0.7,1.1L40.3,267.3z"/>
		</g>
		<g>
			<path fill="#999999" d="M65.1,293.3l-2.7,3.1l-1.2-1.1l2.7-3.1l1.5-7.4l1.3,1.2l-1.2,5.5l5.3-1.9l1.3,1.2L65.1,293.3z"/>
		</g>
		<g>
			<path fill="#999999" d="M77.2,299c1.2-1.9,3.3-2.4,5.2-1.1c1.9,1.2,2.4,3.3,1.2,5.2l-1.8,2.9c-1.2,1.9-3.3,2.4-5.2,1.1
				c-1.9-1.2-2.4-3.3-1.2-5.2L77.2,299z M82.3,302.2c0.8-1.3,0.2-2.4-0.7-3c-0.9-0.6-2.2-0.6-3,0.6l-1.8,2.9c-0.8,1.3-0.2,2.4,0.7,3
				c0.9,0.6,2.2,0.6,3-0.6L82.3,302.2z"/>
		</g>
		<g>
			<path fill="#999999" d="M99.7,306.7l1.5,0.6l-2.7,6.5c-0.9,2.1-2.8,2.9-4.9,2c-2.1-0.9-3-2.8-2.1-4.9l2.7-6.5l1.5,0.6l-2.7,6.5
				c-0.6,1.4,0.2,2.4,1.2,2.8c1,0.4,2.3,0.2,2.8-1.2L99.7,306.7z"/>
		</g>
		<g>
			<path fill="#999999" d="M111,316.4l-0.9,4.5l-1.6-0.3l2.1-10.4l4.1,0.8c2.1,0.4,3,1.8,2.6,3.6c-0.3,1.5-1.3,2.4-2.9,2.4l1.8,5.1
				l-1.8-0.4l-1.7-5L111,316.4z M114.3,312.6l-2.5-0.5l-0.6,2.8l2.5,0.5c1,0.2,1.7-0.2,1.9-1.1C115.8,313.4,115.3,312.8,114.3,312.6
				z"/>
		</g>
		<g>
			<path fill="#999999" d="M148.1,315.2l3.5-0.7l0.3,1.6l-3.5,0.7l0.9,4.5l-1.6,0.3l-2.2-10.4l6.1-1.3l0.3,1.6l-4.5,1L148.1,315.2z"
				/>
		</g>
		<g>
			<path fill="#999999" d="M165.4,306.9l2.9,6.8l2.1-0.9l0.6,1.5l-5.8,2.4l-0.6-1.5l2.1-0.9l-2.9-6.8l-2.1,0.9l-0.6-1.5l5.8-2.4
				l0.6,1.5L165.4,306.9z"/>
		</g>
		<g>
			<path fill="#999999" d="M179.6,306.2l1.4-0.9c0.8,0.9,1.9,1,2.9,0.3c0.9-0.6,1.2-1.4,0.8-2.1c-0.4-0.7-1.1-0.8-2.1-0.5l-1.8,0.6
				c-1.4,0.5-2.6-0.1-3.4-1.3c-1.1-1.7-0.3-3.4,1.3-4.4c1.8-1.1,3.5-0.8,4.7,0.6l-1.5,0.9c-0.6-0.6-1.5-0.7-2.3-0.2
				c-1.1,0.7-1.2,1.5-0.8,2.1c0.4,0.7,1.1,0.8,1.8,0.6l1.8-0.6c1.6-0.6,2.9-0.2,3.8,1.3c0.9,1.5,0.5,3.2-1.4,4.3
				C182.7,308.3,180.8,307.8,179.6,306.2z"/>
		</g>
		<g>
			<path fill="#999999" d="M194.2,286.2l1.2-1.1l7,8l-1.2,1.1l-3-3.4l-3.3,2.9l3,3.4l-1.2,1.1l-7-8l1.2-1.1l3,3.4l3.3-2.9
				L194.2,286.2z"/>
		</g>
		<g>
			<path fill="#999999" d="M207,279.5l2.3-2.7l1.2,1.1l-2.3,2.7l2.2,1.9l3-3.5l1.2,1.1l-4.1,4.7l-8.1-7l4.1-4.7l1.2,1.1l-3,3.5
				L207,279.5z"/>
		</g>
		<g>
			<path fill="#999999" d="M218.8,267l3.8,2.5l-0.9,1.3l-8.8-5.9l2.3-3.5c1.2-1.8,2.8-2,4.3-1c1.3,0.9,1.7,2.2,1.1,3.6l5.4,0.3
				l-1,1.5l-5.3-0.3L218.8,267z M216.5,262.4l-1.4,2.1l2.4,1.6l1.4-2.1c0.5-0.8,0.5-1.6-0.3-2.1C217.8,261.3,217,261.6,216.5,262.4z
				"/>
		</g>
		<g>
			<path fill="#999999" d="M224.7,245l0.8-1.5l9.5,4.9l-0.7,1.4l-6.5-3.3l3.2,3.5l-0.6,1.1l-4.7-0.6l6.5,3.3l-0.7,1.4l-9.5-4.9
				l0.8-1.5l6.2,0.8L224.7,245z"/>
		</g>
		<g>
			<path fill="#999999" d="M239.2,231.6l-1.4,3.7l2.1,1.8l-0.6,1.6l-8.6-7.3l0.6-1.6l11.3,0.3l-0.6,1.6L239.2,231.6z M237.6,231.5
				l-4.5-0.1l3.4,2.9L237.6,231.5z"/>
		</g>
		<g>
			<path fill="#999999" d="M247.8,212.7l-0.4,1.6l-8.5,2.2l7.4,2l-0.4,1.6l-10.3-2.8l0.4-1.6l8.5-2.2l-7.4-2l0.4-1.6L247.8,212.7z"
				/>
		</g>
	</g>
	<g>
		<g>
			<path fill="#999999" d="M43.4,73.3l-8.9-5.9l2.1-3.2c1.3-1.9,3.3-2.4,5.2-1.1l2.6,1.7c1.9,1.3,2.3,3.4,1,5.2L43.4,73.3z
				 M44.2,69.2c0.6-0.9,0.6-2.2-0.6-3L41,64.5c-1.2-0.8-2.4-0.3-3,0.6l-1.2,1.8L43,71L44.2,69.2z"/>
		</g>
		<g>
			<path fill="#999999" d="M51.4,54.7l3.5,3l-1.1,1.2l-8-7l2.7-3.1c1.4-1.6,3-1.7,4.4-0.5c1.2,1,1.5,2.4,0.7,3.7l5.3,1l-1.2,1.4
				l-5.2-1L51.4,54.7z M49.7,49.8L48,51.8l2.2,1.9l1.7-1.9c0.6-0.7,0.7-1.6,0-2.2C51.1,49,50.4,49.1,49.7,49.8z"/>
		</g>
		<g>
			<path fill="#999999" d="M63.1,36.6l4.9,5.6l1.8-1.5l1.1,1.2L66,46L65,44.8l1.8-1.5l-4.9-5.6l-1.8,1.5L59.1,38l4.7-4.1l1.1,1.2
				L63.1,36.6z"/>
		</g>
		<g>
			<path fill="#999999" d="M77.5,29.5l3-1.9l0.9,1.4l-3,1.9l2.4,3.9l-1.4,0.9l-5.7-9l5.3-3.3l0.9,1.4L75.9,27L77.5,29.5z"/>
		</g>
		<g>
			<path fill="#999999" d="M94.4,17.5l3.4,8.4l-1.5,0.6l-3.4-8.4l-2.8,1.1l-0.6-1.5l7-2.9l0.6,1.5L94.4,17.5z"/>
		</g>
		<g>
			<path fill="#999999" d="M110.7,15.5l3.5-0.7l0.3,1.6l-3.5,0.7l0.6,2.9l4.5-0.9l0.3,1.6l-6.1,1.2l-2.1-10.4l6.1-1.2l0.3,1.6
				l-4.5,0.9L110.7,15.5z"/>
		</g>
		<g>
			<path fill="#999999" d="M128,15l0.1,4.6l-1.6,0L126.3,9l4.2-0.1c2.1,0,3.3,1.1,3.3,3c0,1.6-0.8,2.7-2.3,3l2.8,4.6l-1.8,0
				l-2.8-4.5L128,15z M130.5,10.5l-2.5,0.1l0.1,2.9l2.5-0.1c1,0,1.6-0.6,1.6-1.5C132.1,11,131.5,10.5,130.5,10.5z"/>
		</g>
		<g>
			<path fill="#999999" d="M144.2,17.2l1.6,0.3c0,1.2,0.7,2,1.9,2.2c1.1,0.2,1.9-0.2,2-1c0.2-0.8-0.2-1.3-1.2-1.8l-1.8-0.8
				c-1.3-0.6-1.9-1.8-1.6-3.3c0.4-2,2.1-2.7,3.9-2.3c2.1,0.4,3.1,1.8,3,3.6l-1.7-0.3c0-0.9-0.6-1.5-1.6-1.7c-1.2-0.2-1.9,0.2-2,1
				c-0.2,0.8,0.3,1.3,0.9,1.6l1.7,0.8c1.6,0.7,2.2,1.9,1.9,3.6c-0.3,1.7-1.8,2.6-4,2.2C145,20.8,144,19.1,144.2,17.2z"/>
		</g>
		<g>
			<path fill="#999999" d="M182,28.4l3,1.9l-0.9,1.4l-3-1.9l-2.4,3.9l-1.4-0.9l5.7-9l5.3,3.3l-0.9,1.4l-3.9-2.5L182,28.4z"/>
		</g>
		<g>
			<path fill="#999999" d="M199.8,38.1l-4.9,5.6l1.7,1.5l-1.1,1.2l-4.7-4.1l1.1-1.2l1.7,1.5l4.9-5.6l-1.7-1.5l1.1-1.2l4.7,4.1
				l-1.1,1.2L199.8,38.1z"/>
		</g>
		<g>
			<path fill="#999999" d="M205.2,51.4l1.1,1.2c-0.7,0.9-0.7,2,0.1,2.9c0.7,0.8,1.6,1,2.2,0.5c0.6-0.5,0.7-1.2,0.2-2.1l-0.9-1.7
				c-0.7-1.3-0.3-2.6,0.8-3.6c1.6-1.3,3.3-0.8,4.5,0.6c1.4,1.6,1.3,3.3,0.1,4.7l-1.1-1.3c0.5-0.7,0.5-1.5-0.2-2.3
				c-0.8-1-1.6-1-2.2-0.4c-0.6,0.5-0.6,1.2-0.3,1.8l0.9,1.7c0.8,1.5,0.6,2.9-0.7,4c-1.3,1.1-3,1-4.5-0.7
				C203.6,54.7,203.8,52.8,205.2,51.4z"/>
		</g>
		<g>
			<path fill="#999999" d="M225.8,66.2l0.9,1.4l-8.9,5.9l-0.9-1.4l3.8-2.5l-2.4-3.6l-3.8,2.5l-0.9-1.4l8.9-5.9l0.9,1.4l-3.7,2.5
				l2.4,3.6L225.8,66.2z"/>
		</g>
	</g>
	<g>
		<g>
			<g>
				<path fill="#999999" d="M120.6,165.9c-0.2-0.2-0.6-0.2-0.8,0.1c-0.2,0.2-0.2,0.6,0.1,0.8c1.7,1.4,4.2,3.6,6.5,6
					c0.1,0.1,0.3,0.2,0.4,0.2c0.1,0,0.3-0.1,0.4-0.2c0.2-0.2,0.2-0.6,0-0.8C124.9,169.6,122.4,167.3,120.6,165.9z"/>
			</g>
			<g>
				<path fill="#999999" d="M118.6,161.4c-0.3-0.2-0.6-0.1-0.8,0.2c-0.2,0.3-0.1,0.6,0.2,0.8c2.8,1.9,8.2,5.8,12.2,9.9
					c0.1,0.1,0.3,0.2,0.4,0.2c0.1,0,0.3-0.1,0.4-0.2c0.2-0.2,0.2-0.6,0-0.8C126.9,167.2,121.4,163.3,118.6,161.4z"/>
			</g>
			<g>
				<path fill="#999999" d="M114.4,123.3c0.1,0.3,0.4,0.5,0.7,0.5c0.3-0.1,0.5-0.4,0.5-0.7l-1.1-5.5c0,0,0-0.1,0-0.1
					c-0.7-1.5-1.6-3.3-2.7-5c0-0.2-0.1-0.3-0.3-0.4c-0.6-0.9-1.3-1.7-2-2.5c0,0-0.1-0.1-0.1-0.1c-0.7-0.6-1.4-1.2-2.3-1.6
					c-0.2-0.1-0.4-0.1-0.5,0c-0.2,0.1-0.3,0.2-0.3,0.4c0,0.1-2.3,14.7,1,27.9c0.1,0.3,0.3,0.4,0.6,0.4c0,0,0.1,0,0.1,0
					c0.3-0.1,0.5-0.4,0.4-0.7c-2.7-11.1-1.5-23.3-1.1-26.6c0.4,0.3,0.8,0.6,1.2,0.9c0,2-0.2,11.6,1.1,19.9c0,0.3,0.3,0.5,0.6,0.5
					c0,0,0.1,0,0.1,0c0.3,0,0.5-0.3,0.5-0.7c-1.1-7.1-1.2-15.2-1.1-18.5c0.4,0.4,0.7,0.9,1.1,1.4c0.1,1.3,0.4,7.2,1.4,13.2
					c0,0.3,0.3,0.5,0.6,0.5c0,0,0.1,0,0.1,0c0.3-0.1,0.5-0.4,0.5-0.7c-0.7-4.2-1.1-8.3-1.2-10.9c0.5,1,1,2,1.4,2.9L114.4,123.3z"/>
			</g>
			<g>
				<path fill="#999999" d="M90.6,92.9c-0.2-0.3-0.5-0.4-0.8-0.2c-0.3,0.2-0.4,0.5-0.2,0.8c1.9,3.1,5.2,4.9,8.8,4.9
					c0.1,0,0.1,0,0.2,0c5.7-0.1,10.3-4.8,10.2-10.6c0-0.3-0.3-0.6-0.6-0.6h0c-0.3,0-0.6,0.3-0.6,0.6c0.1,5.1-4,9.3-9.1,9.4
					c-0.1,0-0.1,0-0.2,0C95.2,97.2,92.3,95.6,90.6,92.9z"/>
			</g>
			<g>
				<path fill="#999999" d="M89.3,97.6c2.5,2.7,5.7,4.2,9.2,4.2c1.7,0,3.4-0.3,5.1-1c5.1-2.1,8.2-7,7.9-12.4c0-0.3-0.3-0.6-0.6-0.5
					c-0.3,0-0.6,0.3-0.5,0.6c0.3,4.9-2.5,9.3-7.2,11.2c-3.7,1.5-9,1.6-13-2.8c-0.2-0.2-0.6-0.3-0.8,0C89.1,97,89.1,97.3,89.3,97.6z"
					/>
			</g>
			<g>
				<path fill="#999999" d="M100,81.9c-0.3-0.3-0.5-0.7-0.8-1.2c-0.8-1.3-1.7-2.9-3.8-3.3c-0.1,0-0.2,0-0.3-0.1c0,0,0,0,0,0
					c0,0,0,0,0,0c0,0,0,0,0,0c0,0,0,0,0,0c0,0,0,0-0.1,0c-0.8,0-1.5,0.6-2,1.6c-0.3,0.7-0.6,1.6-0.6,2.5c0,0.2-0.1,0.4-0.1,0.6
					c0,0.1,0,0.2,0,0.3l0.1,3.2c0,0.3,0.3,0.6,0.6,0.6c0,0,0,0,0,0c0.3,0,0.6-0.3,0.6-0.6l0-1.3c0.5,0.3,1,0.5,1.6,0.5c0,0,0,0,0,0
					c0.5,0,0.9-0.1,1.3-0.4c-0.1,0.2-0.2,0.5-0.3,0.7c-0.3,0.6-0.7,1-1,1c-0.3,0-0.6,0.3-0.6,0.6c0,0.3,0.3,0.6,0.6,0.6h0
					c0.8,0,1.6-0.6,2.1-1.7c0.4-0.9,0.7-2.1,0.7-3.4c0-0.1,0-0.1,0-0.2c0,0,0-0.1,0-0.1c0-0.1,0-0.2,0-0.3c0-0.4-0.1-0.8-0.2-1.2
					c0.2,0.3,0.3,0.6,0.5,0.8c0.3,0.5,0.5,0.9,0.9,1.3c0.9,1.2,2.3,2.9,4.1,2.9c0.4,0,0.7-0.1,1.1-0.2c0.3-0.1,0.5-0.4,0.4-0.7
					c-0.1-0.3-0.4-0.5-0.7-0.4C102.4,84.7,101.3,83.5,100,81.9z M95,78.4c0.1,0,0.2,0,0.3,0c0.3,0.1,0.6,0.4,0.8,0.9
					c-0.3-0.1-0.7-0.2-1.1-0.2c-0.4,0-0.7,0.1-1,0.2C94.3,78.8,94.7,78.5,95,78.4z M96.3,83.2c-0.3,0.3-0.7,0.5-1.2,0.5c0,0,0,0,0,0
					c-0.8,0-1.5-0.6-1.6-1.4c0-0.2,0-0.3,0-0.5c0.2,0.3,0.7,0.6,1.4,0.7c0.8,0.1,1.4,0,1.4-0.4c0-0.3-0.6-0.7-1.4-0.8
					c-0.5-0.1-1,0-1.2,0.1c0.1-0.2,0.2-0.3,0.3-0.5c0.3-0.3,0.7-0.5,1.2-0.5c0,0,0,0,0,0c0.4,0,0.8,0.2,1.1,0.5
					c0.3,0.3,0.5,0.7,0.5,1.1c0,0,0,0.1,0,0.1C96.8,82.5,96.6,82.9,96.3,83.2z"/>
			</g>
			<g>
				<path fill="#999999" d="M104.5,83c0.1,0,0.3-0.1,0.4-0.2c0.2-0.2,0.2-0.6,0-0.8l-1.1-1.2c-0.2-0.2-0.6-0.2-0.8,0
					c-0.2,0.2-0.2,0.6,0,0.8l1.1,1.2C104.2,83,104.4,83,104.5,83z"/>
			</g>
			<g>
				<path fill="#999999" d="M140.6,168.9c0.1,0.1,0.2,0.1,0.4,0.1c0.2,0,0.3-0.1,0.4-0.2c0.2-0.2,0.2-0.6-0.1-0.8
					c-1.7-1.4-4.2-3.6-6.5-6c-0.2-0.2-0.6-0.2-0.8,0c-0.2,0.2-0.2,0.6,0,0.8C136.3,165.3,138.9,167.5,140.6,168.9z"/>
			</g>
			<g>
				<path fill="#999999" d="M142.7,173.5c0.1,0.1,0.2,0.1,0.3,0.1c0.2,0,0.4-0.1,0.5-0.3c0.2-0.3,0.1-0.6-0.2-0.8
					c-2.8-1.9-8.2-5.8-12.2-9.9c-0.2-0.2-0.6-0.2-0.8,0c-0.2,0.2-0.2,0.6,0,0.8C134.4,167.6,139.8,171.5,142.7,173.5z"/>
			</g>
			<g>
				<path fill="#999999" d="M146.9,211.5c-0.1-0.3-0.4-0.5-0.7-0.5c-0.3,0.1-0.5,0.4-0.5,0.7l1.1,5.5c0,0,0,0.1,0,0.1
					c0.7,1.5,1.6,3.3,2.7,5c0,0.2,0.1,0.3,0.3,0.4c0.6,0.9,1.3,1.7,2,2.5c0,0,0.1,0.1,0.1,0.1c0.7,0.6,1.4,1.2,2.3,1.6
					c0.1,0,0.2,0.1,0.3,0.1c0.1,0,0.2,0,0.3-0.1c0.2-0.1,0.3-0.2,0.3-0.4c0-0.1,2.3-14.7-1-27.9c-0.1-0.3-0.4-0.5-0.7-0.4
					c-0.3,0.1-0.5,0.4-0.4,0.7c2.7,11.1,1.5,23.3,1.1,26.6c-0.4-0.3-0.8-0.6-1.2-0.9c0-2,0.2-11.6-1.1-19.9c0-0.3-0.3-0.5-0.7-0.5
					c-0.3,0-0.5,0.3-0.5,0.7c1.1,7.1,1.2,15.2,1.1,18.5c-0.4-0.4-0.7-0.9-1.1-1.4c-0.1-1.3-0.4-7.2-1.4-13.2
					c-0.1-0.3-0.4-0.5-0.7-0.5c-0.3,0.1-0.5,0.4-0.5,0.7c0.7,4.2,1.1,8.3,1.2,10.9c-0.5-1-1-2-1.4-2.9L146.9,211.5z"/>
			</g>
			<g>
				<path fill="#999999" d="M170.7,242c0.2,0.3,0.5,0.4,0.8,0.2c0.3-0.2,0.4-0.5,0.2-0.8c-2-3.1-5.3-4.9-9-4.9
					c-2.8,0-5.4,1.2-7.3,3.2c-1.9,2-3,4.6-2.9,7.4c0,0.3,0.3,0.6,0.6,0.6h0c0.3,0,0.6-0.3,0.6-0.6c0-2.5,0.9-4.8,2.6-6.6
					c1.7-1.8,4-2.8,6.5-2.8c0.1,0,0.1,0,0.2,0C166,237.7,169,239.3,170.7,242z"/>
			</g>
			<g>
				<path fill="#999999" d="M171.9,237.3c-3.7-4.1-9.1-5.3-14.3-3.1c-5.1,2.1-8.2,7-7.9,12.4c0,0.3,0.3,0.5,0.6,0.5c0,0,0,0,0,0
					c0.3,0,0.6-0.3,0.5-0.6c-0.3-4.9,2.5-9.3,7.2-11.2c3.7-1.5,9-1.6,13,2.8c0.2,0.2,0.6,0.3,0.8,0
					C172.1,237.9,172.1,237.5,171.9,237.3z"/>
			</g>
			<g>
				<path fill="#999999" d="M161.2,253c0.3,0.3,0.5,0.7,0.8,1.2c0.8,1.3,1.7,2.8,3.6,3.3c0.2,0.1,0.4,0.1,0.6,0.1c0,0,0,0,0,0
					c0.8,0,1.6-0.6,2.1-1.7c0.3-0.7,0.6-1.6,0.6-2.5c0-0.2,0.1-0.4,0.1-0.6c0-0.1,0-0.2,0-0.3l-0.1-3.2c0-0.3-0.3-0.6-0.6-0.6
					c-0.3,0-0.6,0.3-0.6,0.6l0,1.3c-0.5-0.3-1-0.5-1.6-0.5c0,0,0,0,0,0c-0.5,0-0.9,0.1-1.3,0.4c0.1-0.2,0.2-0.5,0.3-0.7
					c0.3-0.6,0.7-1,1-1c0.3,0,0.6-0.3,0.6-0.6c0-0.3-0.3-0.6-0.6-0.6h0c-0.8,0-1.6,0.6-2.1,1.7c-0.4,0.9-0.7,2.1-0.7,3.4
					c0,0.1,0,0.1,0,0.2c0,0,0,0.1,0,0.1c0,0.1,0,0.2,0,0.3c0,0.4,0.1,0.8,0.2,1.2c-0.2-0.3-0.3-0.6-0.5-0.8
					c-0.3-0.5-0.5-0.9-0.9-1.3c-1.1-1.4-2.8-3.5-5.3-2.7c-0.3,0.1-0.5,0.4-0.4,0.7c0.1,0.3,0.4,0.5,0.7,0.4
					C158.8,250.2,159.9,251.4,161.2,253z M166.2,256.4c-0.1,0-0.2,0-0.2,0c-0.3-0.1-0.6-0.4-0.8-0.9c0.3,0.1,0.7,0.2,1,0.2
					c0,0,0,0,0,0c0.4,0,0.7-0.1,1-0.2C166.9,256,166.5,256.4,166.2,256.4z M164.9,251.7c0.3-0.3,0.7-0.5,1.2-0.5c0,0,0,0,0,0
					c0.4,0,0.8,0.2,1.1,0.5c0.3,0.2,0.4,0.6,0.5,0.9c0,0.2,0,0.3,0,0.5c-0.2-0.3-0.7-0.6-1.4-0.7c-0.8-0.1-1.4,0-1.4,0.4
					c0,0.3,0.6,0.7,1.4,0.8c0.5,0.1,1,0,1.2-0.1c-0.1,0.2-0.2,0.3-0.3,0.5c-0.3,0.3-0.7,0.5-1.2,0.5c-0.4,0-0.9-0.2-1.2-0.5
					c-0.3-0.3-0.5-0.7-0.5-1.1c0,0,0-0.1,0-0.1C164.5,252.4,164.6,252,164.9,251.7z"/>
			</g>
			<g>
				<path fill="#999999" d="M156.3,252c-0.2,0.2-0.2,0.6,0,0.8l1.1,1.2c0.1,0.1,0.3,0.2,0.4,0.2c0.1,0,0.3-0.1,0.4-0.2
					c0.2-0.2,0.2-0.6,0-0.8l-1.1-1.2C156.9,251.8,156.5,251.8,156.3,252z"/>
			</g>
			<g>
				<path fill="#999999" d="M192.2,156.1c-0.3,0-0.6,0.2-0.6,0.5c-0.6,6.3-5.8,18.2-7.9,22.8c-0.1-0.9-0.2-1.8-0.3-2.7
					c0.6-1.4,4.7-11.4,5.5-19.7c0-0.3-0.2-0.6-0.5-0.6c-0.3,0-0.6,0.2-0.6,0.5c-0.6,6.4-3.3,13.9-4.7,17.5c-0.1-1-0.3-2.1-0.4-3.1
					c2.1-6.5,2.7-11.4,2.8-14.4c0-0.3-0.2-0.6-0.6-0.6c-0.3,0-0.6,0.2-0.6,0.6c-0.1,2.6-0.5,6.6-2.1,11.8c-0.2-1.3-0.4-2.7-0.7-4.1
					c0.4-3.1,0.7-5.9,0.6-8.3c0-0.3-0.3-0.6-0.6-0.6h0c-0.3,0-0.6,0.3-0.6,0.6c0,1.3-0.1,2.8-0.2,4.3c-0.3-1.4-0.5-2.8-0.8-4.3
					c0,0,0,0,0,0c-0.9-4.8-2-9.6-3-14.2c0,0,0,0,0,0c-0.5-2.2-1-4.3-1.4-6.4c-0.1-0.4-0.2-0.9-0.3-1.3c0.2-0.8,2.4-9.2,2.7-15.9
					c0-0.3-0.2-0.6-0.6-0.6c-0.3,0-0.6,0.2-0.6,0.6c-0.2,4.7-1.4,10.3-2.1,13.3c-0.3-1.2-0.5-2.3-0.7-3.4c0.5-3.4,1-8.4,0.7-13
					c0-0.3-0.3-0.6-0.6-0.5c-0.3,0-0.6,0.3-0.5,0.6c0.2,3.2,0,6.6-0.3,9.5c-0.6-2.7-1-5.1-1.4-7.3c-0.4-2.6-0.8-4.9-1.1-7.2
					c-0.3-2.5,1.8-6,4.4-10.5c3.8-6.6,9-15.5,9.8-26.6c0-0.3-0.2-0.6-0.5-0.6c-0.3,0-0.6,0.2-0.6,0.5c-0.7,10.8-5.8,19.7-9.6,26.1
					c-1.6,2.8-3,5.2-3.8,7.3c-0.1-0.9-0.2-1.8-0.3-2.6c2-3.4,10.8-19,11-29.4c0-0.3-0.3-0.6-0.6-0.6c0,0,0,0,0,0
					c-0.3,0-0.6,0.3-0.6,0.6c-0.1,9-7.1,22.3-10,27.4c-0.1-0.8-0.1-1.6-0.2-2.3c1-2.1,7.4-15.6,7.4-23.7c0-0.3-0.3-0.6-0.6-0.6h0
					c-0.3,0-0.6,0.3-0.6,0.6c0,6.6-4.3,16.8-6.4,21.3c0-0.4,0-0.8-0.1-1.2c0-0.5-0.1-0.9-0.2-1.3c0.5-1.2,4.2-10.9,4.1-17.7
					c0-0.3-0.3-0.6-0.6-0.6c-0.3,0-0.6,0.3-0.6,0.6c0.1,5.4-2.4,12.9-3.5,16c-0.2-0.5-0.5-0.9-0.9-1.3c0.4-1.3,2.3-7.9,2.2-13.8
					c0-0.3-0.3-0.6-0.6-0.6h0c-0.3,0-0.6,0.3-0.6,0.6c0.1,5-1.4,10.7-2,12.8c-0.3-0.3-0.6-0.5-0.9-0.7c0.2-1.5,1-7.8,1-11.5
					c0-0.3-0.3-0.6-0.6-0.6c0,0,0,0,0,0c-0.3,0-0.6,0.3-0.6,0.6c0.1,3.4-0.6,9-0.9,11c-0.4-0.2-0.8-0.3-1.2-0.4
					c0-1.7,0.2-8.1,0.2-10.4c0-0.3-0.3-0.6-0.6-0.6c-0.3,0-0.6,0.3-0.6,0.6c0,2.3-0.1,8.4-0.2,10.3c-0.2,0-0.4,0-0.6,0
					c-0.2,0-0.4,0-0.5,0c-0.1-1.9-0.5-8-0.5-10.2c0-0.3-0.3-0.6-0.6-0.6c-0.3,0-0.6,0.3-0.6,0.6c0,2.3,0.4,8.7,0.5,10.4
					c-0.4,0.1-0.8,0.2-1.1,0.4c-0.3-2-1.2-7.5-1.3-10.9c0-0.3-0.3-0.6-0.6-0.6c0,0,0,0,0,0c-0.3,0-0.6,0.3-0.6,0.6
					c0.1,3.8,1.1,9.9,1.3,11.5c-0.3,0.2-0.6,0.4-0.9,0.7c-0.7-2.1-2.3-7.7-2.4-12.7c0-0.3-0.3-0.6-0.6-0.6c-0.3,0-0.6,0.3-0.6,0.6
					c0.1,5.8,2.1,12.2,2.6,13.6c-0.3,0.4-0.6,0.9-0.8,1.4c-1.2-3.1-4-10.4-4-15.8c0-0.3-0.3-0.6-0.6-0.6c-0.3,0-0.6,0.3-0.6,0.6
					c0.1,6.7,4,16,4.7,17.5c-0.1,0.5-0.2,1-0.1,1.6c0,0.3,0,0.7,0,1c-2.2-4.5-7-14.7-7.1-21.2c0-0.3-0.3-0.6-0.6-0.6
					c-0.3,0-0.6,0.3-0.6,0.6c0.1,8.5,7.4,22.3,8.3,23.9c0,0.9,0,1.7,0,2.5c-3-4.9-11-18.8-11.2-28c0-0.3-0.3-0.6-0.6-0.6
					c-0.3,0-0.6,0.3-0.6,0.6c0.1,4.9,2.2,11.5,6.3,19.6c2.7,5.4,5.5,9.8,6,10.6c0,0.3,0,0.7,0,0.9c0.1,4.8-2.2,11.1-5,18.4
					c-0.1-0.2-0.1-0.5-0.2-0.7c-0.3-1.4-0.6-2.9-1.1-3.8c-0.2-0.3-0.5-0.4-0.8-0.2c-0.3,0.2-0.4,0.5-0.2,0.8c0.4,0.8,0.7,2.2,1,3.5
					c0.2,0.9,0.4,1.7,0.6,2.3c-0.2,0.6-0.4,1.1-0.7,1.7c-0.2-0.5-0.3-1-0.5-1.5c-0.6-1.8-1.2-3.7-1.8-4.8c-0.2-0.3-0.5-0.4-0.8-0.2
					c-0.3,0.2-0.4,0.5-0.2,0.8c0.5,1,1.1,2.8,1.7,4.6c0.3,1,0.7,2,1,2.8c-0.2,0.4-0.3,0.8-0.5,1.2c-1-2-3-6.1-3.8-7.6
					c-0.2-0.3-0.5-0.4-0.8-0.2c-0.3,0.2-0.4,0.5-0.2,0.8c1,1.8,3.8,7.6,4.3,8.6c-0.2,0.5-0.3,0.9-0.5,1.4c-3.5-6-4.9-8.3-5.3-9.1
					c-0.2-0.3-0.5-0.4-0.8-0.2c-0.3,0.2-0.4,0.5-0.2,0.8c0.7,1.4,2.7,4.7,5.9,10c-0.1,0.4-0.3,0.8-0.4,1.1
					c-1.6-2.1-5.6-7.4-7.2-10.4c-0.2-0.3-0.5-0.4-0.8-0.2c-0.3,0.2-0.4,0.5-0.2,0.8c1.9,3.4,6.8,9.8,7.8,11.1
					c-0.1,0.4-0.2,0.7-0.4,1.1c-1.8-1.8-6.9-7.2-9.4-11.8c-0.2-0.3-0.5-0.4-0.8-0.2c-0.3,0.2-0.4,0.5-0.2,0.8
					c2.8,5.2,8.7,11.2,10,12.4c-0.1,0.3-0.2,0.7-0.3,1c-2.2-1.9-9.3-8-12-13.1c-0.2-0.3-0.5-0.4-0.8-0.2c-0.3,0.2-0.4,0.5-0.2,0.8
					c3.1,5.7,11,12.4,12.7,13.8c-1.9,6.4-3.5,13.3-4.1,20.8c-0.5-0.7-1-1.2-1.8-1.2c0,0,0,0,0,0c-0.3,0-0.6,0.3-0.6,0.6
					c0,0.3,0.3,0.6,0.6,0.6c0,0,0,0,0,0c0.7,0,1.2,1.3,1.7,2.5c0.1,0.2,0.3,0.4,0.5,0.4c0,0,0,0,0,0c0.3,0,0.5-0.2,0.6-0.5
					c0.8-15.1,5.9-28.4,10-39.1c3.1-8,5.7-14.9,5.6-20.2c0-1.3-0.1-3.4-0.1-5.8c0,0,0-0.1,0-0.1c0-1.1,0-2.3-0.1-3.5
					c0-0.5,0-0.9,0.1-1.4c0-0.1,0-0.1,0-0.2c0.3-1.1,0.8-2.1,1.6-2.9c1.2-1.2,2.7-1.9,4.4-1.9c0,0,0.1,0,0.1,0c3.3,0,6.1,2.7,6.2,6
					c0,0.9,0.1,1.9,0.2,3.1c-1.6-2-3.9-4.4-6.4-5.3c-0.3-0.1-0.6,0.1-0.7,0.4c-0.1,0.3,0.1,0.6,0.4,0.7c2.9,1,5.8,4.6,7,6.4
					c0.1,0.8,0.1,1.7,0.2,2.5c0,0,0,0,0,0.1c0,0.5,0.1,1,0.2,1.6c-0.5-0.6-1.2-1.4-1.9-2.2c-0.1-1-0.3-2.1-0.4-3.2
					c0-0.3-0.3-0.5-0.6-0.5c-0.3,0-0.5,0.3-0.5,0.6c0.1,0.6,0.1,1.2,0.2,1.7c-0.8-0.7-1.7-1.4-2.5-1.9c-0.1-0.9-0.2-1.8-0.3-2.7
					c0-0.3-0.3-0.5-0.6-0.5c-0.3,0-0.5,0.3-0.5,0.6c0.1,1,0.2,2,0.4,3c0,0,0,0,0,0c0,0.1,0,0.1,0.1,0.2c0,0,0,0,0,0
					c0,0,0.1,0.1,0.1,0.1c0,0,0,0,0,0c0,0,0.1,0.1,0.1,0.1c3.2,1.7,6.4,6.2,6.8,6.8c0.1,0.9,0.2,1.8,0.3,2.7c0,0,0,0,0,0
					c0,0,0,0,0,0c0,0.3,0.1,0.6,0.1,1c-0.5-0.6-1.1-1.4-1.8-2.1c-0.1-0.8-0.2-1.7-0.3-2.5c0-0.3-0.3-0.5-0.7-0.5
					c-0.3,0-0.5,0.3-0.5,0.7c0,0.4,0.1,0.7,0.1,1.1c-0.8-0.7-1.6-1.3-2.5-1.9c-0.1-0.9-0.2-1.8-0.3-2.7c0-0.3-0.3-0.5-0.7-0.5
					c-0.3,0-0.5,0.3-0.5,0.7c0.1,1,0.3,2,0.4,3c0,0,0,0,0,0c0,0.1,0,0.1,0.1,0.2c0,0,0,0,0,0c0,0.1,0.1,0.1,0.1,0.1c0,0,0,0,0,0
					c0,0,0.1,0,0.1,0.1c3.8,2.2,6.5,6.3,6.9,6.9c0.2,1.2,0.4,2.4,0.6,3.7c0,0.2,0.1,0.3,0.1,0.5c-0.5-0.6-1.2-1.3-2-2.1
					c-0.1-1-0.3-2-0.4-3.1c0-0.3-0.3-0.5-0.7-0.5c-0.3,0-0.5,0.3-0.5,0.7c0.1,0.5,0.1,1.1,0.2,1.6c-0.9-0.8-1.7-1.6-2.6-2.3
					c-0.1-0.9-0.2-1.8-0.4-2.8c0-0.3-0.3-0.5-0.7-0.5c-0.3,0-0.5,0.3-0.5,0.7c0.1,1,0.3,2,0.4,3c0,0,0,0,0,0c0,0,0,0,0,0
					c0,0,0,0,0,0c0,0.1,0,0.1,0.1,0.2c0,0,0,0,0,0c0,0,0.1,0.1,0.1,0.1c0,0,0,0,0,0c0,0,0,0,0,0c3.1,2.3,6.6,6.5,7.2,7.2
					c0.3,1.5,0.6,3.1,1,4.8c-0.6-0.7-1.4-1.6-2.3-2.5c-0.2-1-0.3-2-0.5-3.1c0-0.3-0.3-0.5-0.7-0.5c-0.3,0-0.5,0.3-0.5,0.7
					c0.1,0.5,0.2,1,0.2,1.5c-0.8-0.8-1.7-1.6-2.6-2.3c-0.1-1-0.3-2-0.5-3.2c0-0.3-0.3-0.5-0.7-0.5c-0.3,0-0.5,0.3-0.5,0.7
					c0.1,0.7,0.2,1.3,0.3,2c-0.1-0.1-0.2-0.2-0.4-0.3c-0.3-0.2-0.6-0.1-0.8,0.1c-0.2,0.3-0.1,0.6,0.1,0.8c4.4,3.1,8.6,8.1,9.2,8.9
					c0.3,1.5,0.7,3.2,1.1,4.8c-0.7-0.8-1.7-1.9-2.8-3c-0.2-0.9-0.3-1.9-0.5-3c-0.1-0.3-0.4-0.5-0.7-0.5c-0.3,0.1-0.5,0.4-0.5,0.7
					c0.1,0.5,0.2,1,0.2,1.4c-0.8-0.8-1.7-1.6-2.7-2.3c-0.2-1-0.3-2-0.5-3.1c-0.1-0.3-0.4-0.5-0.7-0.5c-0.3,0.1-0.5,0.3-0.5,0.7
					c0.1,0.7,0.2,1.3,0.3,1.9c-0.3-0.2-0.7-0.5-1-0.7c-0.3-0.2-0.6-0.1-0.8,0.2c-0.2,0.3-0.1,0.6,0.2,0.8c0.7,0.5,1.4,1,2,1.5
					c0,0,0.1,0.1,0.1,0.1c4.3,3.4,7.8,7.8,8.3,8.5c0.1,0.3,0.1,0.5,0.2,0.8c0.3,1.3,0.6,2.7,0.9,4.1c-0.8-0.9-1.8-2.1-3-3.3
					c-0.2-1.1-0.5-2.2-0.7-3.3c-0.1-0.3-0.4-0.5-0.7-0.5c-0.3,0.1-0.5,0.4-0.5,0.7c0.1,0.5,0.2,1,0.3,1.5c-0.9-0.9-1.8-1.7-2.8-2.6
					c-0.2-1-0.4-2.1-0.6-3.2c-0.1-0.3-0.4-0.5-0.7-0.5c-0.3,0.1-0.5,0.4-0.5,0.7c0.1,0.6,0.2,1.3,0.3,1.9c-0.6-0.4-1.2-0.9-1.8-1.2
					c-0.3-0.2-0.6-0.1-0.8,0.2c-0.2,0.3-0.1,0.6,0.2,0.8c5.2,3.1,10.9,10.3,11.6,11.2c0.3,1.4,0.6,2.9,0.9,4.3
					c-0.8-0.9-1.7-2.1-2.9-3.4c-0.2-0.9-0.4-1.8-0.6-2.7l0-0.1c-0.1-0.3-0.4-0.5-0.7-0.4c-0.3,0.1-0.5,0.4-0.4,0.7l0,0.1
					c0.1,0.3,0.1,0.5,0.2,0.8c-0.9-0.9-1.9-1.9-3-2.7c-0.2-0.9-0.4-1.7-0.6-2.7c-0.1-0.3-0.4-0.5-0.7-0.4c-0.3,0.1-0.5,0.4-0.4,0.7
					c0.1,0.4,0.2,0.9,0.3,1.3c-0.9-0.7-1.9-1.3-2.8-1.8c-0.3-0.2-0.6,0-0.8,0.2c-0.2,0.3,0,0.6,0.2,0.8c6,3.2,12.2,11.6,12.8,12.3
					c0.3,1.5,0.6,3,0.9,4.5c-0.7-1-1.7-2.2-2.9-3.4c-0.1-0.8-0.3-1.4-0.4-2.1c-0.1-0.3-0.1-0.7-0.2-1c-0.1-0.3-0.4-0.5-0.7-0.5
					c-0.3,0.1-0.5,0.4-0.5,0.7c0.1,0.4,0.1,0.7,0.2,1c0,0.1,0,0.1,0,0.2c-1-1-2-2-3.1-3c-0.2-1-0.4-2-0.6-3.1
					c-0.1-0.3-0.4-0.5-0.7-0.5c-0.3,0.1-0.5,0.4-0.5,0.7c0.1,0.6,0.2,1.2,0.3,1.7c-1.3-1-2.6-1.9-3.9-2.5c-0.3-0.1-0.6,0-0.8,0.3
					c-0.1,0.3,0,0.6,0.3,0.8c6.5,3.2,13.1,12.4,13.9,13.4c0.3,1.3,0.5,2.7,0.8,4c-0.8-1-1.8-2.2-3-3.6c-0.2-1-0.3-1.9-0.5-2.8
					c-0.1-0.3-0.4-0.5-0.7-0.5c-0.3,0.1-0.5,0.4-0.5,0.7c0.1,0.3,0.1,0.7,0.2,1c-1-1-2.1-2.1-3.2-3.1c-0.1-1-0.3-1.9-0.4-2.8
					c-0.1-0.3-0.3-0.5-0.7-0.5c-0.3,0.1-0.5,0.4-0.5,0.7c0.1,0.5,0.1,0.9,0.2,1.4c-1-0.9-2.1-1.7-3.2-2.4c-0.1-0.9-0.3-1.8-0.5-2.7
					c-0.1-0.3-0.4-0.5-0.7-0.5c-0.3,0.1-0.5,0.4-0.5,0.7c0.1,0.6,0.2,1.1,0.3,1.7c-0.1,0-0.1-0.1-0.2-0.1c-0.3-0.2-0.6-0.1-0.8,0.2
					c-0.2,0.3-0.1,0.6,0.2,0.8c7.4,4.2,14.1,13.3,14.8,14.3c0.3,1.5,0.5,3,0.7,4.4c-0.8-1-1.9-2.4-3.2-3.9c-0.1-1-0.3-2-0.4-2.9
					c0-0.3-0.3-0.5-0.7-0.5c-0.3,0-0.5,0.3-0.5,0.7c0.1,0.4,0.1,0.8,0.2,1.2c-1.1-1.2-2.2-2.3-3.4-3.4c-0.1-1-0.2-1.9-0.4-2.8
					c0-0.3-0.3-0.5-0.7-0.5c-0.3,0-0.5,0.3-0.5,0.7c0.1,0.5,0.1,0.9,0.2,1.4c-1-0.9-2.1-1.7-3.2-2.4c-0.1-0.9-0.3-1.9-0.4-2.8
					c0-0.3-0.3-0.5-0.7-0.5c-0.3,0-0.5,0.3-0.5,0.7c0.1,0.6,0.2,1.3,0.3,1.9c-0.3-0.2-0.7-0.3-1-0.5c-0.3-0.1-0.6,0-0.8,0.3
					c-0.1,0.3,0,0.6,0.3,0.8c6.7,3,14.8,13.9,15.7,15.2c0.1,0.4,0.1,0.8,0.2,1.1c0,0.1,0,0.3,0.1,0.4c0.1,0.8,0.2,1.7,0.3,2.5
					c-0.8-1-1.9-2.4-3.3-3.9c-0.1-1-0.3-1.9-0.4-2.8c0-0.3-0.3-0.5-0.7-0.5c-0.3,0-0.5,0.3-0.5,0.7c0.1,0.4,0.1,0.7,0.2,1.1
					c-1.1-1.2-2.3-2.4-3.6-3.5c-0.1-1-0.2-2-0.3-2.9c0-0.3-0.3-0.5-0.6-0.5c-0.3,0-0.5,0.3-0.5,0.6c0.1,0.5,0.1,1.1,0.2,1.6
					c-1-0.9-2.1-1.7-3.2-2.5c-0.1-1-0.2-1.9-0.3-2.9c0-0.3-0.3-0.5-0.6-0.5c-0.3,0-0.5,0.3-0.5,0.6c0.1,0.6,0.1,1.2,0.2,1.9
					c-0.5-0.3-1-0.6-1.5-0.9c-0.3-0.2-0.6-0.1-0.8,0.2c-0.2,0.3-0.1,0.6,0.2,0.8c8.5,4.9,15.4,14.4,16.4,15.8c0,0.1,0,0.2,0,0.3
					c0,0.1,0,0.1,0,0.2c0.1,1.2,0.3,2.5,0.4,3.7c-0.7-1-1.8-2.3-3.2-3.9c-0.1-0.8-0.2-1.5-0.3-2.3l-0.1-0.8c0-0.3-0.3-0.5-0.6-0.5
					c-0.3,0-0.5,0.3-0.5,0.6l0.1,0.8c0,0.2,0.1,0.4,0.1,0.6c-1.1-1.2-2.4-2.5-3.8-3.7c-0.1-0.5-0.1-1.1-0.2-1.7l-0.1-1.4
					c0-0.3-0.3-0.6-0.6-0.5c-0.3,0-0.6,0.3-0.5,0.6l0.1,1.4c0,0.1,0,0.3,0,0.4c-1-0.9-2.1-1.8-3.3-2.6c-0.1-1-0.2-1.9-0.3-2.9
					c0-0.3-0.3-0.6-0.6-0.5c-0.3,0-0.6,0.3-0.5,0.6c0.1,0.6,0.1,1.3,0.2,1.9c-0.6-0.4-1.3-0.9-1.9-1.3c-0.3-0.2-0.6-0.1-0.8,0.2
					c-0.2,0.3-0.1,0.6,0.2,0.8c9.4,5.8,16.1,15.2,16.8,16.3c0.1,1.2,0.2,2.4,0.2,3.6c0,0.1,0,0.2,0,0.3c-0.7-1-1.7-2.3-3-3.8
					c-0.1-0.9-0.2-1.8-0.2-2.7c0-0.3-0.3-0.6-0.6-0.5c-0.3,0-0.6,0.3-0.5,0.6c0,0.4,0.1,0.8,0.1,1.1c-1.1-1.3-2.4-2.6-3.8-3.9
					c-0.1-0.8-0.1-1.7-0.2-2.6c0-0.3-0.3-0.6-0.6-0.5c-0.3,0-0.6,0.3-0.5,0.6c0,0.5,0.1,0.9,0.1,1.3c-1.1-1-2.3-1.9-3.5-2.7
					c0-0.8-0.1-1.7-0.2-2.5c0-0.3-0.3-0.6-0.6-0.5c-0.3,0-0.6,0.3-0.5,0.6c0,0.6,0.1,1.1,0.1,1.6c-0.7-0.5-1.5-0.9-2.2-1.4
					c-0.3-0.2-0.6-0.1-0.8,0.2c-0.2,0.3-0.1,0.6,0.2,0.8c9.1,5,16.1,15.1,17,16.4c0,1.3,0.1,2.6,0.1,3.8c-0.7-0.9-1.6-2.2-2.8-3.7
					c0-0.9-0.1-1.8-0.1-2.7c0-0.3-0.3-0.6-0.6-0.5c-0.3,0-0.6,0.3-0.5,0.6c0,0.4,0,0.8,0.1,1.2c-1.1-1.3-2.4-2.7-3.9-4.1
					c0-0.9-0.1-1.7-0.2-2.6c0-0.3-0.3-0.6-0.6-0.5c-0.3,0-0.6,0.3-0.5,0.6c0,0.5,0.1,1,0.1,1.4c-1.2-1-2.4-2-3.7-2.9
					c0-0.8,0-1.7-0.1-2.5c0-0.3-0.3-0.6-0.6-0.6c-0.3,0-0.6,0.3-0.6,0.6c0,0.6,0,1.1,0.1,1.7c-0.8-0.5-1.6-1-2.4-1.4
					c-0.3-0.1-0.6,0-0.8,0.3c-0.1,0.3,0,0.6,0.3,0.8c8.9,4.4,16.1,15,16.9,16.3c0,1.2-0.1,2.3-0.1,3.4c-0.6-0.8-1.5-2-2.6-3.3
					c0-0.8,0-1.7,0-2.6c0-0.3-0.3-0.6-0.6-0.6c0,0,0,0,0,0c-0.3,0-0.6,0.3-0.6,0.6c0,0.4,0,0.8,0,1.2c-1.1-1.3-2.4-2.7-3.8-4
					c0-0.9,0-1.7-0.1-2.6c0-0.3-0.3-0.6-0.6-0.6c-0.3,0-0.6,0.3-0.6,0.6c0,0.5,0,1,0,1.5c-1.2-1.1-2.5-2.1-3.8-3.1
					c0-0.8,0-1.6,0-2.5c0-0.3-0.3-0.6-0.6-0.6c0,0,0,0,0,0c-0.3,0-0.6,0.3-0.6,0.6c0,0.6,0,1.1,0,1.6c-0.8-0.5-1.6-1-2.5-1.5
					c-0.3-0.2-0.6,0-0.8,0.2c-0.2,0.3,0,0.6,0.2,0.8c8.9,4.8,15.8,14.8,16.7,16.1c-0.1,1.2-0.2,2.3-0.3,3.5c-0.6-0.8-1.4-2-2.4-3.3
					c0.1-0.8,0.1-1.6,0.1-2.3c0-0.3-0.2-0.6-0.6-0.6c-0.3,0-0.6,0.2-0.6,0.6c0,0.4,0,0.7,0,1.1c-1.1-1.3-2.3-2.6-3.7-4
					c0-0.8,0-1.6,0-2.4c0-0.3-0.3-0.6-0.6-0.6h0c-0.3,0-0.6,0.3-0.6,0.6c0,0.4,0,0.9,0,1.3c-1.2-1.1-2.5-2.1-3.9-3.1
					c0-0.8,0-1.6,0-2.4c0-0.3-0.3-0.6-0.6-0.6h0c-0.3,0-0.6,0.3-0.6,0.6c0,0.6,0,1.1,0,1.7c-0.8-0.5-1.6-1-2.4-1.4
					c-0.3-0.1-0.6,0-0.8,0.3c-0.1,0.3,0,0.6,0.3,0.8c9.6,4.9,15.5,14.4,16.2,15.6c-0.1,1.1-0.2,2.1-0.4,3.1c-0.5-0.8-1.3-1.8-2.3-3
					c0.1-0.8,0.2-1.5,0.3-2.3c0-0.3-0.2-0.6-0.5-0.6c-0.3,0-0.6,0.2-0.6,0.5c0,0.4-0.1,0.8-0.1,1.2c-1-1.2-2.2-2.5-3.6-3.8
					c0.1-0.8,0.1-1.6,0.2-2.4c0-0.3-0.2-0.6-0.5-0.6c-0.3,0-0.6,0.2-0.6,0.5c0,0.5-0.1,1-0.1,1.4c-1.2-1.1-2.5-2.2-3.9-3.2
					c0-0.7,0.1-1.4,0.1-2.1c0-0.3-0.2-0.6-0.6-0.6c-0.3,0-0.6,0.2-0.6,0.6c0,0.5,0,0.9-0.1,1.4c-0.8-0.5-1.5-1-2.3-1.4
					c-0.3-0.1-0.6,0-0.8,0.2c-0.1,0.3,0,0.6,0.2,0.8c7.9,4.1,14.7,13.7,15.7,15.1c-0.2,1.1-0.4,2.2-0.6,3.3
					c-0.5-0.8-1.3-1.9-2.3-3.1c0.1-0.7,0.3-1.5,0.4-2.2c0.1-0.3-0.2-0.6-0.5-0.7c-0.3-0.1-0.6,0.2-0.7,0.5c-0.1,0.4-0.1,0.8-0.2,1.2
					c-1-1.2-2.1-2.5-3.4-3.8c0.1-0.7,0.2-1.4,0.2-2c0-0.3-0.2-0.6-0.5-0.6c-0.3,0-0.6,0.2-0.6,0.5c0,0.4-0.1,0.8-0.1,1.1
					c-1.2-1.2-2.5-2.2-3.7-3.1c0-0.7,0.1-1.3,0.1-2c0-0.3-0.2-0.6-0.5-0.6c-0.3,0-0.6,0.2-0.6,0.5c0,0.5-0.1,1-0.1,1.4
					c-0.7-0.4-1.5-0.8-2.2-1c-0.3-0.1-0.6,0.1-0.7,0.4c-0.1,0.3,0.1,0.6,0.4,0.7c6.1,1.8,13.7,12.7,14.8,14.3
					c-0.2,1-0.4,2.1-0.7,3.1c-0.5-0.7-1.4-1.8-2.4-3c0-0.2,0.1-0.4,0.1-0.6c0.1-0.5,0.2-1,0.4-1.6c0.1-0.3-0.1-0.6-0.4-0.7
					c-0.3-0.1-0.6,0.1-0.7,0.4c-0.1,0.4-0.2,0.9-0.3,1.3c-0.9-1.1-2-2.3-3.1-3.4c0.1-0.8,0.2-1.5,0.4-2.3c0-0.3-0.2-0.6-0.5-0.7
					c-0.3,0-0.6,0.2-0.7,0.5c-0.1,0.5-0.2,1-0.2,1.5c-1.1-1.1-2.3-2.1-3.5-2.9c0.1-0.7,0.1-1.5,0.2-2.3c0-0.3-0.2-0.6-0.5-0.6
					c-0.3,0-0.6,0.2-0.6,0.5c-0.1,0.6-0.1,1.1-0.2,1.7c-0.7-0.4-1.3-0.7-1.9-1c-0.3-0.1-0.6,0-0.8,0.3c-0.1,0.3,0,0.6,0.3,0.8
					c5.7,2.2,12.9,12,14,13.6c-0.3,1.1-0.5,2.2-0.8,3.2c-0.5-0.7-1.3-1.8-2.3-3c0.1-0.6,0.3-1.1,0.4-1.7l0.1-0.5
					c0.1-0.3-0.1-0.6-0.4-0.7c-0.3-0.1-0.6,0.1-0.7,0.4l-0.1,0.5c-0.1,0.3-0.1,0.6-0.2,0.8c-0.9-1-1.9-2.1-2.9-3.2
					c0.1-0.8,0.3-1.5,0.4-2.2c0.1-0.3-0.2-0.6-0.5-0.7c-0.3-0.1-0.6,0.2-0.7,0.5c-0.1,0.5-0.2,1-0.3,1.5c-1.1-1-2.1-1.9-3.2-2.6
					c0.1-0.7,0.2-1.5,0.3-2.3c0-0.3-0.2-0.6-0.5-0.6c-0.3,0-0.6,0.2-0.6,0.5c-0.1,0.6-0.1,1.1-0.2,1.7c-0.5-0.3-1.1-0.6-1.6-0.8
					c-0.3-0.1-0.6,0-0.8,0.3c-0.1,0.3,0,0.6,0.3,0.8c0.7,0.3,1.4,0.7,2.2,1.2c0,0,0,0,0,0c4.8,3.2,10,10.2,11,11.5
					c-0.3,1-0.5,2-0.8,2.9c-0.5-0.7-1.3-1.6-2.2-2.8c0.1-0.7,0.3-1.4,0.4-2c0.1-0.3-0.1-0.6-0.4-0.7c-0.3-0.1-0.6,0.1-0.7,0.4
					c-0.1,0.4-0.2,0.8-0.3,1.2c-0.8-1-1.8-2-2.8-3l0.4-2c0.1-0.3-0.1-0.6-0.5-0.7c-0.3-0.1-0.6,0.1-0.7,0.5l-0.2,1.3
					c-1-0.9-2-1.8-3-2.5c0.1-0.6,0.2-1.3,0.3-2c0-0.3-0.2-0.6-0.5-0.7c-0.3,0-0.6,0.2-0.7,0.5c-0.1,0.5-0.1,1-0.2,1.5
					c-0.4-0.2-0.8-0.4-1.1-0.6c-0.3-0.1-0.6,0-0.8,0.3c-0.1,0.3,0,0.6,0.3,0.8c4.8,2,11.2,10.4,12.3,11.8c-0.3,1.1-0.6,2.1-0.8,3.1
					c-0.5-0.6-1.1-1.5-2-2.6c0.1-0.7,0.3-1.5,0.4-2.2c0.1-0.3-0.1-0.6-0.5-0.7c-0.3-0.1-0.6,0.1-0.7,0.5c-0.1,0.4-0.2,0.8-0.2,1.2
					c-0.8-0.9-1.7-1.9-2.7-2.8c0.1-0.7,0.3-1.4,0.4-2.1c0.1-0.3-0.2-0.6-0.5-0.7c-0.3-0.1-0.6,0.2-0.7,0.5c-0.1,0.5-0.2,0.9-0.3,1.4
					c-0.9-0.8-1.9-1.6-3-2.3c0.1-0.6,0.2-1.3,0.4-2.1c0.1-0.3-0.2-0.6-0.5-0.7c-0.3-0.1-0.6,0.2-0.7,0.5c-0.1,0.6-0.2,1.2-0.3,1.6
					c-0.3-0.2-0.6-0.3-0.9-0.5c-0.3-0.2-0.6,0-0.8,0.2c-0.1,0.3,0,0.6,0.2,0.8c6.3,3.3,11.1,10.3,11.8,11.3c0,0.2-0.1,0.4-0.1,0.6
					c-1.4,5.9-2.9,11-4.2,15.6c-1.3,4.4-2.4,8.2-2.9,11.1c-0.5,3.1-1.3,4.1-1.8,4.4c-0.4,0.2-0.7,0.2-1.1,0.1
					c-0.5-0.1-1.4-1.3-1.4-2.6l0-1.9c0-0.1-0.1-0.3-0.2-0.4l-5.6-5.8c-0.2-0.2-0.4-0.2-0.6-0.1c-0.2,0.1-0.4,0.3-0.4,0.5l0.1,4.9
					c0,0.9,0.7,1.5,1.4,2.1c0.5,0.5,1,0.9,1.1,1.4c0,0.6-0.2,1.1-0.5,1.4c-0.4,0.2-0.9,0-1.2-0.1c-0.5-0.3-5.6-5.9-10.6-18.5
					c-0.8-4.7,2.3-10.3,7.3-13.2c5.1-2.9,10.7-2.3,15.4,1.7c0.2,0.2,0.6,0.2,0.8-0.1c0.2-0.2,0.2-0.6-0.1-0.8
					c-5.1-4.4-11.2-5.1-16.8-1.9c-4.3,2.5-7.3,6.8-7.9,11.1c-4.3-11.8-8.9-31-8-57.6c0.1-3.6,0.3-7.1,0.5-10.4
					c1.1,0.7,2.2,1.4,3,1.9c0.1,0.1,0.2,0.1,0.3,0.1c0.2,0,0.4-0.1,0.5-0.3c0.2-0.3,0.1-0.6-0.2-0.8c-2.8-1.7-7.5-4.6-11.8-8.1
					c-0.3-0.2-0.6-0.5-0.9-0.7c-1.1-0.9-2.2-1.7-3.3-2.5c-1.6-1.2-3.2-2.3-4.6-3.2c0.2-3.5,0.4-7.3,0.6-11.1
					c0.9-27.6-4-47.8-9.2-61.1c0,0,0,0,0,0c0-0.1,0-0.2-0.1-0.2c-4.9-12.2-10-18.4-11.1-19c-1.2-0.6-2-0.3-2.4-0.1
					c-0.7,0.4-1.1,1.3-1.1,2.4c0,1.1,0.8,1.8,1.5,2.3c0.5,0.4,0.9,0.8,0.9,1.2l0.1,3.4l-4.4-4.6l0-1.7c0-1.7-1.1-3.4-2.3-3.7
					c-0.4-0.1-1.2-0.3-2,0.2c-1.1,0.7-1.8,2.4-2.3,5.2c-0.5,2.8-1.6,6.6-2.9,10.9c-1.3,4.6-2.8,9.7-4.2,15.6
					c-0.5,2.1-1.1,4.2-1.6,6.4c-2.7,10.1-5.7,21.5-5.1,39c0,0,0,0,0,0c0,0.7,0.1,1.5,0.1,2.3c0.1,1.5,0.2,3.1,0.3,4.6
					c-0.8,1.8-8.2,17.2-8.9,25c0,0.3,0.2,0.6,0.5,0.6c0,0,0,0,0.1,0c0.3,0,0.6-0.2,0.6-0.5c0.6-6.3,5.8-18.2,7.9-22.8
					c0.1,0.9,0.2,1.8,0.3,2.7c-0.6,1.4-4.7,11.4-5.5,19.7c0,0.3,0.2,0.6,0.5,0.6c0,0,0,0,0.1,0c0.3,0,0.5-0.2,0.6-0.5
					c0.6-6.4,3.3-13.9,4.7-17.5c0.1,1,0.3,2.1,0.4,3.1c-2.1,6.5-2.7,11.4-2.8,14.4c0,0.3,0.2,0.6,0.6,0.6c0,0,0,0,0,0
					c0.3,0,0.6-0.2,0.6-0.6c0.1-2.6,0.5-6.6,2.1-11.8c0.2,1.3,0.4,2.7,0.7,4.1c-0.4,3.1-0.7,5.9-0.6,8.3c0,0.3,0.3,0.6,0.6,0.6h0
					c0.3,0,0.6-0.3,0.6-0.6c0-1.3,0.1-2.8,0.2-4.3c0.3,1.4,0.5,2.8,0.8,4.3c0,0,0,0,0,0c0.9,4.8,2,9.6,3,14.2c0,0,0,0,0,0
					c0.5,2.2,1,4.3,1.4,6.4c0.1,0.4,0.2,0.9,0.3,1.3c-0.2,0.8-2.4,9.2-2.7,15.9c0,0.3,0.2,0.6,0.6,0.6c0,0,0,0,0,0
					c0.3,0,0.6-0.2,0.6-0.6c0.2-4.7,1.4-10.3,2.1-13.3c0.3,1.2,0.5,2.3,0.7,3.4c-0.5,3.4-1,8.4-0.7,13c0,0.3,0.3,0.5,0.6,0.5
					c0,0,0,0,0,0c0.3,0,0.6-0.3,0.5-0.6c-0.2-3.2,0-6.6,0.3-9.5c0.6,2.7,1,5.1,1.4,7.3c0.4,2.6,0.8,4.9,1.1,7.2
					c0.3,2.5-1.8,6-4.4,10.5c-3.8,6.6-9,15.5-9.8,26.6c0,0.3,0.2,0.6,0.5,0.6c0,0,0,0,0,0c0.3,0,0.6-0.2,0.6-0.5
					c0.7-10.8,5.8-19.7,9.6-26.1c1.6-2.8,3-5.2,3.8-7.3c0.1,0.9,0.2,1.8,0.3,2.6c-2,3.4-10.8,19-11,29.4c0,0.3,0.3,0.6,0.6,0.6h0
					c0.3,0,0.6-0.3,0.6-0.6c0.1-9,7.1-22.3,10-27.4c0.1,0.8,0.1,1.6,0.2,2.3c-1,2.1-7.4,15.6-7.4,23.7c0,0.3,0.3,0.6,0.6,0.6h0
					c0.3,0,0.6-0.3,0.6-0.6c0-6.6,4.3-16.8,6.4-21.3c0,0.4,0,0.8,0.1,1.2c0,0.5,0.1,0.9,0.2,1.3c-0.5,1.2-4.2,10.9-4.1,17.7
					c0,0.3,0.3,0.6,0.6,0.6c0,0,0,0,0,0c0.3,0,0.6-0.3,0.6-0.6c-0.1-5.4,2.4-12.9,3.5-16c0.2,0.5,0.5,0.9,0.9,1.3
					c-0.4,1.3-2.3,7.9-2.2,13.8c0,0.3,0.3,0.6,0.6,0.6h0c0.3,0,0.6-0.3,0.6-0.6c-0.1-5,1.4-10.7,2-12.8c0.3,0.3,0.6,0.5,0.9,0.7
					c-0.2,1.5-1,7.8-1,11.5c0,0.3,0.3,0.6,0.6,0.6h0c0.3,0,0.6-0.3,0.6-0.6c-0.1-3.4,0.6-9,0.9-11c0.4,0.2,0.8,0.3,1.2,0.4
					c0,1.7-0.2,8.1-0.2,10.4c0,0.3,0.3,0.6,0.6,0.6h0c0.3,0,0.6-0.3,0.6-0.6c0-2.3,0.1-8.4,0.2-10.3c0.2,0,0.3,0,0.5,0
					c0,0,0.1,0,0.1,0c0.2,0,0.4,0,0.5,0c0.1,1.9,0.5,8,0.5,10.2c0,0.3,0.3,0.6,0.6,0.6c0,0,0,0,0,0c0.3,0,0.6-0.3,0.6-0.6
					c0-2.3-0.4-8.7-0.5-10.4c0.4-0.1,0.8-0.2,1.1-0.4c0.3,2,1.2,7.5,1.3,10.9c0,0.3,0.3,0.6,0.6,0.6h0c0.3,0,0.6-0.3,0.6-0.6
					c-0.1-3.8-1.1-9.9-1.3-11.5c0.3-0.2,0.6-0.4,0.9-0.7c0.7,2.1,2.3,7.7,2.4,12.7c0,0.3,0.3,0.6,0.6,0.6h0c0.3,0,0.6-0.3,0.6-0.6
					c-0.1-5.8-2.1-12.2-2.6-13.6c0.3-0.4,0.6-0.9,0.8-1.4c1.2,3.1,4,10.4,4,15.8c0,0.3,0.3,0.6,0.6,0.6c0,0,0,0,0,0
					c0.3,0,0.6-0.3,0.6-0.6c-0.1-6.7-4-16-4.7-17.5c0.1-0.5,0.2-1,0.1-1.6c0-0.3,0-0.7,0-1c2.2,4.5,7,14.7,7.1,21.2
					c0,0.3,0.3,0.6,0.6,0.6c0,0,0,0,0,0c0.3,0,0.6-0.3,0.6-0.6c-0.1-8.5-7.4-22.3-8.3-23.9c0-0.9,0-1.7,0-2.5c3,4.9,11,18.8,11.2,28
					c0,0.3,0.3,0.6,0.6,0.6c0,0,0,0,0,0c0.3,0,0.6-0.3,0.6-0.6c-0.1-4.9-2.2-11.5-6.3-19.6c-2.7-5.4-5.5-9.8-6-10.6
					c0-0.3,0-0.7,0-0.9c-0.1-4.8,2.2-11.1,5-18.4c0.1,0.2,0.1,0.5,0.2,0.7c0.3,1.4,0.6,2.9,1.1,3.8c0.1,0.2,0.3,0.3,0.5,0.3
					c0.1,0,0.2,0,0.3-0.1c0.3-0.2,0.4-0.5,0.2-0.8c-0.4-0.8-0.7-2.2-1-3.5c-0.2-0.9-0.4-1.7-0.6-2.3c0.2-0.6,0.4-1.1,0.7-1.7
					c0.2,0.5,0.3,1,0.5,1.5c0.6,1.8,1.2,3.7,1.8,4.8c0.1,0.2,0.3,0.3,0.5,0.3c0.1,0,0.2,0,0.3-0.1c0.3-0.2,0.4-0.5,0.2-0.8
					c-0.5-1-1.1-2.8-1.7-4.6c-0.3-1-0.7-2-1-2.8c0.2-0.4,0.3-0.8,0.5-1.2c1,2,3,6.1,3.8,7.6c0.1,0.2,0.3,0.3,0.5,0.3
					c0.1,0,0.2,0,0.3-0.1c0.3-0.2,0.4-0.5,0.2-0.8c-0.8-1.5-3.1-6.1-4.3-8.6c0.2-0.5,0.3-0.9,0.5-1.4c2.9,4.8,4.7,7.9,5.3,9.1
					c0.1,0.2,0.3,0.3,0.5,0.3c0.1,0,0.2,0,0.3-0.1c0.3-0.2,0.4-0.5,0.2-0.8c-0.7-1.3-2.7-4.7-5.8-10l0,0c0.1-0.4,0.3-0.8,0.4-1.1
					c1.6,2.1,5.6,7.4,7.2,10.4c0.1,0.2,0.3,0.3,0.5,0.3c0.1,0,0.2,0,0.3-0.1c0.3-0.2,0.4-0.5,0.2-0.8c-1.9-3.4-6.8-9.8-7.8-11.1
					c0.1-0.4,0.2-0.7,0.4-1.1c1.8,1.8,6.9,7.2,9.4,11.8c0.1,0.2,0.3,0.3,0.5,0.3c0.1,0,0.2,0,0.3-0.1c0.3-0.2,0.4-0.5,0.2-0.8
					c-2.8-5.2-8.7-11.2-10-12.4c0.1-0.3,0.2-0.7,0.3-1c2.2,1.9,9.3,8,12,13.1c0.1,0.2,0.3,0.3,0.5,0.3c0.1,0,0.2,0,0.3-0.1
					c0.3-0.2,0.4-0.5,0.2-0.8c-3.1-5.7-11-12.4-12.7-13.8c1.9-6.4,3.5-13.3,4.1-20.8c0.5,0.7,1,1.2,1.8,1.2c0,0,0,0,0,0
					c0.3,0,0.6-0.3,0.6-0.6c0-0.3-0.3-0.6-0.6-0.6c0,0,0,0,0,0c-0.7,0-1.2-1.3-1.7-2.5c-0.1-0.3-0.4-0.4-0.6-0.4
					c-0.3,0-0.5,0.3-0.5,0.5c-0.8,15.1-5.9,28.4-10,39.1c-3.1,8-5.7,14.9-5.6,20.2c0,0.3,0,0.7,0,1.1c0,0,0,0,0,0
					c0,1.3,0.1,2.9,0.1,4.7c0,0,0,0.1,0,0.1c0,1.1,0,2.3,0.1,3.5c0,0.5,0,0.9-0.1,1.4c0,0.1,0,0.1,0,0.2c-0.3,1.1-0.8,2.1-1.6,2.9
					c-1.2,1.2-2.7,1.9-4.4,1.9c0,0-0.1,0-0.1,0c-3.3,0-6.1-2.7-6.2-6c0-0.9-0.1-1.9-0.2-3.1c1.6,2,3.9,4.4,6.4,5.3
					c0.1,0,0.1,0,0.2,0c0.2,0,0.5-0.2,0.6-0.4c0.1-0.3-0.1-0.6-0.4-0.7c-2.9-1-5.8-4.6-7-6.4c-0.1-0.8-0.1-1.7-0.2-2.5
					c0,0,0,0,0-0.1c0-0.5-0.1-1-0.2-1.6c0.5,0.6,1.2,1.4,1.9,2.2c0.1,1,0.3,2.1,0.4,3.2c0,0.3,0.3,0.5,0.6,0.5c0,0,0,0,0.1,0
					c0.3,0,0.5-0.3,0.5-0.6c-0.1-0.6-0.1-1.2-0.2-1.7c0.8,0.7,1.7,1.4,2.5,1.9c0.1,0.9,0.2,1.8,0.3,2.7c0,0.3,0.3,0.5,0.6,0.5
					c0,0,0,0,0.1,0c0.3,0,0.5-0.3,0.5-0.6c-0.1-1-0.2-2-0.4-3c0,0,0,0,0,0c0,0,0,0,0,0c0,0,0,0,0,0c0,0,0-0.1,0-0.1c0,0,0,0,0-0.1
					c0,0,0,0,0,0c0,0,0,0,0-0.1c0,0,0,0,0,0c0,0,0,0-0.1-0.1c0,0,0,0,0,0c0,0-0.1-0.1-0.1-0.1c-3.2-1.7-6.4-6.2-6.8-6.8
					c-0.1-0.9-0.2-1.8-0.3-2.7c0,0,0,0,0,0c0,0,0,0,0,0c0-0.3-0.1-0.6-0.1-1c0.5,0.6,1.1,1.4,1.8,2.1c0.1,0.8,0.2,1.7,0.3,2.5
					c0,0.3,0.3,0.5,0.6,0.5c0,0,0.1,0,0.1,0c0.3,0,0.5-0.3,0.5-0.7c0-0.4-0.1-0.7-0.1-1.1c0.8,0.7,1.6,1.3,2.5,1.9
					c0.1,0.9,0.2,1.8,0.3,2.7c0,0.3,0.3,0.5,0.6,0.5c0,0,0,0,0.1,0c0.3,0,0.5-0.3,0.5-0.7c-0.1-1-0.3-2-0.4-3c0,0,0,0,0,0
					c0,0,0,0,0-0.1c0,0,0,0,0,0c0,0,0,0,0-0.1c0,0,0,0,0,0c0,0,0,0,0-0.1c0,0,0,0,0,0c0,0,0,0,0,0c0,0,0,0,0,0c0,0,0,0,0,0
					c-3.8-2.2-6.5-6.3-6.9-6.9c-0.2-1.2-0.4-2.4-0.6-3.7c0-0.2-0.1-0.3-0.1-0.5c0.5,0.6,1.2,1.3,2,2.1c0.1,1,0.3,2,0.4,3.1
					c0,0.3,0.3,0.5,0.6,0.5c0,0,0.1,0,0.1,0c0.3,0,0.5-0.3,0.5-0.7c-0.1-0.5-0.1-1.1-0.2-1.6c0.9,0.8,1.7,1.6,2.6,2.3
					c0.1,0.9,0.2,1.8,0.4,2.8c0,0.3,0.3,0.5,0.6,0.5c0,0,0.1,0,0.1,0c0.3,0,0.5-0.3,0.5-0.7c-0.1-1-0.3-2-0.4-3c0,0,0,0,0,0
					c0,0,0,0,0,0c0,0,0,0,0,0c0,0,0-0.1,0-0.1c0,0,0,0,0-0.1c0,0,0,0,0,0c0-0.1-0.1-0.1-0.2-0.2c-3.1-2.3-6.6-6.5-7.2-7.2
					c-0.3-1.5-0.6-3.1-1-4.8c0.6,0.7,1.4,1.6,2.3,2.5c0.2,1,0.3,2,0.5,3.1c0,0.3,0.3,0.5,0.6,0.5c0,0,0.1,0,0.1,0
					c0.3,0,0.5-0.3,0.5-0.7c-0.1-0.5-0.2-1-0.2-1.5c0.8,0.8,1.7,1.6,2.6,2.3c0.1,1,0.3,2,0.5,3.2c0,0.3,0.3,0.5,0.6,0.5
					c0,0,0.1,0,0.1,0c0.3,0,0.5-0.3,0.5-0.7c-0.1-0.7-0.2-1.3-0.3-2c0.1,0.1,0.2,0.2,0.4,0.3c0.1,0.1,0.2,0.1,0.3,0.1
					c0.2,0,0.4-0.1,0.5-0.2c0.2-0.3,0.1-0.6-0.1-0.8c-4.4-3.1-8.6-8.1-9.2-8.9c-0.3-1.5-0.7-3.2-1.1-4.8c0.7,0.8,1.7,1.9,2.8,3
					c0.2,0.9,0.3,1.9,0.5,3c0,0.3,0.3,0.5,0.6,0.5c0,0,0.1,0,0.1,0c0.3-0.1,0.5-0.4,0.5-0.7c-0.1-0.5-0.2-1-0.2-1.4
					c0.8,0.8,1.7,1.6,2.7,2.3c0.2,1,0.3,2,0.5,3.1c0,0.3,0.3,0.5,0.6,0.5c0,0,0.1,0,0.1,0c0.3-0.1,0.5-0.3,0.5-0.7
					c-0.1-0.7-0.2-1.3-0.3-1.9c0.3,0.2,0.7,0.5,1,0.7c0.1,0.1,0.2,0.1,0.3,0.1c0.2,0,0.4-0.1,0.5-0.3c0.2-0.3,0.1-0.6-0.2-0.8
					c-0.7-0.5-1.4-0.9-2-1.5c0,0-0.1-0.1-0.1-0.1c-4.3-3.4-7.7-7.8-8.3-8.5c-0.1-0.3-0.1-0.5-0.2-0.8c-0.3-1.3-0.6-2.7-0.9-4.1
					c0.8,0.9,1.8,2.1,3,3.3c0.3,1.1,0.5,2.2,0.7,3.3c0.1,0.3,0.3,0.5,0.6,0.5c0,0,0.1,0,0.1,0c0.3-0.1,0.5-0.4,0.5-0.7
					c-0.1-0.5-0.2-1-0.3-1.5c0.9,0.9,1.8,1.7,2.8,2.5c0.2,1,0.4,2,0.6,3.2c0.1,0.3,0.3,0.5,0.6,0.5c0,0,0.1,0,0.1,0
					c0.3-0.1,0.5-0.4,0.5-0.7c-0.1-0.6-0.2-1.3-0.3-1.9c0.6,0.4,1.2,0.9,1.8,1.2c0.1,0.1,0.2,0.1,0.3,0.1c0.2,0,0.4-0.1,0.5-0.3
					c0.2-0.3,0.1-0.6-0.2-0.8c-5.2-3.1-10.9-10.3-11.6-11.2c-0.3-1.4-0.6-2.9-0.9-4.3c0.8,0.9,1.7,2.1,2.9,3.4
					c0.2,0.9,0.4,1.8,0.6,2.7l0,0.1c0.1,0.3,0.3,0.5,0.6,0.5c0,0,0.1,0,0.1,0c0.3-0.1,0.5-0.4,0.4-0.7l0-0.1
					c-0.1-0.3-0.1-0.5-0.2-0.8c0.9,0.9,1.9,1.9,3,2.7l0,0.1c0.2,0.8,0.4,1.7,0.6,2.6c0.1,0.3,0.3,0.5,0.6,0.5c0,0,0.1,0,0.1,0
					c0.3-0.1,0.5-0.4,0.4-0.7c-0.1-0.4-0.2-0.9-0.3-1.3c0.9,0.7,1.9,1.3,2.8,1.8c0.1,0,0.2,0.1,0.3,0.1c0.2,0,0.4-0.1,0.5-0.3
					c0.2-0.3,0-0.6-0.2-0.8c-6-3.2-12.2-11.6-12.8-12.3c-0.3-1.5-0.6-3-0.9-4.5c0.7,1,1.7,2.2,2.9,3.4c0.1,0.8,0.3,1.4,0.4,2.1
					c0.1,0.3,0.1,0.7,0.2,1c0.1,0.3,0.3,0.5,0.6,0.5c0,0,0.1,0,0.1,0c0.3-0.1,0.5-0.4,0.5-0.7c-0.1-0.3-0.1-0.7-0.2-1
					c0-0.1,0-0.1,0-0.2c1,1,2,2,3.1,3c0.2,1,0.4,2,0.6,3.1c0.1,0.3,0.3,0.5,0.6,0.5c0,0,0.1,0,0.1,0c0.3-0.1,0.5-0.4,0.5-0.7
					c-0.1-0.6-0.2-1.2-0.3-1.7c1.3,1,2.6,1.9,3.9,2.5c0.1,0,0.2,0.1,0.3,0.1c0.2,0,0.4-0.1,0.5-0.3c0.1-0.3,0-0.6-0.3-0.8
					c-6.5-3.2-13.1-12.4-13.9-13.4c-0.3-1.3-0.5-2.7-0.8-4c0.8,1,1.8,2.2,3,3.6c0.2,1,0.3,1.9,0.5,2.8c0,0.3,0.3,0.5,0.6,0.5
					c0,0,0.1,0,0.1,0c0.3-0.1,0.5-0.4,0.5-0.7c-0.1-0.3-0.1-0.7-0.2-1c1,1,2.1,2.1,3.2,3.1c0.1,1,0.3,1.9,0.4,2.8
					c0,0.3,0.3,0.5,0.6,0.5c0,0,0.1,0,0.1,0c0.3-0.1,0.5-0.4,0.5-0.7c-0.1-0.5-0.1-0.9-0.2-1.4c1,0.9,2.1,1.7,3.2,2.4
					c0.1,0.9,0.3,1.8,0.5,2.7c0.1,0.3,0.3,0.5,0.6,0.5c0,0,0.1,0,0.1,0c0.3-0.1,0.5-0.4,0.5-0.7c-0.1-0.6-0.2-1.1-0.3-1.7
					c0.1,0,0.1,0.1,0.2,0.1c0.1,0.1,0.2,0.1,0.3,0.1c0.2,0,0.4-0.1,0.5-0.3c0.2-0.3,0.1-0.6-0.2-0.8c-7.4-4.2-14.1-13.3-14.8-14.3
					c-0.3-1.5-0.5-3-0.7-4.4c0.8,1,1.9,2.4,3.2,3.9c0.1,1,0.3,2,0.4,2.9c0,0.3,0.3,0.5,0.6,0.5c0,0,0.1,0,0.1,0
					c0.3,0,0.5-0.3,0.5-0.7c-0.1-0.4-0.1-0.8-0.2-1.2c1.1,1.2,2.2,2.3,3.4,3.4c0.1,1,0.2,1.9,0.4,2.8c0,0.3,0.3,0.5,0.6,0.5
					c0,0,0.1,0,0.1,0c0.3,0,0.5-0.3,0.5-0.7c-0.1-0.5-0.1-0.9-0.2-1.4c1,0.9,2.1,1.7,3.2,2.4c0.1,0.9,0.3,1.9,0.4,2.8
					c0,0.3,0.3,0.5,0.6,0.5c0,0,0.1,0,0.1,0c0.3,0,0.5-0.3,0.5-0.7c-0.1-0.6-0.2-1.3-0.3-1.9c0.3,0.2,0.7,0.3,1,0.5
					c0.1,0,0.2,0.1,0.2,0.1c0.2,0,0.4-0.1,0.5-0.3c0.1-0.3,0-0.6-0.3-0.8c-6.7-3-14.8-13.9-15.7-15.2c-0.1-0.4-0.1-0.8-0.2-1.1
					c0-0.1,0-0.2-0.1-0.4c-0.1-0.8-0.2-1.7-0.3-2.5c0.8,1,1.9,2.4,3.3,3.9c0.1,1,0.3,1.9,0.4,2.8c0,0.3,0.3,0.5,0.6,0.5
					c0,0,0.1,0,0.1,0c0.3,0,0.5-0.3,0.5-0.7c0-0.4-0.1-0.7-0.2-1.1c1.1,1.2,2.3,2.4,3.6,3.5c0.1,1,0.2,2,0.3,2.9
					c0,0.3,0.3,0.5,0.6,0.5c0,0,0,0,0.1,0c0.3,0,0.5-0.3,0.5-0.6c-0.1-0.5-0.1-1.1-0.2-1.6c1,0.9,2.1,1.7,3.2,2.5
					c0.1,1,0.2,1.9,0.3,2.9c0,0.3,0.3,0.5,0.6,0.5c0,0,0,0,0.1,0c0.3,0,0.5-0.3,0.5-0.6c-0.1-0.6-0.1-1.2-0.2-1.9
					c0.5,0.3,1,0.6,1.5,0.9c0.1,0.1,0.2,0.1,0.3,0.1c0.2,0,0.4-0.1,0.5-0.3c0.2-0.3,0.1-0.6-0.2-0.8c-8.5-4.9-15.4-14.4-16.4-15.8
					c0-0.1,0-0.2,0-0.3c0-0.1,0-0.1,0-0.2c-0.1-1.2-0.3-2.5-0.4-3.7c0.7,1,1.8,2.3,3.2,3.9c0.1,0.8,0.2,1.5,0.3,2.3l0.1,0.8
					c0,0.3,0.3,0.5,0.6,0.5c0,0,0,0,0.1,0c0.3,0,0.5-0.3,0.5-0.6l-0.1-0.8c0-0.2-0.1-0.4-0.1-0.6c1.1,1.2,2.4,2.5,3.8,3.7
					c0.1,0.5,0.1,1.1,0.2,1.7l0.1,1.4c0,0.3,0.3,0.5,0.6,0.5c0,0,0,0,0.1,0c0.3,0,0.6-0.3,0.5-0.6l-0.1-1.4c0-0.1,0-0.3,0-0.4
					c1,0.9,2.1,1.8,3.3,2.6c0.1,1,0.2,1.9,0.3,2.9c0,0.3,0.3,0.5,0.6,0.5c0,0,0,0,0.1,0c0.3,0,0.6-0.3,0.5-0.6
					c-0.1-0.6-0.1-1.3-0.2-1.9c0.6,0.4,1.3,0.9,1.9,1.3c0.1,0.1,0.2,0.1,0.3,0.1c0.2,0,0.4-0.1,0.5-0.3c0.2-0.3,0.1-0.6-0.2-0.8
					c-9.4-5.8-16.1-15.2-16.8-16.3c-0.1-1.2-0.2-2.4-0.2-3.6c0-0.1,0-0.2,0-0.3c0.7,1,1.7,2.3,3,3.8c0.1,0.9,0.2,1.8,0.2,2.7
					c0,0.3,0.3,0.5,0.6,0.5c0,0,0,0,0.1,0c0.3,0,0.6-0.3,0.5-0.6c0-0.4-0.1-0.8-0.1-1.1c1.1,1.3,2.4,2.6,3.8,3.9
					c0.1,0.8,0.1,1.7,0.2,2.6c0,0.3,0.3,0.5,0.6,0.5c0,0,0,0,0.1,0c0.3,0,0.6-0.3,0.5-0.6c0-0.5-0.1-0.9-0.1-1.3
					c1.1,1,2.3,1.9,3.5,2.7c0,0.8,0.1,1.7,0.2,2.5c0,0.3,0.3,0.5,0.6,0.5c0,0,0,0,0,0c0.3,0,0.6-0.3,0.5-0.6c0-0.6-0.1-1.1-0.1-1.6
					c0.7,0.5,1.5,0.9,2.2,1.4c0.1,0,0.2,0.1,0.3,0.1c0.2,0,0.4-0.1,0.5-0.3c0.2-0.3,0.1-0.6-0.2-0.8c-9.1-5-16.1-15.1-17-16.4
					c0-1.3-0.1-2.6-0.1-3.8c0.7,0.9,1.6,2.2,2.8,3.7c0,0.9,0.1,1.8,0.1,2.7c0,0.3,0.3,0.5,0.6,0.5c0,0,0,0,0,0
					c0.3,0,0.6-0.3,0.5-0.6c0-0.4,0-0.8-0.1-1.2c1.1,1.3,2.4,2.7,3.9,4.1c0,0.9,0.1,1.7,0.2,2.6c0,0.3,0.3,0.5,0.6,0.5c0,0,0,0,0,0
					c0.3,0,0.6-0.3,0.5-0.6c0-0.5-0.1-1-0.1-1.4c1.2,1,2.4,2,3.7,2.9c0,0.8,0,1.7,0.1,2.5c0,0.3,0.3,0.6,0.6,0.6c0,0,0,0,0,0
					c0.3,0,0.6-0.3,0.6-0.6c0-0.6,0-1.1-0.1-1.7c0.8,0.5,1.6,1,2.4,1.4c0.1,0,0.2,0.1,0.3,0.1c0.2,0,0.4-0.1,0.5-0.3
					c0.1-0.3,0-0.6-0.3-0.8c-8.9-4.4-16.1-15-16.9-16.3c0-1.2,0.1-2.3,0.1-3.4c0.6,0.8,1.5,2,2.6,3.3c0,0.8,0,1.7,0,2.6
					c0,0.3,0.3,0.6,0.6,0.6h0c0.3,0,0.6-0.3,0.6-0.6c0-0.4,0-0.8,0-1.2c1.1,1.3,2.4,2.7,3.8,4c0,0.9,0,1.7,0.1,2.6
					c0,0.3,0.3,0.6,0.6,0.6c0,0,0,0,0,0c0.3,0,0.6-0.3,0.6-0.6c0-0.5,0-1,0-1.5c1.2,1.1,2.5,2.1,3.8,3.1c0,0.8,0,1.6,0,2.5
					c0,0.3,0.3,0.6,0.6,0.6h0c0.3,0,0.6-0.3,0.6-0.6c0-0.6,0-1.1,0-1.6c0.8,0.5,1.6,1,2.5,1.5c0.1,0,0.2,0.1,0.3,0.1
					c0.2,0,0.4-0.1,0.5-0.3c0.2-0.3,0-0.6-0.2-0.8c-8.9-4.8-15.8-14.8-16.7-16.1c0.1-1.2,0.2-2.3,0.3-3.5c0.6,0.8,1.4,2,2.4,3.3
					c-0.1,0.8-0.1,1.6-0.1,2.3c0,0.3,0.2,0.6,0.6,0.6c0,0,0,0,0,0c0.3,0,0.6-0.2,0.6-0.6c0-0.4,0-0.7,0-1.1c1.1,1.3,2.3,2.6,3.7,4
					c0,0.8,0,1.6,0,2.4c0,0.3,0.3,0.6,0.6,0.6h0c0.3,0,0.6-0.3,0.6-0.6c0-0.4,0-0.9,0-1.3c1.2,1.1,2.5,2.1,3.9,3.1
					c0,0.8,0,1.6,0,2.4c0,0.3,0.3,0.6,0.6,0.6c0,0,0,0,0,0c0.3,0,0.6-0.3,0.6-0.6c0-0.6,0-1.1,0-1.7c0.8,0.5,1.6,1,2.4,1.4
					c0.1,0,0.2,0.1,0.3,0.1c0.2,0,0.4-0.1,0.5-0.3c0.1-0.3,0-0.6-0.3-0.8c-9.6-4.9-15.5-14.4-16.2-15.6c0.1-1.1,0.2-2.1,0.4-3.1
					c0.5,0.8,1.3,1.8,2.3,3c-0.1,0.8-0.2,1.5-0.3,2.3c0,0.3,0.2,0.6,0.5,0.6c0,0,0,0,0.1,0c0.3,0,0.5-0.2,0.6-0.5
					c0-0.4,0.1-0.8,0.1-1.2c1,1.2,2.2,2.5,3.6,3.8c-0.1,0.8-0.1,1.6-0.2,2.4c0,0.3,0.2,0.6,0.6,0.6c0,0,0,0,0,0
					c0.3,0,0.6-0.2,0.6-0.6c0-0.5,0.1-0.9,0.1-1.4c1.2,1.1,2.5,2.2,3.9,3.2c0,0.7-0.1,1.4-0.1,2.1c0,0.3,0.2,0.6,0.6,0.6
					c0,0,0,0,0,0c0.3,0,0.6-0.2,0.6-0.6c0-0.5,0-0.9,0.1-1.4c0.8,0.5,1.5,1,2.3,1.4c0.1,0,0.2,0.1,0.3,0.1c0.2,0,0.4-0.1,0.5-0.3
					c0.1-0.3,0-0.6-0.2-0.8c-7.9-4.1-14.7-13.7-15.7-15.1c0.2-1.1,0.4-2.2,0.6-3.3c0.5,0.8,1.3,1.9,2.3,3.1
					c-0.1,0.8-0.3,1.5-0.4,2.2c-0.1,0.3,0.2,0.6,0.5,0.7c0,0,0.1,0,0.1,0c0.3,0,0.5-0.2,0.6-0.5c0.1-0.4,0.1-0.8,0.2-1.2
					c1,1.2,2.1,2.5,3.4,3.8c-0.1,0.7-0.2,1.4-0.2,2c0,0.3,0.2,0.6,0.5,0.6c0,0,0,0,0.1,0c0.3,0,0.5-0.2,0.6-0.5
					c0-0.4,0.1-0.8,0.1-1.1c1.2,1.2,2.5,2.2,3.7,3.1c0,0.7-0.1,1.3-0.1,2c0,0.3,0.2,0.6,0.5,0.6c0,0,0,0,0,0c0.3,0,0.6-0.2,0.6-0.5
					c0-0.5,0.1-1,0.1-1.4c0.7,0.4,1.5,0.8,2.2,1c0.1,0,0.1,0,0.2,0c0.3,0,0.5-0.2,0.6-0.4c0.1-0.3-0.1-0.6-0.4-0.7
					c-6.1-1.8-13.7-12.7-14.8-14.3c0.2-1,0.4-2.1,0.7-3.1c0.5,0.7,1.4,1.8,2.4,3c0,0.2-0.1,0.4-0.1,0.6c-0.1,0.5-0.2,1-0.3,1.5
					c-0.1,0.3,0.1,0.6,0.4,0.7c0,0,0.1,0,0.1,0c0.3,0,0.5-0.2,0.6-0.5c0.1-0.4,0.2-0.9,0.3-1.3c0.9,1.1,2,2.3,3.1,3.4
					c-0.1,0.8-0.2,1.5-0.4,2.3c0,0.3,0.2,0.6,0.5,0.7c0,0,0.1,0,0.1,0c0.3,0,0.5-0.2,0.6-0.5c0.1-0.5,0.2-1,0.2-1.5
					c1.1,1.1,2.3,2.1,3.5,2.9c-0.1,0.7-0.1,1.5-0.2,2.3c0,0.3,0.2,0.6,0.5,0.6c0,0,0,0,0.1,0c0.3,0,0.6-0.2,0.6-0.5
					c0.1-0.6,0.1-1.1,0.2-1.7c0.7,0.4,1.3,0.7,1.9,1c0.1,0,0.1,0,0.2,0c0.2,0,0.5-0.1,0.5-0.4c0.1-0.3,0-0.6-0.3-0.8
					c-5.7-2.2-12.9-12-14-13.6c0.3-1.1,0.5-2.2,0.8-3.2c0.5,0.7,1.3,1.8,2.3,3c-0.1,0.6-0.3,1.1-0.4,1.7l-0.1,0.5
					c-0.1,0.3,0.1,0.6,0.4,0.7c0,0,0.1,0,0.1,0c0.3,0,0.5-0.2,0.6-0.5l0.1-0.5c0.1-0.3,0.1-0.6,0.2-0.8c0.9,1,1.9,2.1,2.9,3.2
					c-0.1,0.8-0.3,1.5-0.4,2.2c-0.1,0.3,0.2,0.6,0.5,0.7c0,0,0.1,0,0.1,0c0.3,0,0.5-0.2,0.6-0.5c0.1-0.5,0.2-1,0.3-1.5
					c1.1,1,2.1,1.9,3.2,2.6c-0.1,0.7-0.2,1.5-0.3,2.3c0,0.3,0.2,0.6,0.5,0.6c0,0,0,0,0.1,0c0.3,0,0.5-0.2,0.6-0.5
					c0.1-0.6,0.1-1.1,0.2-1.7c0.5,0.3,1.1,0.6,1.6,0.8c0.1,0,0.1,0,0.2,0c0.2,0,0.5-0.1,0.5-0.4c0.1-0.3,0-0.6-0.3-0.8
					c-0.7-0.3-1.4-0.7-2.2-1.2c0,0,0,0,0,0c-4.8-3.2-10-10.2-11-11.5c0.3-1,0.5-2,0.8-2.9c0.5,0.7,1.3,1.6,2.2,2.8
					c-0.1,0.7-0.3,1.4-0.4,2c-0.1,0.3,0.1,0.6,0.4,0.7c0,0,0.1,0,0.1,0c0.3,0,0.5-0.2,0.6-0.5c0.1-0.4,0.2-0.8,0.3-1.2
					c0.8,1,1.8,2,2.8,3l-0.4,2c-0.1,0.3,0.1,0.6,0.5,0.7c0,0,0.1,0,0.1,0c0.3,0,0.5-0.2,0.6-0.5l0.2-1.3c1,0.9,2,1.8,3,2.5
					c-0.1,0.6-0.2,1.3-0.3,2c0,0.3,0.2,0.6,0.5,0.7c0,0,0.1,0,0.1,0c0.3,0,0.5-0.2,0.6-0.5c0.1-0.5,0.1-1,0.2-1.5
					c0.4,0.2,0.8,0.4,1.1,0.6c0.1,0,0.1,0,0.2,0c0.2,0,0.4-0.1,0.5-0.4c0.1-0.3,0-0.6-0.3-0.8c-4.8-2-11.2-10.4-12.3-11.8
					c0.3-1.1,0.6-2.1,0.8-3.1c0.5,0.6,1.1,1.5,2,2.6c-0.1,0.7-0.3,1.5-0.4,2.2c-0.1,0.3,0.1,0.6,0.5,0.7c0,0,0.1,0,0.1,0
					c0.3,0,0.5-0.2,0.6-0.5c0.1-0.4,0.2-0.8,0.2-1.2c0.8,0.9,1.7,1.9,2.7,2.8c-0.1,0.7-0.3,1.4-0.4,2.1c-0.1,0.3,0.2,0.6,0.5,0.7
					c0,0,0.1,0,0.1,0c0.3,0,0.5-0.2,0.6-0.5c0.1-0.5,0.2-0.9,0.3-1.4c0.9,0.8,1.9,1.6,3,2.3c-0.1,0.6-0.2,1.3-0.4,2.1
					c-0.1,0.3,0.2,0.6,0.5,0.7c0,0,0.1,0,0.1,0c0.3,0,0.5-0.2,0.6-0.5c0.1-0.6,0.2-1.2,0.3-1.6c0.3,0.2,0.6,0.3,0.9,0.5
					c0.1,0,0.2,0.1,0.3,0.1c0.2,0,0.4-0.1,0.5-0.3c0.1-0.3,0-0.6-0.2-0.8c-6.3-3.3-11.1-10.3-11.8-11.3c0-0.2,0.1-0.4,0.1-0.6
					c1.4-5.9,2.9-11,4.2-15.6c1.3-4.4,2.4-8.2,2.9-11.1c0.5-3.1,1.3-4.1,1.8-4.4c0.4-0.2,0.7-0.2,1.1-0.1c0.5,0.1,1.4,1.3,1.4,2.6
					l0,1.9c0,0.1,0.1,0.3,0.2,0.4l5.6,5.8c0.2,0.2,0.4,0.2,0.6,0.1c0.2-0.1,0.4-0.3,0.4-0.5l-0.1-4.9c0-0.9-0.7-1.5-1.4-2.1
					c-0.5-0.5-1-0.9-1.1-1.4c0-0.6,0.2-1.1,0.5-1.4c0.4-0.2,0.9,0,1.2,0.1c0.5,0.3,5.6,5.9,10.6,18.5c0.8,4.7-2.3,10.3-7.3,13.2
					c-5.1,2.9-10.7,2.3-15.4-1.7c-0.2-0.2-0.6-0.2-0.8,0.1c-0.2,0.2-0.2,0.6,0.1,0.8c3,2.6,6.3,3.9,9.6,3.9c2.4,0,4.8-0.7,7.1-2
					c4.3-2.5,7.3-6.8,7.9-11.1c4.3,11.8,8.9,31,8,57.6c-0.1,3.6-0.3,7.1-0.5,10.4c-1.1-0.7-2.2-1.4-3-1.9c-0.3-0.2-0.6-0.1-0.8,0.2
					c-0.2,0.3-0.1,0.6,0.2,0.8c2.8,1.7,7.5,4.6,11.8,8.1c0.3,0.2,0.6,0.5,0.9,0.7c1.1,0.9,2.2,1.7,3.3,2.6c1.6,1.2,3.2,2.3,4.6,3.2
					c-0.2,3.5-0.4,7.3-0.6,11.1c-0.9,27.6,4,47.8,9.2,61.1c0,0,0,0,0,0c0,0.1,0,0.1,0.1,0.2c4.9,12.2,10,18.4,11.1,19
					c1.2,0.6,2,0.3,2.4,0.1c0.7-0.4,1.1-1.3,1.1-2.4c0-1.1-0.8-1.8-1.5-2.3c-0.5-0.4-0.9-0.8-0.9-1.2l-0.1-3.4l4.4,4.6l0,1.7
					c0,1.7,1.1,3.4,2.3,3.7c0.2,0.1,0.5,0.1,0.9,0.1c0.3,0,0.7-0.1,1.1-0.3c1.1-0.7,1.8-2.4,2.3-5.2c0.5-2.8,1.6-6.6,2.9-10.9
					c1.3-4.6,2.8-9.7,4.2-15.6c0.5-2.1,1.1-4.2,1.6-6.4c2.7-10.1,5.7-21.5,5.1-39c0,0,0,0,0,0c0-0.7-0.1-1.5-0.1-2.3
					c-0.1-1.5-0.2-3.1-0.3-4.6c0.8-1.8,8.2-17.2,8.9-25C192.8,156.5,192.6,156.2,192.2,156.1z"/>
			</g>
		</g>
		<g>
			<path fill="#999999" d="M99.8,240.4c0.1,1,0.2,1.3,0.3,2.4c0,0.3-0.2,0.6-0.5,0.6c0,0,0,0-0.1,0c-0.3,0-0.5-0.2-0.6-0.5
				c-0.1-0.9-0.2-1.2-0.3-2.1c-0.9-0.5-1.7-0.8-2.5-1.5c0.1,0.6,0.1,1.1,0.2,1.7c0,0.3-0.2,0.6-0.5,0.6c0,0,0,0-0.1,0
				c-0.3,0-0.5-0.2-0.6-0.5c-0.1-1.1-0.3-2.1-0.4-3.2c-0.7-0.8-1.4-1.9-1.9-2.6l3.3,3.2L98,240L99.8,240.4z"/>
		</g>
		<g>
			<path fill="#999999" d="M161.4,94.4c-0.1-1-0.2-1.3-0.3-2.4c0-0.3,0.2-0.6,0.5-0.6c0,0,0,0,0.1,0c0.3,0,0.5,0.2,0.6,0.5
				c0.1,0.9,0.2,1.2,0.3,2.1c0.9,0.5,1.7,0.8,2.5,1.5c-0.1-0.6-0.1-1.1-0.2-1.7c0-0.3,0.2-0.6,0.5-0.6c0,0,0,0,0.1,0
				c0.3,0,0.5,0.2,0.6,0.5c0.1,1.1,0.3,2.1,0.4,3.2c0.7,0.8,1.4,1.9,1.9,2.6l-3.3-3.2l-1.7-1.3L161.4,94.4z"/>
		</g>
	</g>
	<g>
		<rect x="0.6" y="164.6" fill="#999999" width="25.7" height="1.2"/>
	</g>
	<g>
		<rect x="235" y="164.6" fill="#999999" width="25.7" height="1.2"/>
	</g>
</g>
</svg>
