<svg id="Layer_1" data-name="Layer 1" xmlns="http://www.w3.org/2000/svg" viewBox="0 0 206.96 39.27"><defs><style>.cls-1{fill:none;stroke:#bfbfbf;stroke-miterlimit:10;}</style></defs><title>df-wave-large-three</title><path class="cls-1" d="M3589.62,4288.68c4.5,0,4.5-3.6,9-3.6s4.5,3.6,9,3.6,4.5-3.6,9-3.6,4.5,3.6,9,3.6,4.5-3.6,9-3.6,4.5,3.6,9,3.6,4.5-3.6,9-3.6" transform="translate(-3517.64 -4249.91)"/><path class="cls-1" d="M3517.64,4254c4.5,0,4.5-3.6,9-3.6s4.5,3.6,9,3.6,4.5-3.6,9-3.6,4.5,3.6,9,3.6,4.5-3.6,9-3.6,4.5,3.6,9,3.6,4.5-3.6,9-3.6" transform="translate(-3517.64 -4249.91)"/><path class="cls-1" d="M3580.63,4250.41c4.5,0,4.5,3.6,9,3.6s4.5-3.6,9-3.6,4.5,3.6,9,3.6,4.5-3.6,9-3.6,4.5,3.6,9,3.6,4.5-3.6,9-3.6" transform="translate(-3517.64 -4249.91)"/><path class="cls-1" d="M3634.62,4250.41c4.5,0,4.5,3.6,9,3.6s4.5-3.6,9-3.6,4.5,3.6,9,3.6,4.5-3.6,9-3.6,4.5,3.6,9,3.6,4.5-3.6,9-3.6" transform="translate(-3517.64 -4249.91)"/><path class="cls-1" d="M3688.61,4250.41c4.5,0,4.5,3.6,9,3.6s4.5-3.6,9-3.6,4.5,3.6,9,3.6,4.5-3.6,9-3.6" transform="translate(-3517.64 -4249.91)"/><path class="cls-1" d="M3553.62,4267.74c4.5,0,4.5,3.6,9,3.6s4.5-3.6,9-3.6" transform="translate(-3517.64 -4249.91)"/><path class="cls-1" d="M3571.63,4267.74c4.5,0,4.5,3.6,9,3.6s4.5-3.6,9-3.6,4.5,3.6,9,3.6,4.5-3.6,9-3.6,4.5,3.6,9,3.6,4.5-3.6,9-3.6" transform="translate(-3517.64 -4249.91)"/><path class="cls-1" d="M3625.62,4267.74c4.5,0,4.5,3.6,9,3.6s4.5-3.6,9-3.6,4.5,3.6,9,3.6,4.5-3.6,9-3.6,4.5,3.6,9,3.6,4.5-3.6,9-3.6" transform="translate(-3517.64 -4249.91)"/><path class="cls-1" d="M3679.61,4267.74c4.5,0,4.5,3.6,9,3.6" transform="translate(-3517.64 -4249.91)"/></svg>