<?xml version="1.0" encoding="utf-8"?>
<!-- Generator: Adobe Illustrator 18.1.1, SVG Export Plug-In . SVG Version: 6.00 Build 0)  -->
<svg version="1.1" id="Layer_1" xmlns="http://www.w3.org/2000/svg" xmlns:xlink="http://www.w3.org/1999/xlink" x="0px" y="0px"
	 viewBox="0 0 91 7" enable-background="new 0 0 91 7" xml:space="preserve">
<g>
	<g>
		<path fill="#FFFFFF" d="M58.2,6.8c-2.5,0-5-0.9-6.9-2.7C48.1,1,42.9,1,39.7,4.1c-3.8,3.7-10,3.7-13.8,0C22.7,1,17.5,1,14.3,4.1
			c-3.8,3.7-10,3.7-13.8,0c-0.3-0.3-0.3-0.8,0-1.1c0.3-0.3,0.8-0.3,1.1,0C4.8,6,10,6,13.2,2.9c3.8-3.7,10-3.7,13.8,0
			c3.2,3.1,8.4,3.1,11.6,0c3.8-3.7,10-3.7,13.8,0C55.6,6,60.8,6,64,2.9c3.8-3.7,10-3.7,13.8,0C81,6,86.2,6,89.4,2.9
			c0.3-0.3,0.8-0.3,1.1,0c0.3,0.3,0.3,0.8,0,1.1c-3.8,3.7-10,3.7-13.8,0C73.5,1,68.3,1,65.1,4.1C63.2,5.9,60.7,6.8,58.2,6.8z"/>
	</g>
</g>
</svg>
