<svg id="Layer_1" data-name="Layer 1" xmlns="http://www.w3.org/2000/svg" viewBox="0 0 27 21.62"><defs><style>.cls-1{fill:none;stroke:#005395;stroke-miterlimit:10;stroke-width:1.6px;}</style></defs><title>df-wave-menu</title><path class="cls-1" d="M0,4.4C3.38,4.4,3.38.8,6.75,0.8s3.38,3.6,6.75,3.6S16.88,0.8,20.25.8,23.63,4.4,27,4.4" transform="translate(0 0)"/><path class="cls-1" d="M0,12.62C3.38,12.62,3.38,9,6.75,9s3.38,3.6,6.75,3.6S16.88,9,20.25,9s3.38,3.6,6.75,3.6" transform="translate(0 0)"/><path class="cls-1" d="M0,20.83c3.38,0,3.38-3.6,6.75-3.6s3.38,3.6,6.75,3.6,3.38-3.6,6.75-3.6,3.38,3.6,6.75,3.6" transform="translate(0 0)"/></svg>