<svg id="Layer_1" data-name="Layer 1" xmlns="http://www.w3.org/2000/svg" viewBox="0 0 36 34.05"><defs><style>.cls-1{fill:none;stroke:#fff;stroke-miterlimit:10;stroke-width:2px;}</style></defs><title>df-wave-loader</title><path class="cls-1" d="M2005.73,509.14c4.5,0,4.5,3.6,9,3.6s4.5-3.6,9-3.6,4.5,3.6,9,3.6,4.5-3.6,9-3.6" transform="translate(-2005.73 -508.14)"/><path class="cls-1" d="M2005.73,518.63c4.5,0,4.5,3.6,9,3.6s4.5-3.6,9-3.6,4.5,3.6,9,3.6,4.5-3.6,9-3.6" transform="translate(-2005.73 -508.14)"/><path class="cls-1" d="M2005.73,528.11c4.5,0,4.5,3.6,9,3.6s4.5-3.6,9-3.6,4.5,3.6,9,3.6,4.5-3.6,9-3.6" transform="translate(-2005.73 -508.14)"/><path class="cls-1" d="M2005.73,537.6c4.5,0,4.5,3.6,9,3.6s4.5-3.6,9-3.6,4.5,3.6,9,3.6,4.5-3.6,9-3.6" transform="translate(-2005.73 -508.14)"/></svg>