<svg id="Layer_1" data-name="Layer 1" xmlns="http://www.w3.org/2000/svg" viewBox="0 0 27 21.62"><defs><style>.cls-1{fill:#005395;}</style></defs><title>df-wave-menu</title><path class="cls-1" d="M33.79,5.2a5,5,0,0,1-4-2.05A3.55,3.55,0,0,0,27,1.6a3.55,3.55,0,0,0-2.79,1.55,5,5,0,0,1-4,2.05,5,5,0,0,1-4-2.05A3.55,3.55,0,0,0,13.54,1.6a3.53,3.53,0,0,0-2.79,1.55,5.11,5.11,0,0,1-4,2.05,5,5,0,0,1-4-2.05A3.55,3.55,0,0,0,0,1.6,3.55,3.55,0,0,0-2.75,3.15a5,5,0,0,1-4,2.05,5,5,0,0,1-4-2.05A3.55,3.55,0,0,0-13.46,1.6a3.53,3.53,0,0,0-2.79,1.55,5.11,5.11,0,0,1-4,2.05V3.6a3.55,3.55,0,0,0,2.8-1.55,5,5,0,0,1,4-2.05,5,5,0,0,1,4,2.05A3.55,3.55,0,0,0-6.71,3.6,3.55,3.55,0,0,0-3.92,2.05,5,5,0,0,1,0,0,5,5,0,0,1,4,2.05,3.55,3.55,0,0,0,6.79,3.6a3.55,3.55,0,0,0,2.8-1.55,5,5,0,0,1,4-2.05,5,5,0,0,1,4,2.05A3.55,3.55,0,0,0,20.29,3.6a3.55,3.55,0,0,0,2.79-1.55,4.84,4.84,0,0,1,7.92,0A3.55,3.55,0,0,0,33.79,3.6V5.2Z"/><path class="cls-1" d="M6.79,13.42a5,5,0,0,1-4-2.06A3.55,3.55,0,0,0,0,9.8a3.55,3.55,0,0,0-2.79,1.55,5,5,0,0,1-4,2.05,5,5,0,0,1-4-2.05A3.55,3.55,0,0,0-13.46,9.8a3.53,3.53,0,0,0-2.78,1.55,5.1,5.1,0,0,1-4,2.07v-1.6a3.54,3.54,0,0,0,2.8-1.56,5,5,0,0,1,4-2.06,5,5,0,0,1,4,2.05A3.55,3.55,0,0,0-6.71,11.8a3.55,3.55,0,0,0,2.79-1.55A5,5,0,0,1,0,8.2a5,5,0,0,1,4,2.06,3.55,3.55,0,0,0,2.79,1.56,3.54,3.54,0,0,0,2.8-1.56,5,5,0,0,1,4-2.06,5,5,0,0,1,4,2.05,3.55,3.55,0,0,0,2.79,1.55,3.55,3.55,0,0,0,2.79-1.55,4.84,4.84,0,0,1,7.92,0,3.55,3.55,0,0,0,2.79,1.55v1.6a5,5,0,0,1-4-2.05A3.55,3.55,0,0,0,27,9.8a3.55,3.55,0,0,0-2.79,1.55,5,5,0,0,1-4,2.05,5,5,0,0,1-4-2.05A3.55,3.55,0,0,0,13.54,9.8a3.53,3.53,0,0,0-2.78,1.55A5.1,5.1,0,0,1,6.79,13.42Z"/><path class="cls-1" d="M33.79,21.63a5,5,0,0,1-4-2.05A3.54,3.54,0,0,0,27,18a3.54,3.54,0,0,0-2.79,1.55,5,5,0,0,1-4,2.05,5,5,0,0,1-4-2.05A3.54,3.54,0,0,0,13.54,18a3.54,3.54,0,0,0-2.79,1.54,5.11,5.11,0,0,1-4,2.05,5,5,0,0,1-4-2.05A3.55,3.55,0,0,0,0,18a3.55,3.55,0,0,0-2.79,1.55,5,5,0,0,1-4,2.05,5,5,0,0,1-4-2.05A3.55,3.55,0,0,0-13.46,18a3.54,3.54,0,0,0-2.79,1.54,5.11,5.11,0,0,1-4,2.05V20a3.55,3.55,0,0,0,2.8-1.55,5,5,0,0,1,4-2.05,5,5,0,0,1,4,2.05A3.55,3.55,0,0,0-6.71,20a3.55,3.55,0,0,0,2.79-1.55,5,5,0,0,1,4-2.05,5,5,0,0,1,4,2.05A3.55,3.55,0,0,0,6.79,20a3.55,3.55,0,0,0,2.8-1.55,5,5,0,0,1,4-2.05,5,5,0,0,1,4,2.05A3.54,3.54,0,0,0,20.29,20a3.54,3.54,0,0,0,2.79-1.55,4.84,4.84,0,0,1,7.92,0A3.54,3.54,0,0,0,33.79,20v1.6Z"/></svg>