<svg id="Layer_1" data-name="Layer 1" xmlns="http://www.w3.org/2000/svg" viewBox="0 0 80.99 34.05"><defs><style>.cls-1{fill:none;stroke:#fff;stroke-miterlimit:10;stroke-width:2px;}</style></defs><title>df-wave-large-four</title><path class="cls-1" d="M1960.74,512.74c4.5,0,4.5-3.6,9-3.6s4.5,3.6,9,3.6,4.5-3.6,9-3.6,4.5,3.6,9,3.6,4.5-3.6,9-3.6" transform="translate(-1960.74 -508.14)"/><path class="cls-1" d="M2005.73,509.14" transform="translate(-1960.74 -508.14)"/><path class="cls-1" d="M1960.74,522.23c4.5,0,4.5-3.6,9-3.6s4.5,3.6,9,3.6,4.5-3.6,9-3.6,4.5,3.6,9,3.6,4.5-3.6,9-3.6" transform="translate(-1960.74 -508.14)"/><path class="cls-1" d="M2005.73,518.63" transform="translate(-1960.74 -508.14)"/><path class="cls-1" d="M1960.74,531.71c4.5,0,4.5-3.6,9-3.6s4.5,3.6,9,3.6,4.5-3.6,9-3.6,4.5,3.6,9,3.6,4.5-3.6,9-3.6" transform="translate(-1960.74 -508.14)"/><path class="cls-1" d="M2005.73,528.11" transform="translate(-1960.74 -508.14)"/><path class="cls-1" d="M1960.74,541.2c4.5,0,4.5-3.6,9-3.6s4.5,3.6,9,3.6,4.5-3.6,9-3.6,4.5,3.6,9,3.6,4.5-3.6,9-3.6" transform="translate(-1960.74 -508.14)"/><path class="cls-1" d="M2005.73,537.6" transform="translate(-1960.74 -508.14)"/><path class="cls-1" d="M2005.73,509.14c4.5,0,4.5,3.6,9,3.6s4.5-3.6,9-3.6,4.5,3.6,9,3.6,4.5-3.6,9-3.6" transform="translate(-1960.74 -508.14)"/><path class="cls-1" d="M2005.73,518.63c4.5,0,4.5,3.6,9,3.6s4.5-3.6,9-3.6,4.5,3.6,9,3.6,4.5-3.6,9-3.6" transform="translate(-1960.74 -508.14)"/><path class="cls-1" d="M2005.73,528.11c4.5,0,4.5,3.6,9,3.6s4.5-3.6,9-3.6,4.5,3.6,9,3.6,4.5-3.6,9-3.6" transform="translate(-1960.74 -508.14)"/><path class="cls-1" d="M2005.73,537.6c4.5,0,4.5,3.6,9,3.6s4.5-3.6,9-3.6,4.5,3.6,9,3.6,4.5-3.6,9-3.6" transform="translate(-1960.74 -508.14)"/></svg>