<svg id="Layer_1" data-name="Layer 1" xmlns="http://www.w3.org/2000/svg" viewBox="0 0 733 182.32"><defs><style>.cls-1{font-size:12px;fill:#bfbfbf;font-family:GTPressuraTrial Regular;letter-spacing:3px;}.cls-2{font-family:Myriad Pro;}.cls-3{white-space:pre;}.cls-4{letter-spacing:2px;}.cls-5{font-size:24px;font-family:Simple Bold;font-weight:700;letter-spacing:5px;}.cls-5,.cls-7{fill:#005395;}.cls-6{fill:none;stroke:#bfbfbf;stroke-miterlimit:10;stroke-dasharray:1 4;}</style></defs><title>signature</title><text class="cls-1" transform="translate(270.92 130.84)">MICHAEL <tspan class="cls-2" x="77.56" y="0">&amp;</tspan><tspan class="cls-3" x="88.42" y="0"> NEL</tspan><tspan class="cls-4" x="124.82" y="0">L</tspan><tspan x="133.08" y="0">Y HAND</tspan></text><text class="cls-5" transform="translate(359.35 84.36)">+</text><line class="cls-6" x1="0.11" y1="101.32" x2="733" y2="101.32"/><path class="cls-7" d="M3350,4720.76a314,314,0,0,0,107.64-95.52,1.51,1.51,0,0,0-1.3-2.26c-15.81.08-39.08,1.29-45.69,18.89-4.69,12.5-.18,26.4-1.18,39.31a30.64,30.64,0,0,1-2.67,10.73c-4.44,9.47-9.57,18.68-14.35,28l2.8,0.76c2-26,17.35-48,32.06-68.61l-1.69.69c6.56,1.58,3.77,14.34,3.11,19.1-1.08,7.79-2.39,15.54-3.7,23.29-3,17.75-6.26,35.47-9,53.27-0.84,5.52-2,11.28-1.93,16.88,0,1.62,2.68,2.13,2.95.4,3.65-23.8,12.92-46.58,24.23-67.71,7.93-14.8,17-31.17,29.55-42.64l-2.51-1.46a284.07,284.07,0,0,1-18.72,51.26,1.5,1.5,0,0,0,2.59,1.51,250.57,250.57,0,0,1,41.78-45.52l-2.36-1.82-18.12,29.19a1.51,1.51,0,0,0,2.05,2.05A176.07,176.07,0,0,0,3500,4676l-2.26-1.3c-0.52,4.11-3,16.74,3.9,17.62,4.54,0.58,8.45-4.19,12.66-5.15l-1.69-2.2a31.69,31.69,0,0,0-5,17.47,1.51,1.51,0,0,0,1.9,1.45,77.85,77.85,0,0,1,30.46-5.4,74.19,74.19,0,0,1,7.88.65c1.2,0.16,3.11.9,4.34,0.45s2.62-2.35,3.62-3.31l5.65-5.41c1.4-1.34-.73-3.46-2.12-2.12-3.21,3.07-6.27,7.75-10.9,7.45-4.36-.28-8.6-0.85-13-0.72a80.53,80.53,0,0,0-26.75,5.51l1.9,1.45a28.78,28.78,0,0,1,4.57-16,1.52,1.52,0,0,0-1.69-2.2c-3.55.82-6.22,3.53-9.61,4.65-6.21,2-3.53-11.27-3.16-14.22a1.51,1.51,0,0,0-2.26-1.3,176.07,176.07,0,0,1-24.43,14.52l2.05,2.05,18.12-29.19c0.94-1.52-1.11-2.87-2.36-1.82a253.64,253.64,0,0,0-42.25,46.13l2.59,1.51a288.13,288.13,0,0,0,19-52,1.51,1.51,0,0,0-2.51-1.46c-12.74,11.64-22,28.24-30,43.25-11.44,21.33-20.85,44.39-24.53,68.43l2.95,0.4c-0.08-5.49,1.06-11.11,1.89-16.52,1.4-9.15,3-18.28,4.54-27.41,3-17.51,6.4-35,8.6-52.66,0.77-6.18,2.18-16.95-5.73-18.85a1.56,1.56,0,0,0-1.69.69c-15.08,21.1-30.48,43.48-32.47,70.12a1.51,1.51,0,0,0,2.8.76l12-23.37c1.79-3.49,3.63-6.85,4.53-10.69,1.45-6.14,1.15-12.54.74-18.78-0.79-12.09-2.89-27,8.41-35.09,9.92-7.1,24-7.46,35.63-7.52l-1.3-2.26a310.7,310.7,0,0,1-106.57,94.44c-1.7.92-.19,3.51,1.51,2.59h0Z" transform="translate(-3254.62 -4622.99)"/><path class="cls-7" d="M3572.47,4632.76q-30,48.37-63.15,94.61l2.59,1.51,9.37-15c1-1.64-1.57-3.15-2.59-1.51l-9.37,15c-1,1.67,1.48,3.05,2.59,1.51q33.18-46.21,63.15-94.61c1-1.65-1.57-3.15-2.59-1.51h0Z" transform="translate(-3254.62 -4622.99)"/><path class="cls-7" d="M3570.42,4680.91a437.52,437.52,0,0,1-36,52.51c-1.19,1.49.92,3.63,2.12,2.12a442.72,442.72,0,0,0,36.44-53.11,1.5,1.5,0,0,0-2.59-1.51h0Z" transform="translate(-3254.62 -4622.99)"/><path class="cls-7" d="M3638.92,4709.54c21.41-1.53,43.18-1.35,64.3-5.61,20.22-4.08,38.06-13.4,52.22-28.51a1.51,1.51,0,0,0-.66-2.51c-18.75-4-32.27,9.85-45.31,20.87-6.09,5.15-13,7.58-20.19,10.59s-12.45,7.53-17.18,13.54l2.51,1.46c4.49-12,11.11-22.07,21.89-29.16,10.31-6.78,21.87-11.57,32.57-17.7L3727,4672c5.28,11.13,2.29,25.37-.31,36.94-1.68,7.46-5.62,14.29-8.64,21.25l2.74,1.16c2.64-6.66,5.72-12.39,11-17.25a90,90,0,0,0,13.14-14.79l-2.74-.36c2.17,8,11.3,10.57,18.26,6.93,8.81-4.6,12.65-15.31,12-24.74a1.52,1.52,0,0,0-2.56-1.06,14.34,14.34,0,0,1-7.48,3.63,6,6,0,0,0-2.42.36c-2.54,1.5-1.81,6.53-1.86,8.85a1.51,1.51,0,0,0,1.1,1.45,34.94,34.94,0,0,0,23.86-4.58l-2.2-.9c1.18,6.1,6.75,9.55,12.68,10,8.72,0.73,17.67-2.3,26.46-2.4a100.52,100.52,0,0,1,53.5,14.91,1.52,1.52,0,0,0,2.2-.9c6-15.92,7.06-33.73,9.85-50.39,0.32-1.89-2.57-2.7-2.89-.8-2.79,16.66-3.89,34.47-9.85,50.39l2.2-.9a103.87,103.87,0,0,0-43.11-14.74,100.14,100.14,0,0,0-23.79.27c-7.7,1-22.15,5.07-24.35-6.29a1.51,1.51,0,0,0-2.2-.9,31.61,31.61,0,0,1-21.55,4.28l1.1,1.45c0-.92-0.43-5.34.38-6.13,0.09-.09,1.39-0.08,1.89-0.14,3.36-.41,6.05-2.34,8.61-4.44l-2.56-1.06c0.47,6.72-1.28,13.84-6.12,18.79-5.11,5.23-15.78,7.32-18.25-1.78a1.52,1.52,0,0,0-2.74-.36c-4.25,6.08-9.27,10.7-14.46,15.87-4.76,4.74-7.55,10.72-10,16.89-0.62,1.57,2.07,2.71,2.74,1.16,3.4-7.84,7.68-15.39,9.33-23.85,2.36-12.1,5.12-25.77-.38-37.37a1.52,1.52,0,0,0-2.05-.54c-11.56,6.63-24.34,11.64-35.15,19.49-10.13,7.36-16.34,17.59-20.69,29.17-0.51,1.36,1.59,2.63,2.51,1.46a41,41,0,0,1,17.85-13.56c5.39-2.11,10.69-4.09,15.49-7.44,6.83-4.77,12.27-11.21,19.16-16,8.09-5.58,17.34-9.41,27.27-7.28l-0.66-2.51c-14.18,15.13-32,24.12-52.23,28-20.44,3.92-41.47,3.77-62.16,5.24-1.91.14-1.93,3.14,0,3h0Z" transform="translate(-3254.62 -4622.99)"/><path class="cls-7" d="M3883.07,4658.65c-37,28.74-74,57.46-112.7,83.81l2.2,0.9c-2.59-12.34,1-25,10.28-33.68,8.29-7.71,18.09-9,28.88-7.08,19.69,3.56,40.88,12.33,54.83,27,10.81,11.33,18.85,28.81,33.79,35.39,6.94,3.06,24.12,6,20.72-6.6-1.92-7.14-6-13.67-8.47-20.66-3.35-9.62-4.4-19.55-.53-29.2,0.72-1.79-2.18-2.57-2.89-.8-6.28,15.68.21,30.77,6.57,45.19,1.53,3.46,5.75,10.83-.43,11.64-8.16,1.07-16.48-2.75-22.31-8.16-13.37-12.4-21.33-29.19-36.82-39.6-7.75-5.2-16.85-8.81-25.59-12-9.51-3.44-20-6.6-30.22-6.06-22.25,1.18-34.91,25.37-30.7,45.44a1.51,1.51,0,0,0,2.2.9c38.94-26.49,76.14-55.38,113.3-84.28,1.52-1.18-.61-3.29-2.12-2.12h0Z" transform="translate(-3254.62 -4622.99)"/></svg>